<svg id="Layer_1" data-name="Layer 1" xmlns="http://www.w3.org/2000/svg" viewBox="0 0 516.02 560"><defs><style>.cls-1{fill:#ffff20;}</style></defs><title>arrow_hd-01</title><path class="cls-1" d="M416.38,289.44c1-.89,2.05-1.38,1.76-1a19.6,19.6,0,0,1,1.42-1.43l-0.83,1.6c0-.51,0-0.52-0.5-0.55,0-.05,0,0-0.06,0a6.16,6.16,0,0,0,.76-0.23,1.45,1.45,0,0,0,.47-0.22,0.6,0.6,0,0,1,.13-0.08l0.09-.06,0.07-.08,0,0a0.29,0.29,0,0,1,0,.07,0.84,0.84,0,0,0-.08.25,1.7,1.7,0,0,1,0,.25,1.37,1.37,0,0,0,0,.5,2.15,2.15,0,0,1,0-.53c0-.15,0-0.18,0-0.3a0.87,0.87,0,0,1,.06-0.17,0.07,0.07,0,0,0,0-.05,1.72,1.72,0,0,0-.16,1,0.39,0.39,0,0,0,0,.22l0,0-0.12.06-0.21.11-0.27.16a12,12,0,0,0-1.11.76c-0.32.23-.53,0.42-0.53,0.42l0.35-.21,0.75-.4a7.24,7.24,0,0,1,.68-0.29l0.26-.09a0.53,0.53,0,0,1-.18.25,3.67,3.67,0,0,1-.37.25c-0.3.17-.74,0.4-1.18,0.67a4.35,4.35,0,0,0-1.94,1.75s1-.78,1.94-1.43a12.51,12.51,0,0,1,1.26-.77,4.37,4.37,0,0,1,.48-0.23l-0.06.24,0.23-.17,0.17-.1h0l0-.23c0-.3,0-0.69-0.08-0.85a2.19,2.19,0,0,1,0-.67,0.88,0.88,0,0,1,.07-0.36l0-.08h0v0c0-.07,0,0-0.08.08l-0.09.05-0.19.12a1.42,1.42,0,0,1-.43.17,3.7,3.7,0,0,1-1.22.29l-0.15,0h0v0h-0.2l0.1,0,0.25,0,0.23,0a3.43,3.43,0,0,0,.58-0.12l0.36-.13c0.12,0,.18,0,0.28-0.09l-0.21.06-0.33.12a3.45,3.45,0,0,1-.66.14,2.47,2.47,0,0,0-.36,0l-0.22,0-0.1,0h0a0,0,0,0,0,0,0s0,0.21,0,.29l1.37-2.65c-2.74,2.51.25,1.17-3.29,4.36A8.9,8.9,0,0,1,416.38,289.44Z"/><path class="cls-1" d="M411.2,291.83l-1.25,2-3,2.28c0.14,0.23-1.85,2.16-.26,1.14a12,12,0,0,1,1.22-1.14c0,0.71-3.69,3.45-2.46,3.17,2.2-2,2.64-2.24,3.76-3.77a47.58,47.58,0,0,1,4.88-3.57,19.34,19.34,0,0,1,1.19-1.65l-0.53.47-0.63-.58a14.09,14.09,0,0,1-2,1.78l2.77-3.61c-1.61.3-4.66,3.46-6.21,4.33C410.81,291.87,407.59,294.08,411.2,291.83Z"/><path class="cls-1" d="M415.24,290.32l0.08-.07Z"/><path class="cls-1" d="M185,480.76a2.1,2.1,0,0,0-.95-1l0.82,1.46c0.48,0.88,1.18,2,1.88,3.18l1.92,3.16c0.52,0.86.89,1.43,0.89,1.43,0-.4-1.36-3.19-0.18-1.5a9.85,9.85,0,0,0-2.37-3.39l0.7,0.49c-1.66-1.89-1.78-3.77-.73-2.52l-0.11-.17s-0.31-.31-0.76-0.79l-1.65-1.76L182,476.73C183.17,479,183.48,478.14,185,480.76Z"/><path class="cls-1" d="M88.24,285.56c0.58,1.26.72,1.38,0.74,1.21A12.08,12.08,0,0,0,88.24,285.56Z"/><path class="cls-1" d="M180.91,475.51l-1.46-1.65A12.33,12.33,0,0,0,180.91,475.51Z"/><path class="cls-1" d="M195.18,484.15a0.07,0.07,0,0,0,.06-0.07l-0.71-.65v0Z"/><path class="cls-1" d="M158.77,432.32l-0.3-.63C158.57,431.93,158.67,432.13,158.77,432.32Z"/><path class="cls-1" d="M204.74,492a2.1,2.1,0,0,1,0,.43,4.85,4.85,0,0,1-.12.54,2.39,2.39,0,0,1-.09-0.59l-0.06.22a0.56,0.56,0,0,0,0,.25s0.07-.06.07-0.06l-0.06.44-0.06.27c0,0.17-.07.31-0.11,0.44a0.43,0.43,0,0,1-.66.29,1.32,1.32,0,0,0,.52.86c0.16,0,.28.05,0.39-0.45,0.07-.16.13-0.27,0.19-0.38a8.82,8.82,0,0,0,.18-1,4.23,4.23,0,0,0,0-.79A4.1,4.1,0,0,0,204.74,492Z"/><path class="cls-1" d="M121.94,342.08l0.07,0S121.95,342.06,121.94,342.08Z"/><path class="cls-1" d="M122.31,342.16l-0.3-.07C122.23,342.26,122.81,343,122.31,342.16Z"/><path class="cls-1" d="M181.68,476a1.54,1.54,0,0,1-.77-0.48l0.55,0.61,0.57,0.6C181.92,476.53,181.8,476.25,181.68,476Z"/><path class="cls-1" d="M184.8,478.42l1,1.72c0.51,0.86,1,1.71,1,1.71l1.08,1.08C187,481.7,186,480.19,184.8,478.42Z"/><path class="cls-1" d="M160.85,438.28c-3.34-7.56,1.55,1.55.25-2-1-2.07-1.65-2.66-2.32-3.93,2.85,5.89-1.54-.32,1.23,5.68-1-.59-2.57-4.09-3.26-6.22-0.36-2.6,1.32,1.85,2.16,2.11-1.13-2.4-1.06-1.92-1.85-2.8-1.47-3.89-4.1-7.58-4.19-10.22-1.31-2.69-1.53-2.38-2.53-3.82-0.8,0,1.39,4.24,1.29,5.48,0-.23-0.09-0.69.05-0.61l0.87,2.44c-0.72-2.37.8,0,1.37,1.22,0.39,0.88,1.15,2.61.87,2.45l-0.71-1.27c0.51,1.81,2.09,3.58,2.49,5.56-0.11.16-.47-0.5-0.61-0.57,1.32,1.85,2.11,3.82,3.73,6.71L158.26,437c1.77,2.11,3.89,7.67,5.18,11.64-0.07-.47-0.32-1.26,0-0.86,1.12,2.16,1.43,4,.62,3.17,1.52,1.93,3.27,8.51,5.4,11.14l1.52,1.88,3.42,4.08,1.82,2.16,1.64,1.86,1.6,1.81a16,16,0,0,1-1-1.48c-0.07-1.5-.47-2.11,1.16-0.28-1.36-1.92-1.46-.87-3-4,0.89,1.09,1.7,1.07.28-2-4.28-7.21-8.19-11.53-12.2-18.32,0.33-.46-2.25-6-3.3-8.81,0.93,0.84,1.92,2.81,2.94,4.87l-2.2-5.31Z"/><path class="cls-1" d="M170.15,455.39a6.47,6.47,0,0,0-.18-0.63A2.6,2.6,0,0,0,170.15,455.39Z"/><path class="cls-1" d="M164.56,444.51a0.07,0.07,0,0,0,.06,0l-0.33-.65Z"/><path class="cls-1" d="M181.74,473.74c0.35,0.37.56,0.68,0.91,1.05-0.18-.25-0.39-0.57-0.6-0.88S181.69,473.51,181.74,473.74Z"/><path class="cls-1" d="M181.76,475.62l-0.3-.14,0.22,0.51C181.81,476,181.85,475.9,181.76,475.62Z"/><path class="cls-1" d="M152.61,407.63l-0.42-.68A2.07,2.07,0,0,0,152.61,407.63Z"/><path class="cls-1" d="M158,429.49c1.16,2.62.81,0,2.38,3.77L160,432.14c1.41,2.56,3.29,7.33,4.68,10.5-0.42-.24.52,2.07-0.06,1.88a23.53,23.53,0,0,0,3,5.18c0.47,1.41,1.76,3.28,2.35,5.06-0.08-.83,1.93,2-0.24-2,0.18,0.32.15,0.08,0.33,0.4-0.85-2.83-1.95-3.63-3-5.94-0.36-1.49,1.38,2.08.91,0.74-1.5-2.78-3.64-9.18-4.48-8.59a7.66,7.66,0,0,1-1-3.15c-2.41-2.91-4.78-12.53-6-12a47.21,47.21,0,0,0,2.39,4.85Z"/><path class="cls-1" d="M179.43,469.48c-0.08-.16-0.19-0.37-0.25-0.5Z"/><path class="cls-1" d="M196.94,504.89l-0.9-.4-0.93-.44c-1-1.15-1.82-2.33-2.63-3.4l-1.38-1.87c-0.8-1.08-1.48-2-2.08-3l-1.88-2.94c-0.66-1-1.39-2.13-2.18-3.45-0.14-.47.32,0.13,0.55,0.43-1.15-1.83-2.57-4.13-3.86-6.33a60.73,60.73,0,0,0-3.43-5.54c-0.64-1.21-2-4.52-1.18-3.44a14,14,0,0,1-1.13-1.87c0.2-.33.87,1.47,1.13,1.38a2.14,2.14,0,0,0-.47-0.86c0.72,0.77.49-1.44,2.66,2.75,0.18,2-1.6-2.86-1.84-1.51,0.72,1.39.93,1.08,1.08,1.15,0.91,1.78.71,1.83,0.49,1.83,0.6,0.55,1.53,2.93,2.39,3.66,2,3.37-.65.13,0.61,2.35l0.73,0.43,0.75,0.42,2.07,3.72c1.72,2.56,1.93,2.16,2.2,1.87s0.62-.52,2.75,2.27c-0.86-.54,0,2.26,1.77,5a55.1,55.1,0,0,1-4.81-6.58c0.71,1.67,0,.66-0.8-0.54s-1.67-2.61-1.52-1.62a36.82,36.82,0,0,1,4,5.81l-0.48-.59a19,19,0,0,0,2.2,2.74c0.41,0.44.85,0.9,1.28,1.45,0.22,0.27.43,0.56,0.65,0.87l0.32,0.49,0.38,0.6c1.62,2.19,1.16,2,.73,1.7C195.64,503.28,197,504.69,196.94,504.89Zm-3.81-4.7-1.36-2a4.62,4.62,0,0,0,.5.88l0.36,0.49Z"/><path class="cls-1" d="M388,311.69l0.54-.39A3.64,3.64,0,0,0,388,311.69Z"/><path class="cls-1" d="M249.23,446.68l0.87-.92C249.74,446.11,249.47,446.41,249.23,446.68Z"/><path class="cls-1" d="M266.52,424l1.13-1.48A10.18,10.18,0,0,0,266.52,424Z"/><path class="cls-1" d="M376.65,321.59l-0.05,0-0.19.23Z"/><path class="cls-1" d="M307.75,384.63a7.55,7.55,0,0,0,.86-0.59A2.33,2.33,0,0,0,307.75,384.63Z"/><path class="cls-1" d="M266.31,424.26l0.09-.07,0.12-.2Z"/><path class="cls-1" d="M239,454.28l-0.48.66A5.49,5.49,0,0,0,239,454.28Z"/><path class="cls-1" d="M242,454.57c-0.18.23-.35,0.45-0.47,0.64Z"/><path class="cls-1" d="M211.81,486.3l-1,1.38A11.59,11.59,0,0,0,211.81,486.3Z"/><path class="cls-1" d="M238.53,457.54a2.11,2.11,0,0,0-.09.27C238.58,457.62,238.61,457.5,238.53,457.54Z"/><path class="cls-1" d="M397.87,306.56l-0.08.07,0,0.1Z"/><path class="cls-1" d="M400.21,302.94l1.09-1A12.13,12.13,0,0,0,400.21,302.94Z"/><path class="cls-1" d="M326.41,368.34c0.41-.22,1.27-0.85,1-0.41C327.92,367.21,327.58,366.94,326.41,368.34Z"/><path class="cls-1" d="M395,316a6.82,6.82,0,0,1,.53-0.83C395.18,315.63,394.83,316.07,395,316Z"/><path class="cls-1" d="M395.58,315.13l0.57-.74C395.94,314.64,395.75,314.89,395.58,315.13Z"/><path class="cls-1" d="M323.07,381.33a1.33,1.33,0,0,0-.45.28A0.55,0.55,0,0,0,323.07,381.33Z"/><path class="cls-1" d="M402.3,301.23c0.07-.33,4.73-4.89.51-1.41-0.25-.62,2.48-2.5,3.51-3.54-0.91.57,0.14-.65-0.25-0.61a16.25,16.25,0,0,1-2,1.94c-0.61.13,0.66-1.18,1.82-2-1.55.87,1.38-1.8-.68-0.41a59.76,59.76,0,0,0-8.8,9.29,65.33,65.33,0,0,1,6.66-5.82l-0.44,1.09c-2.43,1.45-3.51,2.84-5.62,4.59l4.87-3.79c2.49-1.53,1.09-.2-0.58,1.36A3.43,3.43,0,0,1,402.3,301.23Z"/><path class="cls-1" d="M402.25,307.56l0.09-.06a2.17,2.17,0,0,0,.16-0.21Z"/><path class="cls-1" d="M220.37,493.23l-0.18.54C220.4,493.37,220.44,493.23,220.37,493.23Z"/><path class="cls-1" d="M397.75,307.94h0Z"/><path class="cls-1" d="M229,483.37a0.43,0.43,0,0,1,0,.08A0.2,0.2,0,0,0,229,483.37Z"/><path class="cls-1" d="M222.46,473a0.21,0.21,0,0,0-.11,0C222.19,473.25,222.3,473.16,222.46,473Z"/><path class="cls-1" d="M229,483.32a0.05,0.05,0,0,1,0,0S229,483.32,229,483.32Z"/><path class="cls-1" d="M270.24,434.71a3.79,3.79,0,0,0-.49.25C269.7,435.09,269.83,435,270.24,434.71Z"/><path class="cls-1" d="M261.08,443.39l-0.2.13Z"/><path class="cls-1" d="M322.55,368.65c-0.46.43-.79,0.76-1.06,1.06A14.06,14.06,0,0,0,322.55,368.65Z"/><path class="cls-1" d="M229,483.45a3.79,3.79,0,0,1-.27.6A3.14,3.14,0,0,0,229,483.45Z"/><path class="cls-1" d="M281.48,418.89l-0.23.32,0.18-.15Z"/><path class="cls-1" d="M286.35,414.45a2.52,2.52,0,0,0-.19.45c1.47-1.84,4.65-4.77,4.6-5.54-0.54.58-3.67,3.31-3.42,2.57-1,1.28-3,2.73-3.56,3.43,2.1-1.71.55,0.13-.57,1.57-1.27,1.07-.12-0.55-1.19.4l-2.6,2.8,1.17-1.18,1.19-1.17-0.3,1.11,0.2-.28C285.41,414.4,282.6,418.84,286.35,414.45Z"/><path class="cls-1" d="M286.17,414.9a6.71,6.71,0,0,0-.53.74A2.2,2.2,0,0,0,286.17,414.9Z"/><path class="cls-1" d="M302.92,399.14c0.19-.22.39-0.46,0.64-0.77Z"/><path class="cls-1" d="M189.31,485.4c-0.09.17,1.33,3.18,1.69,2.88-0.51-.84-1-1.72-1.44-2.59Z"/><path class="cls-1" d="M346.14,353.77c-0.28.24-.55,0.49-0.81,0.74l-0.11.19A5.91,5.91,0,0,0,346.14,353.77Z"/><path class="cls-1" d="M287.91,411.07a3.5,3.5,0,0,0-.56.87A3.53,3.53,0,0,0,287.91,411.07Z"/><path class="cls-1" d="M347,354.37a3.42,3.42,0,0,1,1.23-.51c0.7-.65,1-1.28,1.69-2A21.73,21.73,0,0,1,347,354.37Z"/><path class="cls-1" d="M350,351.81l-0.05.06Z"/><path class="cls-1" d="M188.45,483.63l-0.53-.7,0.33,0.33-1.06-2c-0.16-.22-0.32-0.47-0.51-0.78a0.73,0.73,0,0,0,.25.23l-0.31-.66c-1.25-1.36-3.78-5.1-4.57-6.14a43.05,43.05,0,0,1-2.62-4.43c0.56,1.09,1.39,2.48,1.38,1.94-0.46-1.16-.67-2.08-1.08-3.16a16.8,16.8,0,0,0-2.19-4.1l1.12,2.24-3.34-4.64c-0.5-1.95,1.65,2.33,2.32,2.87-2.4-3.71-2.73-7.58-4.36-9.05,0.32-.46.86-1.24-0.36-3.83,0.34,2.11-1-1.42-.88.37-0.66-.79-1.15-3-1.56-3l0.3,0.16c-1.28-4.79-3-5.78-4.22-7.54-2.49-5.31-3.26-7.91-5.18-12.28a4.49,4.49,0,0,0-.22-3.6c-0.75-.65-2.62-4.55-3.31-4.74,1.11,3.25,1.53,2.4,2.44,4.23,0.11,1.8-.48.37,0.1,2.66-0.52-1.82-3.58-7.71-3.88-9.82l0.36,0.64c-1-3.15.08-4.29-2.88-9l-1.36-2.25a0.73,0.73,0,0,0,.24.12c-1.68-3.92-.62-3.12-3-7.21,0.19,0.31.15,0.08,0.34,0.4-0.86-2.56-2.61-4.73-3.6-6.5-0.11-1.32.54,0.06,1.18,0.6a38.33,38.33,0,0,0-3.42-6.18,56.12,56.12,0,0,0-3.4-4.66l-1.19-2.81c1,1.5,2.51,3.22,2.5,2.6a20.07,20.07,0,0,1-2-3.18,12.81,12.81,0,0,1,2,1.77c-1.87-4.57-1.46-.46-2.27-3.93-0.72-1.36-1.53-1.94-1.93-1.92L137.19,374c-0.56,0-2.25-3-3.41-5-0.31-.14.45,1.83,1,2.49-0.41,0-1.71-2-2.47-3.33,0.57-1-5.12-8.73-3.22-7.71-3.74-5.87-8.73-14.26-11.37-18-0.52-1.45-2-4.13-.73-2.75-2.8-4.85-5.07-6.88-7.59-11.85-0.12-.46,1.24,2.19,1.43,1.85-2.13-3-2.86-6-5.8-10.8a2,2,0,0,0,.92,1c-0.1.17-1.38-1.88-2.21-3.09-0.31-.76.62,0.91,0.51,0.44-4.73-9.81-9.65-16.64-14-26.66,1.24,2.86,2.3,3.66,2.55,3.58l-1.21-2.79a53.88,53.88,0,0,1-2.66-4.7c0-.27-0.19-1.18.29-0.36a30.51,30.51,0,0,0-3.17-7.21A44.23,44.23,0,0,1,82.67,271l2.08,4,1.42,2.75c0.38,0.75.66,1.24,0.66,1.24s-0.09-.55-0.16-1.11l-0.14-1.12,0.92,1.74,1,1.71c-0.56-2.27-1.92-3.92-1.57-4.35,0.29,0.42.63,1.55,0.89,1.49-0.55-2.17-.95-2.21-1.58-3.76A32.9,32.9,0,0,1,88,277.13c0.6,1.38,1.36,2.84,2,4.35L92,285.9c0.66,1.38,1.27,2.66,1.79,3.7,0.37,0.64-.47-0.48-0.62-0.56,0.79,1.72,1,2.89,2.08,5,1,1.17-.18-1.16-0.6-2.26,0.4,0,.62.55,1.19,1.72-0.34.47,2.93,6.57,3.11,8.36,3.29,6.2.62-1.56,3.52,4.64l0.43,2.08c1.07,1.68,2.35,3.59,3.57,5.59s2.4,4.1,3.45,6.09l-0.47-.82c-0.52-.44-0.14.55,0,1,1.45,3.09,3.49,5.45,4,7.51,2.43,3.09,6,8.5,8.51,12.2,0,1.41-3.44-4.71-4.75-6.09l2,3.51a15.73,15.73,0,0,0-3.1-4c1.63,3.15,2.79,3.84,4.63,6.66-0.3-.13-0.19.32,0.58,1.67l0.64,0.14a1.55,1.55,0,0,0,.25.64l3.26,5c-0.46-1.21-.12-1.47-0.89-2.81,0,0.62-.68-0.49-1.45-1.83,1,1-.52-1.44-0.28-1.55,1.54,2.69,3.51,6,4.65,7.66l-0.06.8c1.38,2.62,3.16,5.21,4.05,7l-0.52-.43c1.66,3.14,3.63,6.06,4.82,9,2,2.5,4.32,5.81,6.06,7.83,0.6,0.46,1.54,2.62,2.64,5a35.07,35.07,0,0,0,3.52,6.42c0,0.25-1.49-2-2.28-3,1,2.15,2.52,3.54,2.33,4.48-2.26-4.89-.3.48-1.56-1.6a48.92,48.92,0,0,0,3.21,5.55c-1.85-3.63,1.41.91-.7-2.65a50.26,50.26,0,0,1,5.46,10c-0.26.08-.15,0.55,0.33,1.89l0.82,0.89c0.67,1.65-1.82-3-.48.37,2.14,3.09,4.13,10.29,5.88,11.29,0.67,2.76-2.56-4.7-1.42-.6-1.38-2.08-2.27-5.39-3.15-5.89,1.12,2.14-.12,1,0.49,2.44l1.41,2.31-0.22-.55c2.33,3.9,4.84,10.57,7.15,15.81,2.44,4.23,4.55,7,6.77,12.31-1-1.43,1.6,4.55-.46,1.47,0.78,2.58,2.18,4.86,2.45,4.8-0.86-2.2-.25-0.79-0.93-2.66a21.36,21.36,0,0,1,2.38,5.17c-0.22-.54-0.18-0.32-0.33-0.39,1,2.65.84,1.1,1.8,2.89-0.15.77,1.73,4.13,2.32,5.89L181,457.3c-1-1.15.94,2.39,0.8,2.93a27,27,0,0,1,3.48,5.46c-0.75-1,.95,2.49.6,2.73,1.93,4.64,4.92,6.7,6.73,11.06-0.16-.07-0.89-0.74-0.27.49,0.66,0.86,1.6,2.51,2.24,3.47l0,0,0,0a1.41,1.41,0,0,0,.64.71,45.36,45.36,0,0,1,4.75,5.06c0.25-.51-1.69-3.11-2.6-4.2l-1.08-.76c0-1.39-1.92-2.92-2.17-3.81,1.9,1.57,5.28,7.29,8,10.19a37,37,0,0,0-2.45-4.74L196,480l0.8,1.89-1.26-2.06,0.77,2.27c-1.09-2-2.27-3.6-3.26-5.43,1.21,2.11,1.16,3.23.53,2-1-2.57-1.67-2.3-2.67-4.12,0.53,1,1.26,2.35.54,1.64a41.92,41.92,0,0,0-1.91-4.22,29.75,29.75,0,0,1-1.64-4c-0.51.79-2.24-4.1-3.06-4.32l0.71,1.6-2.08-3.1c-0.92-3.35,1.94,2.41.07-2.45-2-4.35-2.7-3.9-4.37-7.29a24.88,24.88,0,0,1,3.9,6.23l-0.58-1.77a60.66,60.66,0,0,1,3.36,6.45c-2-2.86.54,1.55,0.9,3.12,0.55,0-.54-1.88,1,0.26a48.21,48.21,0,0,1-2.56-5.35,22.79,22.79,0,0,0,1.86,3.41,17.93,17.93,0,0,0,1.58,1.89,14.84,14.84,0,0,1,3.11,4.7c-1.49-2.24-.14,1.14-0.17,1.53,0.67,1.08,2,3.26,2.64,4.12l0.12-1.17c1.93,2.77,1.36,4.48,4,7.45,0.59,0.23-1.66-3-1.23-2.43a30.42,30.42,0,0,1,3.12,5.33,43.51,43.51,0,0,0,2.47,5.24c0.16,0,.32,0,0.59.08a2,2,0,0,1,.51.24l0.17,0.11a0.15,0.15,0,0,0,.07,0l0.13-.05a3.85,3.85,0,0,0-.38.32,0.54,0.54,0,0,1-.17.11c-0.09,0,0,.17-0.45-0.26,0.28,0.46.21,0.39,0.28,0.48a0.48,0.48,0,0,0,.18.13,0.68,0.68,0,0,0,.36,0,0.36,0.36,0,0,1,.17-0.46,0.66,0.66,0,0,0,.26-0.35,0.62,0.62,0,0,1-.26.52c0,0.11,0,.38,0,0.56s0.1,0.26.17-.14a0.8,0.8,0,0,1-.38.72,0.84,0.84,0,0,1-.83-0.25l0.11,0.21,0.12,0.21c-0.32,0-.33-0.18-0.57-0.62a0.9,0.9,0,0,1-.47,1c0-.12.1,0,0.09-0.16a1.51,1.51,0,0,0-.38-0.54s-0.18-.15-0.25-0.18-0.12,0-.12.09c-0.3-.17-0.39-0.14-0.37,0a4,4,0,0,0,.26.57,4.31,4.31,0,0,1,.49,1c0.22,0.26.47,0.48,0.69,0.7a2.76,2.76,0,0,0,1.24,0,0.65,0.65,0,0,0,.56-0.65c0.12-.41.17-0.65,0.17-0.65,0.43-.84.75-0.54,1.43-0.91a5,5,0,0,0-.22-0.5l0.09-.09,0.29-.32,0.65-.7c0.41-.44.79-0.81,1.09-1.07,0.59-.51.88-0.54,0.54,0.33a1.68,1.68,0,0,0-.8.71,1,1,0,0,1-.14.4c0,0.06,0,.1,0,0.16l3-4c-2.7,4.28.52,0.77,0.64,2l3.06-4c-2.22,2.13-.36-0.24.26-1.13,0.57,0.09,2.66-3.07,3.88-4.37v0.16a47.42,47.42,0,0,0,4.29-5c-0.18,0,.93-2.55,1.4-3.82-2.44,2.53-1.22.83-1.64,0.84a4,4,0,0,0,.7-0.84c0.22-.47-0.59.39-0.77,0.36-2.28,3-4.75,5.92-5.23,7.51,1-.66,1.06-1.67,2.05-2.5-0.87,1.7-2.5,3.44-4.54,5.77l-1,.5-1.88,2.5c0.68-1.13-.15-0.81,1.93-3.34-0.56.07-2.08,2.5-3.46,4L210,488c0-.5-2.8,2.74-1.14.14l2.89-4.07-1.19.8,2.67-3.24-0.44.93c4.14-5.34,2.12-.79,6.09-6.34,0.9-2,2.33-3.82,5.2-6.84-1.89,2.35.14,0.54-.32,1.64a16,16,0,0,0,3.39-4.61c0.78-.35,1.36-0.58-0.5,1.44,0.32,0.74,2.3-2.78,3-2.47,6-6.79,3-7.1,10.83-14.33l0,0.5c4.27-5.23,7.11-7.92,11.2-12.64l3.91-3.08c-0.66.89-2.25,3.44-1,2.68-2.19,1.23-3.73,3.26-5.78,4.88,0,0.33.79-.35,1.19-0.6a38,38,0,0,0-3.11,3.1c0.19,0,1.83-1.49.77-.18l-2.23,1.74c-2.34,2.92-.39,2.13-3.5,5.24a11.34,11.34,0,0,1,2-3.87c-1.42,1.42,1.61-2.15.19-1-1.47,2.57-2.78,3.26-5.07,6.37a5.75,5.75,0,0,1,.83-1.29l-3.94,4c1.19-.78-2.76,3.72-2,3.7,4.11-4.29,2.7-3.21,7.49-8a19.64,19.64,0,0,0-2.83,4.91,1.3,1.3,0,0,0-.28.24c-0.29,1.13.53,0.45,1.22,1.1C241,456.14,242.84,455,245,452c0.07-.86-1.91,1.12-3,2.55l1.9-2.61-0.25.63,5.6-5.91a8.27,8.27,0,0,0-1.52,2.5,27.6,27.6,0,0,1,2.38-2.16c-0.52-.16-0.68-0.51,0-1.26a38.43,38.43,0,0,1,7.68-6.63l0.39-.47c-1,.3,1.86-3.35,2.58-4.89,0.33,0.42,2.07-1.76,3.29-2.68,0.1-1-1.23-.79-2.85.22-2,3-.94,1.84-1.51,3.6l-3.48,4.52,0.51-1.26c-2.09,1.93-3.47,4.36-3.79,3.78,0.71-1.38,2.58-3,3.29-4.4l-1.45,1.22c1.8-2.85,1.59-.84,4-4.07-1.39.72,0.22-.29,1.13-1.8-1.21.76-4.69,5.28-4.54,3.78,1.13-1.8,5.55-4.42,6.77-7.06l0,0.17a22.72,22.72,0,0,0,4.3-5.61c1.41-1.05,2.75-3.07,4-4.46l0.16,0.22,1.74-2c-0.52,1.25-2.15,2.24-3.66,3.94l0.55,0.13c-2.23,1.5-2.79,3.38-3.88,5.15,1.73-2.44,5.84-6,5.63-7.14l1.62-1,0.47-.76c1.21-.73.67,0.68-1.07,2.68-0.41.25-.61,0.37-0.59,0.2a18.48,18.48,0,0,1-3.31,4.2L269,424c-2.57,2.66-4.76,5.22-5.26,6.48,3.81-3.74,7.47-7.51,10.9-11.16,0.22-1.84,1-3.54.75-4.8a68.28,68.28,0,0,1,7.6-7.77l0,0.33a21.46,21.46,0,0,0,2.63-2.8c1.24-.89-0.33,1.12.51,0.47l3.11-3.7c0.13,0.54-2.7,3.45-4,4.86,0.23-.29.68-0.87,0.47-0.74-1.7,1.47-4,5-5.2,5.26-0.68.87,1.19-1.94-1.41,0.69-1.91,1.6-2,2.6-2.07,2.92,0.16,0.21,3-2.54,2.25-1.34a29.4,29.4,0,0,1,3.51-3.78c-1.31,1.39-2.73,3.62-3.73,4.07-2.27,3-1,3.52.29,2.29-0.58,0,4.45-5.27.64-2.07,1.19-1.94,4-4.86,5.82-7.16l0,0.16,2.43-2.68c-0.26.46-.93,1.33-0.77,1.54l3-4.08c-1.64,2.34,1.46-1,2.52-1.77,0.09-.66,1.26-2.26-0.23-1.09-1.69,1.29-.71,1-2,2.41l1.46-2.37,0.21-.12,0.78-1.53c2.63-2.6-.28,2,2.7-1.72l-0.94-.06c3.94-3.82,9.46-8.26,12-11.19-0.48,1-.35,1.83,1,1.07-1.27,1.09-3.66,3.45-5.29,5.2-0.41.24,1.51-2.72,3.48-4.43-1.73,0-4.15,5.11-5.19,4.5-5,4.42-2.68,4.31-7.14,7.82,0.32,0.43-.94,1.32-0.82,1.85,1.79-.58,5.28-5.36,8.07-7.74a5.14,5.14,0,0,0-.7,1,26.92,26.92,0,0,0,3.77-4l-0.21.12c1.89-2.61,1.68-1.11,3.17-2.26,0.46-.57,2.43-2.29,1.86-2.27l2.77-2-0.53-.3c1.34-1.37,1.91-1.38,2.9-2.86l-0.31-.43L310.06,382c1.6-1.81.12-.83,1.94-2.77-1.71,2.49,1.7-1.26,2.25-1.12l1.18-1.58-0.26.45c1.28-.88,1.16-1.42,2.48-2.62a18.3,18.3,0,0,0-4.6,4.12c1.19-1.58,3.71-4.54,4.39-5.21a34.23,34.23,0,0,1,4.06-3.57c-2.51,2.71,2,.25-3.54,5.1a1.91,1.91,0,0,1,.68-0.68c-1.19.19-3.13,3.13-4.09,4.43,0.56,0-.56,1.23,1.61-0.61-0.83.48,1.09-2.31,3.25-3.94l0.24,0.92,2.9-2.65-0.24.28c1.44-.64,2.95-3,5.11-4.63,1.2-1.57,6.76-6.59,3.84-5,2.1-1.31,3.21-3.23,5.06-5.13l-2.64,2c2.44-3.11,1.88-2.06,3.51-4.88,0.39-.05,1-0.39.72,0.22,3.85-3.57,9.46-8.52,11.29-11.09,2.75-2.48,3.84-2.15,7.4-5.94,0.73-.83-1.15,0,1.54-2.14,0.21-.11-2,2.69.75,0.06,1.58-2.32,5-4,7.25-6.8,1.55-1.08,3.9-3.31,3.74-2.48a45.28,45.28,0,0,0-5.64,5.38c0.1-.5-1.77,1.19-0.3-0.44-3.58,2.72-2,2.16-5.11,4.68-0.07.34,1.89-1,2.42-1.69,0.46,0.48-5.61,5.6-2.43,3.79,3.19-2.87,3.2-4.76,6.45-6.71-0.83,1.31-2.8,2.6-3.72,4.4l2.46-1.84,1.32-1.85,0,0.16c4.44-3.14,3.24-3.86,6.6-7.35-2.4,1.51-.31-1.32-2.08-0.14,2.35-2.22,4.17-3.75,4.65-3.24-4.13,4.45.23,0.77-3.48,5,0.85-.43-0.32,1.64,2.21-0.52,2.46-2.87-1.22.32,1.41-2.35,0.21-.1.42-0.21,0.39,0,1-1.41,1.59-1.23,2.89-2.9l-0.28.43c2.21-1.38,1.8-2.21,3.76-3.32-1,.2.84-1.29,1.66-2.44-1.81,1.33-3.21,1.58-6.51,4.53-0.13.66,0.26,0.61-1,2l2.13-1.93c-0.42.46-.71,0.85-1.08,1.28l-2.21,1.67c2.43-2.53.94-1.79,1.78-3.09,2.53-2,1.91-1.83,3.52-3.06,0.24,0.58,5.31-3.31,8.33-5.45l-1.3,1.11c-1.77,2,1.71-.84,1.89-0.78l1.28-1.51c-0.25.27-.55,0.71,0.14,0.23,1.93-1.8,1.43-2.15,3.36-3.95,0.36,0.12-1,1.95.35,1,0.62-.15,2.48-0.75,4.95-3.24a9.5,9.5,0,0,1,1.52-1.63,3.25,3.25,0,0,0-.27.3l2-1.24c-1.14,1.71-3.21,2.41-4.36,4.13l0.22,0.51a21.39,21.39,0,0,0-3.18,3.39,52.4,52.4,0,0,0,4.07-3.7c0.5,0-.75,1.41-0.93,1.61l0.1-.49c-2.68,1.71-3.25,3.44-6.28,5.92-0.46.37-.21,0.11-0.18-0.06-2,2.48-4.85,4-6.72,6.54l0.57-.87c-1.43,1.55-4.17,4.65-6.92,7.73l0.11,0.18c0.42-.21-0.73.81-1.4,1.3h0l-3.76,4.26a9.77,9.77,0,0,0,1.62-1.1c0.32-.61,3.25-3,2.5-3,1.51-.92,3.31-3.11,4.4-3.8-2,1.27.87-1.46,1-2,0.82-.26,2.58-2.29,2.66-1.74a6.34,6.34,0,0,0-1.62,1.38c-1.54,1.93,3.61-2.65,1.6-.34,2.7-2.78,6.59-6.06,9.34-9l-1.82,1.31c1.39-1.1,4.51-3.9,4.89-3.94-1,.9-2.14,1.89-3.35,3.06,0.28,0.45,3.07-2.63,3.42-2.51L401,307l-1.65,1.37c0.82-1.12,4.47-3.74,7-5.84-1,1.79-3.79,3.27-6.26,5.76-1.75,1.86,1.64-.49-0.07,1.2a8.44,8.44,0,0,0,2.23-1.95l0.8-.52c-1.2,1.89-4.94,4.9-7,7.4a1.94,1.94,0,0,0,.32-0.57,38.21,38.21,0,0,0-5.6,4.76,7.13,7.13,0,0,0,1.87-1.65,27,27,0,0,1-2,2.31c1.8-1.32.57,0,1.7-.83a28.18,28.18,0,0,1-3.28,2.93c-0.85.42,0.35-.76,0-0.88-1.24,1.35-2.38,1.31-4.14,3.35,2.76-2.24-.24,1.15-1,2.12l0.46-.37a3.86,3.86,0,0,1-2.11,1.92c1-1.07,2.11-1.92,1.55-1.94-0.71.64-1.42,1.29-2.16,2.09l0.56-.86L378.78,330a15.88,15.88,0,0,0-1.11,2.78,11.39,11.39,0,0,0-2.79,2.6l0.28-.44c-1.76,1.19-5.07,4.49-5.16,5-1.3.8,6.6-8.52-1.1-1.22-3,2.7-1.23,2.39-2.71,4.18,0,0,0-.16-0.18-0.05-1.35,1.14-1.23,1.53-2.19,2.63a11,11,0,0,0,2.28-2.08c-0.12.66-2.73,2.46-3.51,3.61,0.87-1.65-2.67,2.13-1.88,1a28.59,28.59,0,0,0-6.33,6.56c-2.29,1-3,2.92-6,5.3,0.45-.39,1.15-1.21,1.82-1.72,1.27-1.87-3.09,2.55-.93-0.1-0.48.55,0.14,0.23,0.63-.34,0.91-.93,1.65-1.93,1.26-1.87l-2.59,1.84,0.72-.84-3.9,2.83c0,0.16.39-.06,0.6-0.17-4.22,3.61-8.63,8.18-12.17,11.51,0.32,1.65-8.22,8.71-10.42,12.08,0.47-1,.39-1.94-0.28-1.69a22.7,22.7,0,0,1,3-3.6c0.38-.06,2.33-1.58,1.37-0.3,3.84-3.92-1,.07-0.16-1.42-4.3,4.3-6.26,7.41-8.76,10.34l-0.18,0-1.85,2.26c1.75-1.6,2.22-.95-0.14,1l0.24-.29c-1.47,1-3.78,3.8-5.75,5.67l-1,1.63c-2,1.89-2.64,1.37-3.63,1.64-3.05,3-4.29,5.23-6.13,7.67-1.24.7-5.78,5.21-3.73,2.47-2.45,3-.48,3.83-5.87,7.79l0.94-1.48c-2.17,2.29-4.7,5.17-7,7.71a62.22,62.22,0,0,1-5.37,5.7c0.67-2.58-6.38,4.82-8.07,4.76,0.43,0-1.14,1.76-1.26,2.11a4.27,4.27,0,0,0-1.59,1.67c1.86-1.63-.23,2.16,2.62-1.63a29.47,29.47,0,0,1-6.17,8.84l-0.33-.42,2.93-2.92c-0.57,0,.9-1.5,1.36-2.26-5.44,5.43-.22-1.58-5.51,4.22-0.27.79,0,.33-1.32,1.92,0.64-.72.49-1.09-0.57,0l-0.7,1.37c-2.51,1.41,2.67-3.72.62-2.42,1.76-2.51,5.18-6.51,4-6.25-3.55,3.47-2.11,4.13-5.86,7.72l-0.59.21a10.73,10.73,0,0,0-1.43,2.92c-0.18,0-.59.21-1.41,1-1.57,2.74-2.84,4.34-4.2,6.94,4.67-6,4.69-4.45,9.64-10.49-0.67,1-4.29,5.17-4,5.92l-0.34-.41a47.57,47.57,0,0,1-5.27,6.36l1.09-1.64c-2.56,3.37-5.31,4.65-6.89,7.7a20,20,0,0,0,1.88-2.15,61.33,61.33,0,0,1-4.78,5.45l-2.59,4.23c-0.17-.21-2.23,2.1-1.55.7-2.63,2.36-3.14,4.12-4.39,5.72-2.81,2.32,1.88-2.49,1.57-3.24a64.7,64.7,0,0,0-8.24,10.08c0.74-.69,1.13-1,1.2-0.88a17,17,0,0,0-2.23,2.38l-0.24.8c-1.39,1.25-1.37.92-.53-0.44-1.21,1.3-2.1,3.32-3.67,4.38,1.67-2.56,4.47-5.23,5.31-6.59-3.88,5-5,4.11-9.87,10.49-0.19,0,.45-1.27-0.56-0.1-2.22,2.81-.07,1.17-0.5,2.27a14.11,14.11,0,0,1,4-4l-0.27.74c-0.18,0-1.31,1.3-1.74,1.6l0.14,0.71c-0.34-.56-2.5,1.24-3.73,3,1.77-1.38,1.37-.94,2.3-0.94a7.24,7.24,0,0,1-2.13,2.52c-0.1.08-.16,0.13-0.28,0.24l-0.43.42c-0.29.29-.58,0.6-0.9,1a26.71,26.71,0,0,0-2.16,2.87c0.2-.55,3.3-4.43.45-1.31-2.27,2.63-1.76,2.81-3.3,4.82a12.25,12.25,0,0,0,1.28-2.61,16.77,16.77,0,0,1,1.18-2.63l2.59-3.13,0.28-.36,0.26-.35,1.11-1.49-1.19,1.06c-0.5.42-1.47,1.39-1.43,1.34l0.51-.63,0.36-.47c0.17-.23.3-0.43,0.39-0.59a1.62,1.62,0,0,0,.27-0.67,1.52,1.52,0,0,0-.21-0.44c-0.5.48-.9,0.9-1.23,1.27s-0.79.92-1.07,1.29a12.94,12.94,0,0,0-1.19,1.84,14.68,14.68,0,0,1-2.61,3.8c-0.74,1.13,0,.27.71-0.48s1.25-1.4,0,.3a10.46,10.46,0,0,0-2,2.53,16.46,16.46,0,0,1-2.33,3.29L205,510a5.64,5.64,0,0,0-.84.78c-0.07.15-.14,0-0.2-0.08l-0.2-.24L203.3,510c-0.56-.59-1.16-1.16-1.79-1.91s-0.44.3-.71,0.67-1.16-.06-4.45-4.13a0.73,0.73,0,0,0,.59.26s0.54,0.24,1.29.51a16.33,16.33,0,0,0,2.5.7,8,8,0,0,0,2.05.14,4.35,4.35,0,0,0,.78-0.12c-2.22-2.79-4.73-5.77-6.94-9-2-2.76-3.81-5.78-5.62-8.8-0.19-1.84,3.36,3.8,3.44,3.22l0.81,1.38c0.2,0.35.42,0.68,0.58,0.93l0.27,0.42c-0.47.11-3.81-5.51-2.77-2.73,1.64,2.33,2.84,3.93,4.08,5.63,0.66,0.89,1.32,1.76,2.07,2.63s1.62,1.72,2.55,2.57a16.16,16.16,0,0,0-2.76-4,29.31,29.31,0,0,1-3.35-4.92,26.1,26.1,0,0,0,2.4,3c-0.88-1.33-1.88-2.72-2.79-4.2l-2.81-4.6-0.63-.58c1.29,2.14,2.19,3.62,2.28,3.82a24.46,24.46,0,0,0-2.59-3.48c-0.77-.86-1.38-1.37-1.71-1.3l0.29,0.52-0.79-.93ZM91.69,291.53a1.52,1.52,0,0,0,.39.35C91.95,291.81,92,292,91.69,291.53ZM228.66,474l-8.89,9.71c6-5,10.22-8.44,1.81,1.22l-0.48.69a69,69,0,0,0,4.83-5.44c0.55-1,1.69-3.07,2.67-4.92a30.85,30.85,0,0,0,1.75-3.46c-0.78.35-1.25,1.45-2.27,2.44Zm3.65-1c1.77-1.78,1.18-1.54,1.26-2l-1.68,2C232.16,472.9,232.33,472.83,232.31,473.07Zm1-2a3.5,3.5,0,0,1-.47.45ZM201.4,500.81l0.17,0.18-1.09-1.45A11.4,11.4,0,0,0,201.4,500.81Zm3.18,3.93L205,503.6l-0.55.6-0.14.15s-0.09.15-.14,0l-0.27-.36C204,504.4,204.08,505.36,204.58,504.74Zm12.11-11.94c0.24-1.15,2.49-3.77,2.15-4.34,0-.27-0.5.24-1.08,0.82l-1.94,2.18a1,1,0,0,1-.18.61c0.72-.72,1.28-1.14,1.3-0.58-2.33,1.45-1.06,2.18-3.05,4.19C213.65,496.65,216.26,493.57,216.68,492.8ZM366.95,336a7.17,7.17,0,0,0,.8-0.22l-1.27,1.56c-2.74,2.26-5.44,3.53-7.27,6.27a9.51,9.51,0,0,1-2.9,1.37c0.56-.48,1.08-0.92,1.54-1.27C363.69,336.85,362.08,341.46,366.95,336ZM336.2,363a1,1,0,0,0,.27-0.44,132.34,132.34,0,0,1-12.54,14c0.92-.25,3.93-2.65,5.37-3.78l-0.8,1.5-1,.4L325.79,377c0.81-.29,2.39-1.91,3.66-2.77,0-.16,3.09-4,3.85-5.13l-3,2.42c0.85-.62,4.47-4.27,5.85-5.78-0.15-.22-3,1.93-2.89,2.64-0.57,0,2.35-2.8.21-1.33a51.55,51.55,0,0,1,7.42-6.85l0.72,0.21c2-1.5.67-1.71,3.06-3.43-2.53,2.55.93,0.11-1.11,2.1,0.83-.45.49,0.49,2.53-1.5,1.14-2.26,2.56-1.67,3.68-3.77,1.28-.83-0.83,1.48,1.41-0.45,2.19-2.63,1.82-2.73,1.55-3.34-2.46,2-2.07,3-4.06,4.67l1.52-2.16,1.53-2.14a9.54,9.54,0,0,0-1.74,1.43,12.1,12.1,0,0,0,1.67-2.13c0.23-.38.45-0.73,0.66-1-2.16,2-4.08,3.73-4.59,3.85l0.09-.5a8.07,8.07,0,0,0-2.44,2.52c-1.89,1.82-3.5,3.92-4.19,4l0.53-.89C339.39,359.93,339.15,360.2,336.2,363Zm-74.85,74.64a11.26,11.26,0,0,0,3.73-1.89,51.67,51.67,0,0,0,6.71-6.45l-0.44.57c3.67-2.85,5.49-7.13,9.9-10.64a23.47,23.47,0,0,0-2.86,5l1.77-2.33c-0.11,1,1.64-1.33,3.16-2.83l-0.79,1.85a19.08,19.08,0,0,0-3.18,3.18c0.44-.58-3.68,2.55-5.43,4.7,0.55,0.13,4.44-4.25,3.22-1.81,1.34-1.9,1.89-1.77,3.43-3.64-1.35,1.91.09,0.88-.84,2.37l2.6-3c0.19,0-3.7,4.42-1,2.49,0.9-1.33,4-4.16,3.73-4.57l0.18,0c2.14-2,.37-1.45,3.12-3.85-0.16-.22-0.78.15-1.64,1.13a18,18,0,0,1-2.06,2.92c-1,.44,1.94-1.92.34-1.28-0.81.31-3.93,4.52-3.35,2.78l2.13-2.05c-0.33-.42,1.18-1.94.84-2.19,1.12-1.43,2.74-2.24,3.69-3.89,0.29-.79-1.1-0.27,1.23-2.27,2.22-1.17,7-6.33,8.8-8.25l1.39-1.87c-0.37-.09-3.07,3.16-2.33,1.81L299.8,401l-0.05.34a24.37,24.37,0,0,0,2.26-2.69c-0.52,1.06-2.45,2.79-1.7,2.82a20,20,0,0,0,2.61-2.34,0.75,0.75,0,0,0-.29.54c2.58-2.26,1.89-2.78,2.37-3.51,1.92-2.94-2.91,2-3,1.28l3.43-3.67c1.71-1.84,3.45-3.65,3.45-3.65-0.49.73-1,1.46-.58,1.39,1.93-1.55.34,0.26,2.78-2.18-0.7-.36,2.77-3.39,4.21-5.41,1-.58,1.24-0.7-0.53,1.06,0.55,0.15,2.8-2.34,3.68-3.14,0.41-.57,1.2-1.45,1.65-2-0.88.53-.79,0,0.6-1.66l0-.16c-2.62,2.39-6.93,5.88-8.16,7.8l0.28-.61c-3.22,2.58-5.76,6.88-7.73,7.59-0.13-.38-0.64.53-1,0.1l-1.84,2.44,0.27-.62L299,398.41l0-.17-3.31,5c0.16,0.17.32,0.1-.13,0.8a10.1,10.1,0,0,1-1.33,1.48h0c-0.93.86-1.75,1.23-2.93,2.25l3.3-3.46c0-.55-0.59-0.56-2.42.94,0.66-.7.72-1.2-0.14-0.38,0,0.16-2,2.42-1,1.82-3.05,3.37-8.95,7.9-13.18,13.41,3.09-3.9-3.11,2.52.56-1.58-3.1,2.35-1.83,2.82-4.6,5.6-0.39.09,1.49-1.53,1.79-2.48-4.65,4.56-6.86,8.64-11.28,13.12l-0.54-.14Zm-8,9.55L251,450l0.25-.26-2.16,3c1.64-1.53,3-2.26,1.11.23,0-.33-0.77.18-0.13-0.7-1.63,1.36-4.93,4.57-3.58,4.18,2.19-3.45,1.33-.07,3.07-2.76-0.79,1.58-2.08,2.68-3,4,0.82-1.51-.94-0.32-2.77,1.41-0.65.88-2.72,3-3.77,4.5,0.77-.18-0.09,1.17,2-1a20.47,20.47,0,0,1-3.1,3.46c0.44-.61,1.26-1.62,1.08-1.66a24.26,24.26,0,0,0-2.7,2.18L236.08,468a1.67,1.67,0,0,1,.42-0.24l-1.08,1.82c1.68-2.21,1-.82,1.18-0.62-0.34-.41-1.23,1.29-1.85,2l1.78-1.17c-0.45.93-2.63,2.36-1.87,2.33a85.45,85.45,0,0,0,6.6-7.49l-1.39.91c2.73-3.53,2.36-1.57,5.7-5.28,1.1-1.8,5-5.58,4.51-6.19-0.24.63,2.61-1.83,3.5-3.34,0.72-1.9,4.55-6.16,3.13-5.11-1.06,1.12-2.18,2.93-3.36,3.53l1.91-2.32-1.62,1.19C254.42,447.41,254.07,447.22,253.33,447.17Zm-47.07,46.66,0,0,0,0h0Z"/><path class="cls-1" d="M399.26,305.47c0.54-.7,2.18-2.07,1.61-2.09C401.18,303.67,398,305.91,399.26,305.47Z"/><path class="cls-1" d="M401.47,304.12c0-.18-0.14-0.23.58-0.87l-1.93,1.8Z"/><path class="cls-1" d="M405.38,304.6a14.09,14.09,0,0,1,3-3.18c1.28,0.27-2.48,2.47-2.58,3.85,3-2.47,3.37-3.92,5.78-6C410.09,299.9,404.95,303.91,405.38,304.6Z"/><polygon class="cls-1" points="404.92 306.73 406.42 305.14 406.21 305.23 404.71 306.82 404.92 306.73"/><path class="cls-1" d="M363.5,331c-0.36-.11-1.16,1-1.65,1.58A9.06,9.06,0,0,0,363.5,331Z"/><path class="cls-1" d="M120.09,331.67l-4.21-7.1-4.12-7.13C114.12,321.54,116.27,325.36,120.09,331.67Z"/><path class="cls-1" d="M324.58,370.26c3-3.32,4-5.1,7.23-8.36-4.77,3.68-5,6.22-9.08,9.22Z"/><path class="cls-1" d="M323.91,367.3c1-.07-2,2.91-1.21,2.78,2.07-2.2.61-1.39,2.61-3.25Z"/><polygon class="cls-1" points="345.53 360.7 344.76 361.85 345.47 361.03 345.53 360.7"/><polygon class="cls-1" points="309.69 381.91 309.95 381.46 308.22 382.9 309.69 381.91"/><path class="cls-1" d="M310.2,381l-0.25.45Z"/><polygon class="cls-1" points="345.17 362.84 346.71 361.56 347.24 360.68 345.17 362.84"/><path class="cls-1" d="M330.09,372.66l1.16-1.39C331,371.55,329.07,373.07,330.09,372.66Z"/><polygon class="cls-1" points="299.8 391.37 298.42 393.09 298.62 392.98 299.99 391.26 299.8 391.37"/><path class="cls-1" d="M321.18,383.63c1.21-.53-2.46,2.6-0.35,1.11C322.39,383.1,321.56,383.57,321.18,383.63Z"/><path class="cls-1" d="M300.25,399.94a5.3,5.3,0,0,0-.59.69Z"/><path class="cls-1" d="M300.25,399.94a16.54,16.54,0,0,0,1.83-1.78A7.34,7.34,0,0,0,300.25,399.94Z"/><path class="cls-1" d="M292.66,407.78l0.62-.6c-0.45.79-.18,0.47,0.23-0.22,0.63-.67.48-0.73,0.49-0.88l0.26-.53-0.4.66C292.88,407.21,292.29,407.85,292.66,407.78Z"/><path class="cls-1" d="M258.89,431.65c2.31-2.23,2.93-2.78,3.08-2.4,2.16-2.14,1.39-2.22,2.54-3.65C262.19,428.14,261.59,428.55,258.89,431.65Z"/><path class="cls-1" d="M264.51,425.6l0.81-.89A11.92,11.92,0,0,0,264.51,425.6Z"/><polygon class="cls-1" points="304.45 401.53 303.46 403.32 303.91 402.75 304.45 401.53"/><path class="cls-1" d="M255.52,435a12.31,12.31,0,0,1,1.47-1.39C256.84,433.25,255.1,435.43,255.52,435Z"/><path class="cls-1" d="M269.16,430.89a20.36,20.36,0,0,0,2.33-2.2C270.63,429.52,269.47,429.76,269.16,430.89Z"/><path class="cls-1" d="M250.38,442.76c0.42-.42,1.22-0.92,1.18-0.43C252,441.58,252.33,440.29,250.38,442.76Z"/><polygon class="cls-1" points="265.12 435.09 265.52 434.84 266.84 433.08 265.12 435.09"/><path class="cls-1" d="M274.38,433.12c1.37-2.07-3.44,2.09-.8-1.22-4.08,3.63.74,0.12-2.08,3C273.22,433.29,274.41,432.83,274.38,433.12Z"/><path class="cls-1" d="M271.5,434.89c-0.25.23-.52,0.49-0.79,0.78Z"/><path class="cls-1" d="M246.11,458.38a7.88,7.88,0,0,0,.44-0.71A7.64,7.64,0,0,0,246.11,458.38Z"/><path class="cls-1" d="M263,444.51l2-3.13c-1.35,2.09-5.56,6.59-4.82,6.75a20.19,20.19,0,0,0,3.43-4.16Z"/><path class="cls-1" d="M225.94,467.93l0.87-1.36L225.42,468C225.87,467.64,225.55,468.73,225.94,467.93Z"/><path class="cls-1" d="M225.16,468.29l0.27-.28A1.71,1.71,0,0,0,225.16,468.29Z"/><path class="cls-1" d="M250.55,453a21.05,21.05,0,0,0,2.1-2.44C252.26,450.83,250.18,452.94,250.55,453Z"/><polygon class="cls-1" points="219.25 477.01 220.89 474.95 219.05 477.15 219.25 477.01"/><polygon class="cls-1" points="210.36 485.57 209.98 485.84 208.74 487.65 209.13 487.38 210.36 485.57"/><path class="cls-1" d="M230.55,481.86c1.21-1.29,1.68-2.72,1.28-2.45L229.6,482c1-.32.61-0.73,2-2.15Z"/><path class="cls-1" d="M174.58,439c0.62,0.56,1.93,4.07,1.71,4.38-0.33-.4-1.26-2.21-0.94-1l2,2.37c1.12,3.8-2.22-2.28-3.26-4,1.5,3.73,2.48,4.59,4.23,8.47a12.13,12.13,0,0,1-.69-2.66c0.49-.38,1.85,3.35,3.09,5.89-0.53-1.73.11-.88,0.87,0.2a2,2,0,0,0,.3.42l0.26,0.37L182,453.2c0.07,0,.11-0.11.11-0.37-1.17-2.05-1.44-3.93-2.07-5.32-0.26,1.77-2.34-4.64-3.36-6.3l-1-2-0.33-.76c0-.2.25,0,0.93,1.06-0.6-.89-1.94-4.17-2.09-3.75L171,428.3a3.85,3.85,0,0,1-.12-0.7c-0.16-.24-0.23-0.26-0.26-0.21L163.65,411c-1.78-4.1-3.57-8.21-5-11.28-0.69-1.54-1.27-2.82-1.71-3.72l-0.67-1.41c0.71,1.65,1.17,3.14,1.81,4.85-1.71-2.24,1.12,2.78.24,2.29a15.45,15.45,0,0,1-1.69-3.75c-0.44-.24-0.06,1.27-0.46,1.26,1.5,4.28,3.13,4.32,4.68,8.45-0.4,0-1.24-1.14,0,1.49l-0.36-.64c2.22,4.07.66,3.62,2.72,5.9l-0.51.14a68,68,0,0,1,3.72,7.57l-0.15-.09c3,5.66,1.51,3.26,4.53,9.76l-1.85-2.8c0.73,2.38,1.56,2.63,2.19,4.28-0.14-.08-0.34.45-1.08-1l4.28,7.6C175.5,441.64,174.5,439.37,174.58,439Z"/><path class="cls-1" d="M178.27,449.29c0.16,0.43.36,0.91,0.63,1.45Z"/><path class="cls-1" d="M155.19,392.34l1.1,2.3C156,393.91,155.64,393.16,155.19,392.34Z"/><path class="cls-1" d="M184.54,459.94c-0.41-1.45.83,0.83,1.13,1l-1.18-2.37c-0.59-1.18-1.14-2.39-1.14-2.39a2.94,2.94,0,0,0-.73-0.09l0.94,2Z"/><path class="cls-1" d="M183,454.59a4.53,4.53,0,0,1-.93-1.08l1.24,2.63C183.48,456.06,183.46,455.71,183,454.59Z"/><polygon class="cls-1" points="173.48 459.72 173.05 458.86 172.29 457.6 173.48 459.72"/><path class="cls-1" d="M168.07,445.65a13.51,13.51,0,0,0,1.64,3.71C168.67,447.07,169.23,448,168.07,445.65Z"/><polygon class="cls-1" points="166.3 449.82 165.16 447.67 165.2 447.9 166.3 449.82"/><path class="cls-1" d="M144.83,376.62l-0.59-1C144.49,376.07,144.67,376.38,144.83,376.62Z"/><path class="cls-1" d="M154.77,395.11c-2-5.55,2.1,3.26,2,1.28l-1.6-2.78,0.3,0.16-1.74-3.5c0,0.88.27,1.43-.13,1.43-2.13-4.75-.32-1.66-1.62-5.28l-2.69-5.14,0.31,0.37a2.37,2.37,0,0,0-.5-0.72l-4.7-8.51L139.59,364c-2-2.91.39,2-1.36,0,2,3.54,4.59,9,5.4,9-0.15-.07-0.46-0.21-0.14.55l1.65,1.8-0.9-2.08c1.64,1.82,5.2,8.65,5.46,10.1-2.18-3.82-1.83-1.51-4.34-7.07,0,0.33.2,1.46-.53,0.3,1.78,3.09,3.35,6.08,4.9,9.14,0.78,1.52,1.59,3,2.43,4.59S153.83,393.49,154.77,395.11Z"/><path class="cls-1" d="M120.13,332.9l0.08,0C120.13,332.82,120.08,332.8,120.13,332.9Z"/><path class="cls-1" d="M121.23,335l2.33,2.62-2.72-4.6-0.63-.09a9.45,9.45,0,0,1,1.69,2.57Z"/><path class="cls-1" d="M125.93,340.84c-1.56-2.29-2-1.86-1.48-.42-1.5-2.06-.12-1.48-1.53-2.68-0.34.26,1.44,2.85,1.86,3.43Z"/><polygon class="cls-1" points="135.88 358.72 135.28 358.16 136.18 359.87 135.88 358.72"/><path class="cls-1" d="M135.28,358.16l-0.89-1.69a1.19,1.19,0,0,0-.13.74Z"/><path class="cls-1" d="M132,352c-0.37-.72-0.78-1.51-1.31-2.46Z"/><path class="cls-1" d="M133,354l0-.09L132,352Z"/><path class="cls-1" d="M134.39,356.47c0.2-.47.4-1-1.08-3.34l-0.28.79Z"/><polygon class="cls-1" points="159.9 433.39 158.84 431.47 158.87 431.71 159.93 433.63 159.9 433.39"/><path class="cls-1" d="M155.37,421.67c-0.28-.47-0.51-0.81-0.72-1.12A5.21,5.21,0,0,0,155.37,421.67Z"/><path class="cls-1" d="M149.12,414.23c-0.63-2.49,1.9,3,.2-1.39,0.19-.53,1.53,1.29,2.23,3.4-0.4,0-1.07-1.89-.87-0.5,1,1.19.92,1.82,1.22,1.13a33.84,33.84,0,0,0,2.74,3.67c-1.39-2.68-3.36-8.69-5.53-11.89-1.46-1.64-1.76-.12-2.64.26C146.41,409.28,148.46,414.3,149.12,414.23Z"/><path class="cls-1" d="M149.83,418.28a11.91,11.91,0,0,0,.95,2.05C151,420,150.21,419.15,149.83,418.28Z"/><path class="cls-1" d="M145.13,390.75c-0.22-.14-1.34-2-1.34-1.45l1.62,2.81A2.31,2.31,0,0,1,145.13,390.75Z"/><path class="cls-1" d="M146.11,393.34l-0.7-1.24A13.14,13.14,0,0,0,146.11,393.34Z"/><path class="cls-1" d="M145.13,390.57v0.18S145.2,390.76,145.13,390.57Z"/><path class="cls-1" d="M128.29,345.09c0.25-.09-0.61-1.27-1-1.86A14.63,14.63,0,0,0,128.29,345.09Z"/><path class="cls-1" d="M101.45,298.11l-0.35-1.23A4.39,4.39,0,0,0,101.45,298.11Z"/><path class="cls-1" d="M87,283a0.55,0.55,0,0,1-.22-0.19A0.47,0.47,0,0,0,87,283Z"/><path class="cls-1" d="M86.8,282.85c-0.52-.75-1.24-3.39-1.86-4.2l0.14,0.08-0.78-1.66A29.93,29.93,0,0,0,86.8,282.85Z"/><path class="cls-1" d="M206.12,466.49c0,0.95-.39,1.75-0.5,1.38,0.22,2-.21,2,0.5,2.26,0.26,1.26-.34,2.54-0.52,1.11l0.16,3.59,0.28-2.12c0.56,0.63-.45,3.38.2,4.11l0.25-3.85,0.19,0.21a11.33,11.33,0,0,1,.21-3.17c0.09,0.1.26,0.05,0.22,0.73,0.41-4.64-1-1.34-.86-5.21A4.62,4.62,0,0,1,206.12,466.49Z"/><path class="cls-1" d="M207.91,462.66L207.28,461l0.41-2.7c-0.26-.05-0.31-2-0.65-0.73a6.25,6.25,0,0,1,0,1.21c-0.54-.35,0-3.64-0.63-2.88,0,2.16-.17,2.48.19,3.84a24.82,24.82,0,0,1-.73,4.3,10.89,10.89,0,0,1,.39,1.45l0-.51h0.86a7.32,7.32,0,0,1,0-1.9l0.74,3.26c0.88-1,.66-4.13,1.09-5.35C208.15,462.44,208.73,459.69,207.91,462.66Z"/><path class="cls-1" d="M206.25,465.46v0Z"/><path class="cls-1" d="M222.81,227.61a1.21,1.21,0,0,0-.26-1l-0.49,7.61c0.24-.22.68-2.39,0.7-0.92a5,5,0,0,0-.07-2.95l0.31,0.57c-0.33-1.78.61-2.92,0.79-1.76V229l-1.37-5C222.22,225.83,222.93,225.46,222.81,227.61Z"/><path class="cls-1" d="M237.59,71.27c-0.11,1-.05,1.13,0,1A6.85,6.85,0,0,0,237.59,71.27Z"/><path class="cls-1" d="M222.11,222.9l-0.44-1.55A7,7,0,0,0,222.11,222.9Z"/><path class="cls-1" d="M229.43,234a0.08,0.08,0,0,0,.09,0l-0.22-.71v0C229.34,233.53,229.38,233.77,229.43,234Z"/><path class="cls-1" d="M221.94,188.21v-0.5A5,5,0,0,0,221.94,188.21Z"/><path class="cls-1" d="M230.72,255l-0.18-3.47c0.2,0.48.28-1.18,0.49-.43,0-.26,0-1.49-0.15-1.17l0,0.7c-0.54-1.86-.9-0.8-1.18-3.83a5.65,5.65,0,0,0,0,3.67c0,0.34,0,.62,0,0.9l0.7,2.93Z"/><path class="cls-1" d="M234.86,118.71l0,0A0.05,0.05,0,0,0,234.86,118.71Z"/><path class="cls-1" d="M235.12,118.93l-0.21-.17C235,118.95,235,119.65,235.12,118.93Z"/><path class="cls-1" d="M222.53,223.48a1.15,1.15,0,0,1-.42-0.59l0.32,1.16C222.45,223.89,222.49,223.68,222.53,223.48Z"/><path class="cls-1" d="M223.89,226.16L223.81,229l0.3,1.08C224,229,224,227.71,223.89,226.16Z"/><path class="cls-1" d="M221.31,192.71c0.18-5.93.75,1.5,1.08-1.22a25.63,25.63,0,0,0-.45-3.28c0.1,4.71-1.25-.7-1.28,4-0.67-.71-0.6-3.45-0.33-5.05,0.77-1.79.42,1.61,1.07,2.06a3.53,3.53,0,0,0-.5-2.4c0.31-3-.53-6.23.51-8a8.74,8.74,0,0,0-.66-3.31c-0.72-.29-0.55,3.2-1.16,4,0.07-.16.21-0.48,0.31-0.38L219.64,181c0.34-1.76.72,0.28,0.72,1.24,0,0.69-.06,2.07-0.25,1.87l-0.1-1.05c-0.3,1.33.38,3-.08,4.4a1,1,0,0,1-.32-0.56,39.51,39.51,0,0,1,.55,5.52l-0.66-1.4c0.71,1.92.27,6.17-.3,9.1,0.14-.32.25-0.91,0.38-0.55,0.09,1.74-.47,3-0.81,2.2,0.52,1.73-.83,6.41-0.18,8.76l3.08,10.79a8.2,8.2,0,0,1-.13-1.27c0.69-.93.64-1.45,1.14,0.27-0.24-1.68-.79-1.07-0.67-3.56,0.26,1,1,1.28,1.19-1.1-0.31-6-1.9-10-2.55-15.66,0.5-.18.58-4.56,0.8-6.69a9.83,9.83,0,0,1,.58,4.07l0.27-4.11Z"/><path class="cls-1" d="M222.26,206.65a3.38,3.38,0,0,0,.12-0.46A1.37,1.37,0,0,0,222.26,206.65Z"/><path class="cls-1" d="M222,197.9a0.08,0.08,0,0,0,.05,0V197.4Z"/><path class="cls-1" d="M223.72,222.15c0.12,0.36.14,0.63,0.26,1,0-.22-0.05-0.5-0.08-0.76S223.78,222,223.72,222.15Z"/><path class="cls-1" d="M222.79,223.29l-0.19-.2-0.07.39C222.63,223.53,222.73,223.49,222.79,223.29Z"/><path class="cls-1" d="M226.88,170.29l-0.08-.57A1.08,1.08,0,0,0,226.88,170.29Z"/><path class="cls-1" d="M222.46,186.15c-0.06,2.06.72,0.28,0.58,3.2l0.09-.85a76.63,76.63,0,0,1-.21,8.26c-0.28-.29-0.43,1.49-0.86,1.17a12.65,12.65,0,0,0,.46,4.28c-0.2,1,.13,2.66-0.14,4,0.3-.55.82,1.95,0.66-1.32,0,0.26.09,0.1,0.12,0.36,0.49-2.07-.12-2.95,0-4.75,0.32-1.07.35,1.79,0.51,0.77-0.14-2.27.68-7.06-.35-7a4.09,4.09,0,0,1,.45-2.34c-1-2.65.94-9.61-.44-9.66a24.75,24.75,0,0,0,.12,3.9Z"/><path class="cls-1" d="M223.84,218.69c0-.13,0-0.29,0-0.4Z"/><path class="cls-1" d="M218.07,244.27l-0.83-.93c0.2-4.86.53-6.61,0.82-10.86,0.15-.32.19,0.21,0.21,0.47,0.11-3,.57-7.47.3-9.67,0.07-1,.49-3.44.71-2.48a6.93,6.93,0,0,1,0-1.54c0.33-.12,0,1.2.29,1.25a1.07,1.07,0,0,0,0-.69c0.24,0.73,1.14-.68.93,2.65-0.83,1.24,0-2.31-.84-1.6-0.07,1.1.26,1,.36,1.09-0.1,1.4-.31,1.35-0.5,1.27,0.23,0.55-.25,2.3.1,3.06-0.11,2.73-.62-0.19-0.72,1.59l0.78,1.08-0.35,3c0,4.3,1.51-.51,1.63,4.42-0.39-.68-1.28,1.24-1.62,3.5,0.07-1.37-.3-3.93.08-5.67-0.84,2.43.17-3.42-.68-2.18a14,14,0,0,1-.14,4.88l0-.53c-0.22,1.69.59,3,.06,5.35-0.07,1.16-.29.93-0.47,0.71C218.17,243.39,218.26,244.28,218.07,244.27Zm0-2.54,0.21-1.54A4,4,0,0,0,218.11,241.73Z"/><path class="cls-1" d="M209.52,440.78l-0.11.47A1.92,1.92,0,0,0,209.52,440.78Z"/><path class="cls-1" d="M222.09,302.23l-0.12.9A8.79,8.79,0,0,0,222.09,302.23Z"/><path class="cls-1" d="M222.82,322.76l0.07,1.34A5.32,5.32,0,0,0,222.82,322.76Z"/><path class="cls-1" d="M210.44,430v0l0-.21Z"/><path class="cls-1" d="M217.07,363.24a4.06,4.06,0,0,0-.25.72A1.28,1.28,0,0,0,217.07,363.24Z"/><path class="cls-1" d="M222.81,322.51l0,0.08,0,0.17v-0.25Z"/><path class="cls-1" d="M225.49,293.57l0-.59A2.86,2.86,0,0,0,225.49,293.57Z"/><path class="cls-1" d="M223,294.59a4.8,4.8,0,0,0,0-.57Z"/><path class="cls-1" d="M228.12,263.56l0-1.24A6.15,6.15,0,0,0,228.12,263.56Z"/><path class="cls-1" d="M223.87,291.43a1.35,1.35,0,0,0-.09-0.2C223.78,291.4,223.82,291.49,223.87,291.43Z"/><path class="cls-1" d="M206.39,448.33v-0.07l-0.1,0Z"/><path class="cls-1" d="M207.39,451.39v1.08A6.31,6.31,0,0,0,207.39,451.39Z"/><path class="cls-1" d="M214.18,380.81c-0.15.31-.36,1.06-0.47,0.69C213.84,382.14,214.27,382.13,214.18,380.81Z"/><path class="cls-1" d="M201.57,442a4,4,0,0,1,.23.7C201.72,442.21,201.65,441.8,201.57,442Z"/><path class="cls-1" d="M201.81,442.67c0,0.23.09,0.47,0.14,0.68A6.51,6.51,0,0,0,201.81,442.67Z"/><path class="cls-1" d="M207.87,372a0.76,0.76,0,0,0,.15-0.36A0.33,0.33,0,0,0,207.87,372Z"/><path class="cls-1" d="M207.17,453.32c0.19,0.21.26,4.9,0.67,1,0.61,0.2.09,2.54,0.16,3.59,0.21-.75.37,0.41,0.62,0.2a8.49,8.49,0,0,1-.05-2c0.32-.37.41,0.94,0.22,2,0.43-1.22.37,1.63,0.77-.12a33.25,33.25,0,0,0-.65-9.22,33.82,33.82,0,0,1-.41,6.34l-0.48-.79c0.63-2,.38-3.22.58-5.18L208,453.47c-0.61,2-.61.64-0.58-1A1.83,1.83,0,0,1,207.17,453.32Z"/><path class="cls-1" d="M202.65,450l0,0.07a1.21,1.21,0,0,0,0,.19Z"/><path class="cls-1" d="M217.15,262.57l-0.16-.4C217,262.49,217.1,262.6,217.15,262.57Z"/><path class="cls-1" d="M205.48,447.55h0S205.48,447.51,205.48,447.55Z"/><path class="cls-1" d="M216,271.94l0-.06A0.16,0.16,0,0,0,216,271.94Z"/><path class="cls-1" d="M227.41,275.81a0.18,0.18,0,0,0,.08-0.05C227.48,275.55,227.44,275.64,227.41,275.81Z"/><path class="cls-1" d="M216.1,272a0.07,0.07,0,0,1,0,0S216.08,272,216.1,272Z"/><path class="cls-1" d="M213.15,318a2.3,2.3,0,0,0,.22-0.35C213.33,317.56,213.26,317.64,213.15,318Z"/><path class="cls-1" d="M214.87,309l0.08-.16Z"/><path class="cls-1" d="M216.81,378.88a10.57,10.57,0,0,0,.06-1.07A7.23,7.23,0,0,0,216.81,378.88Z"/><path class="cls-1" d="M216,271.89a2.23,2.23,0,0,1-.14-0.47A1.85,1.85,0,0,0,216,271.89Z"/><path class="cls-1" d="M214.54,332.07l0-.28,0,0.16Z"/><path class="cls-1" d="M213.7,336.76a1.58,1.58,0,0,0-.15-0.34c0.07,1.71-.47,4.78.08,5.2,0-.57.65-3.51,0.95-3,0-1.19.53-2.89,0.5-3.53-0.5,1.9-.51.16-0.58-1.16,0.28-1.17.44,0.27,0.64-.74l0.2-2.74L215,332.85l-0.48-.78,0,0.25C214.45,336.38,213.73,332.59,213.7,336.76Z"/><path class="cls-1" d="M213.55,336.41a3.61,3.61,0,0,0-.08-0.66A1.2,1.2,0,0,0,213.55,336.41Z"/><path class="cls-1" d="M211.12,352.83c0,0.21,0,.44,0,0.72Z"/><path class="cls-1" d="M223.88,232.11c-0.17.06-.68,2.39-0.25,2.38l0.29-2.1Z"/><path class="cls-1" d="M209.73,398c0-.26.06-0.52,0.08-0.79l-0.05-.16A3.08,3.08,0,0,0,209.73,398Z"/><path class="cls-1" d="M214.71,339.39a1.94,1.94,0,0,0-.13-0.75A1.94,1.94,0,0,0,214.71,339.39Z"/><path class="cls-1" d="M208.7,398.08a2.14,2.14,0,0,1-.54.86,14.63,14.63,0,0,0,.15,1.88A10.75,10.75,0,0,1,208.7,398.08Z"/><path class="cls-1" d="M208.31,400.88v-0.06A0.42,0.42,0,0,0,208.31,400.88Z"/><path class="cls-1" d="M224.15,230.73l0-.63,0.09,0.33,0.23-1.61c0-.2,0-0.41,0-0.67a0.44,0.44,0,0,0,.09.24l0.08-.52c-0.36-1.32-.48-4.55-0.68-5.49a22.16,22.16,0,0,1-.05-3.68c-0.06.87,0,2,.23,1.7,0.36-1.76,1.14-2.58.68-5.67l-0.09,1.79-0.73-4.08c0.47-1.39.37,2,.68,2.62-0.29-3.16,1.09-5.71.34-7.2,0.5-.18,1.33-0.48,1.39-2.54-0.63,1.46-.29-1.25-1-0.06-0.24-.73.29-2.29-0.07-2.43l0.19,0.2c0.95-3.48-.21-4.69-0.53-6.21,0-4.22.42-6.14,0.51-9.58a2.84,2.84,0,0,0,1.31-2.39c-0.41-.66-0.46-3.78-1-4.13-0.36,2.45.37,2,.43,3.52-0.66,1.2-.59.08-1,1.74,0.3-1.34,0-6.13.63-7.59l0.05,0.53c0.46-2.35,1.89-2.73,1.25-6.72l-0.25-1.9a0.62,0.62,0,0,0,.17.16c0.22-3.08.83-2.2,0.52-5.63,0,0.27.1,0.1,0.12,0.37,0.43-1.92-.09-3.91-0.14-5.39,0.53-.86.45,0.24,0.76,0.82a31.52,31.52,0,0,0-.6-9.28l0.44-2.18c0.09,1.32.48,2.94,0.8,2.57a10,10,0,0,1,0-2.7,8,8,0,0,1,.83,1.88c0.77-3.49-1-.87.1-3.27a1.92,1.92,0,0,0-.66-1.93l0.63-2c-0.45-.26-0.28-2.74-0.2-4.37-0.18-.22-0.61,1.27-0.48,1.9-0.35-.15-0.37-1.9-0.27-3,1-.32.5-7.3,1.53-5.88,0.09-2.51.29-5.52,0.46-8.32s0.36-5.38.35-7.05c0.39-1.05.67-3.26,1-1.88,0.48-4-.25-6.19.51-10.13,0.16-.31-0.22,1.8.12,1.7-0.06-2.65,1-4.67,1.29-8.73a1.21,1.21,0,0,0,.19,1,11.22,11.22,0,0,1-.13-2.76c0.16-.57,0,0.8.18,0.48,1.53-7.71,1.06-13.81,2.44-21.54-0.4,2.21.11,3.14,0.36,3.21l0.37-2.15a28.67,28.67,0,0,1,.13-3.9c0.15-.14.4-0.78,0.43-0.08a18.38,18.38,0,0,0,.87-5.63,20.62,20.62,0,0,1,.32-3,9.75,9.75,0,0,1,.51-1.77,5.1,5.1,0,0,1,.55-1,1.4,1.4,0,0,1,.4-0.39,0.27,0.27,0,0,1,.38.12,0.19,0.19,0,0,0-.12-0.1,0.76,0.76,0,0,0-.48.54,5.43,5.43,0,0,0-.22.58c-0.08.22-.12,0.42-0.17,0.64-0.09.42-.16,0.85-0.2,1.28-0.2,1.69-.22,3.32-0.22,3.32l0.83-1.43-0.05,1.43,0,1.43c0.7-1.54.28-3.14,0.81-3.21,0,0.37-.22,1.18,0,1.27,0.58-1.48.26-1.69,0.55-2.83-0.08,3.17-1.21,9.25-1.54,12.6,0,0.53-.16-0.49-0.24-0.59a30.81,30.81,0,0,0-.76,3.84c0.24,1.12.44-.76,0.62-1.58,0.34,0.18.25,0.59,0.15,1.53-0.52.12-1,5.1-1.75,6.22-0.59,5,1.36-.62.44,4.24L238,91.09a59.68,59.68,0,0,1-.64,9.83l0.07-.68c-0.18-.48-0.42.24-0.59,0.56-0.56,2.4-.16,4.68-0.9,6.08,0.24,2.85.11,7.54,0,10.75-0.83.77-.13-4.22-0.42-5.6l-0.35,2.89a8.28,8.28,0,0,0-.27-3.65c-0.45,2.52.09,3.43,0,5.86-0.18-.21-0.34.1-0.47,1.2l0.45,0.37a0.85,0.85,0,0,0-.16.47l-0.19,4.31c0.31-.88.74-0.88,0.87-2-0.33.36-.28-0.58-0.14-1.68,0.21,1,.39-1,0.65-1-0.27,2.21-.52,4.94-0.53,6.4l-0.5.42c-0.33,2.1-.3,4.35-0.57,5.77L234.1,131c-0.41,2.52-.31,5-1,7.26,0.31,2.31.5,5.19,0.9,7.09,0.51,1-1.24,6.59-.58,9.21a22.43,22.43,0,0,1-.48-2.67c-0.2,1.7.43,3.1-.22,3.59,0.46-3.8-.5.17-0.56-1.56a24.92,24.92,0,0,0,0,4.57c0.19-2.89.78,1.08,0.7-1.86a31,31,0,0,1,0,8.11c-0.26,0-.4.28-0.57,1.29l0.33,0.84c-0.14,1.26-.31-2.48-0.59.07,0.49,2.66-.8,7.89.34,9.1-0.59,2-.28-3.84-1-0.85-0.34-1.78.29-4.17-.28-4.79,0.08,1.73-.54.6-0.61,1.71l0.27,1.94,0-.42c0.39,3.25-.14,8.35-0.25,12.47,0.43,3.52,1.2,6,.93,10.15-0.3-1.25-.52,3.46-1,0.79-0.41,1.92-.13,3.86.13,3.91,0.18-1.7.11-.6,0.32-2a10.86,10.86,0,0,1-.11,4.13c0-.42,0-0.27-0.12-0.36-0.32,2,.27,1,0.33,2.47-0.47.44-.29,3.25-0.59,4.58l0.54,2c-0.36-1.09-.25,1.86-0.65,2.15a14.63,14.63,0,0,1,.44,4.75c-0.17-.89-0.43,1.93-0.85,1.94-0.61,3.62.79,6.12,0,9.54-0.09-.11-0.33-0.83-0.5.17,0.07,0.8-.07,2.2-0.09,3.05v0a0.85,0.85,0,0,0,.13.7,22.84,22.84,0,0,1,.83,5.17c0.5-.17.49-2.62,0.41-3.68l-0.41-.94c0.8-.82.06-2.6,0.35-3.25,0.75,1.78.17,6.74,0.49,9.76,0.81-1.77,1.21-5.72,1.37-9.18l-0.4,1.5,0.11-1.81-0.64,1.71c0.22-1.71.17-3.19,0.3-4.73-0.11,1.81-.82,2.47-0.65,1.45,0.61-2-.18-2.12-0.05-3.66-0.1.85-.18,2-0.41,1.23,0.78-3,.46-3.84,1.24-6.57-0.83.29,0.11-3.45-.53-3.9l-0.14,1.28-0.34-2.74c0.8-2.47.55,2.26,1.23-1.53,0.27-3.51-.59-3.47-0.51-6.23a13.61,13.61,0,0,1,.6,5.38l0.3-1.34a27,27,0,0,1-.1,5.35c-0.41-2.58-.24,1.18-0.74,2.32,0.45,0.24.47-1.4,0.74,0.55a37.48,37.48,0,0,1,.38-4.37c-0.5,5,1.37,4.57.71,8.89-0.08-2-.72.66-1,0.89,0,0.95,0,2.87.05,3.66l0.72-.67c0.13,2.56-1.34,3.34-.87,6.32,0.37,0.41.32-2.57,0.36-2,0.13,4-1.05,5.41-1.82,8.92a1.84,1.84,0,0,1,.87,1.48c-0.37-.42-0.65.48-0.83-0.94a13.35,13.35,0,0,0,0,3.67c0.44-2.46.49,1.06,0.7,1.54-0.18,1.28-.37-0.43-0.42-1.23-0.19,1-.89,2.19-0.33,2.83-0.43,0-.88-3-0.83-4.89L230,245.48a6.07,6.07,0,0,1,.1-2.33c-0.43,1.22-.79,1.07-1.06.75a1.64,1.64,0,0,1,.17-0.05c0.19-1,.14-1.81-0.1-1.59-0.49-1-.47,1.39-0.82,2.07l0,1.57,0.69,2.74,0.68,2.75a15.72,15.72,0,0,1-1,5l0.44,0.52c-0.23,2-.59,3.84-1.07,2.5a0.92,0.92,0,0,0,.22-0.75,0.61,0.61,0,0,1-.12-0.3l-0.08-.11-0.1,3.6c-0.31-3.68-.87-0.27-1.67-1l-0.12,3.66c0.52-2.17.43,0,.46,0.8-0.51.16-.32,2.94-0.54,4.18l-0.09-.1a24.41,24.41,0,0,0-.53,4.67,17.05,17.05,0,0,1,1.12,2.87c0.47-2.48.5-1,.82-1.14a2,2,0,0,0-.06.78c0.1,0.37.24-.46,0.41-0.52,0.08-2.68.33-5.42-.22-6.58-0.4.78,0.13,1.42-.18,2.31-0.31-1.38,0-3,.25-5.28l0.49-.69,0-2.28c0.11,1,.6.45,0.42,2.82,0.42-.26.17-2.35,0.46-3.79l-0.46-.8c0.27,0.32.67-2.77,0.84-.53l0,3.63,0.48-1-0.23,3-0.2-.75c-0.17,4.91-1.24,1.31-1.15,6.22,0.48,1.59.36,3.22-.14,6.15,0.1-2.15-.44-0.27-0.72-1.12a8.29,8.29,0,0,0,.05,4.11c-0.41.52-.74,0.88-0.47-1.06-0.7-.33-0.16,2.58-0.93,2.67-0.69,6.47,1.83,5.44.08,12.9l-0.27-.32c-0.13,4.84-.79,7.57-1,12l-1.12,3.42c0-.8-0.4-3-0.87-2,0.94-1.63.86-3.46,1.47-5.25-0.18-.21-0.41.52-0.56,0.84a19.7,19.7,0,0,0,.55-3.1c-0.17.05-.53,1.63-0.5,0.42l0.69-1.94c0.05-2.69-1-1.43-.45-4.54a6.51,6.51,0,0,1,.83,3.1c0.24-1.42.06,1.93,0.45,0.65-0.41-2.12.19-3.06,0.09-5.84a3.16,3.16,0,0,1,.13,1.11l0.7-3.94c-0.48.94,0-3.32-.63-3-0.69,4.2-.23,3-1.06,7.78a11,11,0,0,0-.77-4.08,0.69,0.69,0,0,0,.08-0.25c-0.46-.8-0.69-0.06-1.63-0.18,0.43,2.27-.28,3.69-0.17,6.33,0.47,0.54.82-1.44,0.82-2.74l0.1,2.33-0.19-.48-0.79,5.79a4.53,4.53,0,0,0-.34-2.11,14.45,14.45,0,0,1-.55,2.25c0.51-.11.85,0,0.76,0.76a21.4,21.4,0,0,1-1.87,7.08v0.44c0.57-.58.64,2.75,1,4-0.52-.11-0.51,1.9-0.89,2.95,0.54,0.63,1.45,0,2.08-1.31-0.3-2.58-.41-1.47-1.07-2.75l-0.11-4.11,0.39,1c0.42-2,0-4,.59-3.8,0.31,1.11-.12,2.85.19,4l0.36-1.32c0.38,2.42-.71,1.15-0.57,4.05,0.64-1,0,.26.24,1.52,0.47-.95.36-5.05,1.17-4.1,0.24,1.53-1.56,4.9-.86,7l-0.09-.11a11.5,11.5,0,0,0,.23,5.08c-0.41,1.21-.17,3-0.26,4.3l-0.26-.06-0.07,1.9c-0.39-.95.23-2.21,0.31-3.84L222,325c0.76-1.81,0-3.15-.28-4.64,0.22,2.15-.7,6,0.21,6.54l-0.62,1.26,0.12,0.64c-0.46.94-.95-0.11-0.88-2,0.16-.32.23-0.47,0.32-0.36a9.69,9.69,0,0,1-.12-3.85l0.15,1.16c0.29-2.64.34-5.06,0-6-0.59,3.79-1,7.54-1.31,11.12,1,1.16,1.5,2.47,2.47,3.11a36,36,0,0,1-.77,7.74l-0.18-.21a11,11,0,0,0-.19,2.74c-0.37,1.05-.47-0.79-0.69-0.05l0,3.47c-0.44-.25-0.18-3.15-0.08-4.53,0,0.26,0,.79.12,0.63,0.34-1.58-.17-4.64.57-5.27,0-.79.35,1.63,0.63-1,0.42-1.74-.13-2.37-0.31-2.58s-0.62,2.74-.85,1.74a15.16,15.16,0,0,1-.23,3.69c0.1-1.37-.27-3.27.21-4-0.24-2.74-1.5-2.47-1.7-1.21,0.42-.27,0,5,0.85,1.48,0.35,1.63.08,4.54,0.2,6.64l-0.09-.1-0.12,2.59a2.18,2.18,0,0,0-.41-1.22l0.37,3.64c-0.29-2.05-.45,1.22-0.73,2.11,0.37,0.42.54,1.84,0.89,0.52,0.43-1.48-.14-0.9,0-2.27l0.46,2-0.08.16,0.41,1.21c-0.28,2.64-1.1-1.26-.9,2.17l0.75-.38c-0.46,3.9-1.71,8.86-1.62,11.66-0.34-.8-1-1.19-1.43-0.18a50.7,50.7,0,0,0,.5-5.3c0.15-.32.64,2.21,0.33,4.06,1.24-.8-0.28-4.74.91-4.85,0.84-4.7-.81-3.63.24-7.59-0.52-.1-0.15-1.17-0.6-1.42-1,1.11-.46,5.38-1,8a2.77,2.77,0,0,0-.14-0.89,13.91,13.91,0,0,0-.2,4l0.08-.16c0.31,2.32-.52,1.37-0.87,2.69,0,0.53-.28,2.38.13,2.11l-0.71,2.38,0.6-.07c-0.09,1.37-.5,1.64-0.25,2.91l0.52,0.1,0.48-3.38c0,1.74.46,0.52,0.4,2.43-0.39-2.17-.42,1.47-0.93,1.64l0.17,1.42-0.11-.37c-0.37,1.07.08,1.32-.1,2.59a9.56,9.56,0,0,0,.67-4.38,44.21,44.21,0,0,1,.22,4.9,17.67,17.67,0,0,1-.57,3.84c0-2.65-1.67.79-.84-4.46a1,1,0,0,1,0,.69c0.73-.65.23-3.17,0.08-4.33-0.41.26-.4-0.94-0.79,1.07,0.31-.64.71,1.78,0.23,3.68l-0.8-.41-0.34,2.8,0-.27c-0.62,1-.15,3-0.63,4.92,0.18,1.42-.51,6.76.55,4.53-0.66,1.69-.13,3.27-0.18,5.18l0.53-2.33c0.36,2.84,0,2,.8,4.32-0.24.21-.47,0.69-0.67,0.22-0.36,3.75-1,9.09-.53,11.34-0.25,2.64-1.26,3-1.18,6.72,0.05,0.79.82-.55,0.38,1.89-0.07.16-.42-2.42-0.58,0.33,0.48,2-.72,4.55-0.37,7.13-0.34,1.32-.44,3.65-0.9,3.13a23.45,23.45,0,0,0,.22-5.6c0.28,0.32.42-1.48,0.52,0.1,0.64-3.18-.14-2.11.35-5-0.19-.21-0.68,1.43-0.54,2.06-0.69,0,.13-5.7-0.91-3.21-0.31,3.07,1.05,4.1.12,6.7-0.33-1.1.16-2.74-.46-4.16l-0.45,2.17,0.37,1.63-0.09-.1c-0.94,3.82.42,3.63,0.49,7.12,0.64-2,1.15.56,1.57-.93-0.1,2.32-.32,4-1,4-0.22-4.37-.71-0.3-1.07-4.36-0.3.64-.93-1-1.2,1.35,0.28,2.73.64-.76,0.65,1.94-0.07.15-.15,0.31-0.24,0.21,0.26,1.26-.24,1.43,0,3l-0.11-.36c-0.56,1.81.31,2-.27,3.6,0.56-.59.33,1.1,0.57,2.1,0.32-1.59,1.12-2.4,1.33-5.57a1.47,1.47,0,0,1-.71-1.52l-0.11,2.06c0-.45-0.11-0.8-0.16-1.21l0.37-2c0.09,2.53.61,1.41,0.95,2.51-0.36,2.28,0,1.9-.29,3.33-0.58-.19-1.36,4.34-2,7,0.06-.41.08-0.94,0.12-1.22-0.22-1.95-.6,1.28-0.77,1.34l0.19,1.42c0-.27-0.13-0.64-0.26-0.05,0,1.9.56,1.84,0.52,3.74-0.34.12-.71-1.52-1-0.36a6,6,0,0,0-1.08,4.15,5,5,0,0,1,.12,1.6,1.72,1.72,0,0,0,0-.29l-0.49,1.64c-0.44-1.46.49-2.85,0-4.33l-0.52-.16a11.32,11.32,0,0,0-.24-3.35,27.22,27.22,0,0,0-.15,4c-0.36.24-.5-1.12-0.52-1.31l0.28,0.31c0.62-2.23-.24-3.42.08-6.22,0.06-.42.07-0.16,0.17-0.06-0.33-2.32.55-4.5,0-6.76l0.22,0.74c-0.11-1.52-.39-4.51-0.66-7.5l-0.2,0c-0.15.32-.05-0.79,0.08-1.37h0c-0.13-1.5-.25-2.93-0.33-4.11a5.24,5.24,0,0,0-.37,1.37c0.2,0.48-.21,3.17.37,2.84-0.43,1.22-.12,3.28-0.4,4.18,0.49-1.64.43,1.21,0.7,1.52-0.39.53-.17,2.48-0.62,2.22a3.33,3.33,0,0,0,.15-1.53c-0.29-1.79-.64,3.18-0.88,1,0.11,2.8-.33,6.45-0.12,9.35l0.32-1.59c-0.17,1.27-.3,4.29-0.55,4.5,0-1,.11-2.06.12-3.27-0.52-.1-0.23,2.91-0.56,3l0.59,3.58,0.15-1.54c0.24,1-.4,4.18-0.66,6.56-0.61-1.43.26-3.6,0.17-6.13-0.13-1.84-.78,1.07-0.82-0.67a4.43,4.43,0,0,0-.13,2.13l-0.18.67c-0.53-1.59-.11-5-0.5-7.37a1.19,1.19,0,0,0,.19.46,22,22,0,0,0,.49-5.28,3.74,3.74,0,0,0-.13,1.79,14.4,14.4,0,0,1-.24-2.21c-0.32,1.59-.41.27-0.6,1.27a14.67,14.67,0,0,1,.21-3.17c0.3-.64.3,0.57,0.63,0.46-0.09-1.33.73-1.86,0.51-3.81-0.34,2.54-.65-0.73-0.8-1.62l-0.06.43a2.08,2.08,0,0,1,.12-2.06c0.07,1.06-.12,2.06.29,1.79a16.72,16.72,0,0,0,0-2.17L202.8,430l0.19-3.44a10.69,10.69,0,0,0-1.17-2,6,6,0,0,0,.15-2.75l0.11,0.37c0.41-1.49.44-4.87,0.16-5.18,0.36-1.06,1.3,7.79,1.64.13,0.23-2.9-.82-1.89-1-3.57,0,0,.09.1,0.17-0.06,0.17-1.27-.18-1.42-0.25-2.48a5.76,5.76,0,0,0-.19,2.22c-0.37-.42.25-2.64,0-3.64,0.52,1.31.44-2.44,0.68-1.43a15.14,15.14,0,0,0,0-6.6c0.92-1.65.14-3,.73-5.77a17.6,17.6,0,0,1-.14,1.8c0.36,1.63.5-2.86,0.75-.38,0-.53-0.26-0.06-0.23.48,0,0.94.12,1.84,0.37,1.62l0.62-2.23,0.05,0.8,0.89-3.39c-0.09-.1-0.24.21-0.32,0.37,0.6-4,.64-8.56,1-12.06-1.34-.77.13-8.66-0.47-11.56,0.33,0.79,1,1.27,1.33.82a12.88,12.88,0,0,1,.22,3.39c-0.24.21-.65,2-0.81,0.79-0.18,4,.66-0.48,1.07.73,0.23-4.39-.35-7-0.44-9.82l0.17-.06L208,364.93c-0.24,1.7-1,1.54-.56-0.63l0,0.27c0.44-1.22.28-3.87,0.5-5.82l-0.34-1.37c0.23-2,1.09-2,1.65-2.56,0.34-3.07-.2-4.9-0.42-7.12,0.46-1,1-5.55,1.2-3.07-0.07-2.8-2.1-2.43-.56-7.08l0.24,1.27c0.34-4.55.26-11.1,0.84-13.16,1.12,1.8,1.86-5.55,3.19-6.23-0.31.2-.23-1.52-0.36-1.78a2.28,2.28,0,0,0,.2-1.65c-0.43,1.75-1.18-1.38-1,2.06a15.79,15.79,0,0,1-.72-7.83l0.52,0.11-0.46,3c0.42-.26.23,1.27,0.35,1.91,0.85-5.5,1.15.85,1.66-4.81-0.28-.58-0.18-0.21-0.17-1.69-0.05.69,0.3,0.85,0.42-.26l-0.31-1.11c1.07-1.88.24,3.32,1,1.7,0.19,2.22,0,6,.77,5.38,0.6-3.53-.93-3.33-0.25-7l0.32-.37a6.42,6.42,0,0,0-.7-2.33,1.54,1.54,0,0,0,.46-1.2c-0.44-2.28-.42-3.76-0.94-5.88,0,5.49-1,4.59-1.09,10.24-0.13-.9.12-4.86-0.58-5.18l0.52,0.11a25,25,0,0,1,.26-6l0.15,1.43c0-3.07,1.32-5,.72-7.44a10.45,10.45,0,0,0-.18,2.06,28.1,28.1,0,0,1,.48-5.23L214.33,284c0.26,0.06.52-2.16,0.81-1,0.68-2.48,0-3.76.07-5.24,0.86-2.52,0,2.27.68,2.61a37.13,37.13,0,0,0,.63-9.4c-0.19.71-.32,1.06-0.44,1a9,9,0,0,0,.4-2.33l-0.28-.59c0.38-1.31.56-1.1,0.69,0.07,0.22-1.27-.27-2.86.37-4.1,0.18,2.19-.51,4.94-0.39,6.1,0.2-4.59,1.56-4.45,1.77-10.22,0.17-.05.38,1,0.51-0.15,0.16-2.57-.63-0.74-0.92-1.58a7.54,7.54,0,0,1-.87,4l-0.22-.55c0.15-.06.3-1.29,0.48-1.64l-0.53-.38c0.6,0.21,1.32-1.71,1.23-3.28-0.6,1.52-.55,1.1-1.3,1.45-0.45-2.25.9-2.39,0.43-4.91,0.18,0.2.13,2.35,0.46,0.52,0.17-1.53-.33-1.37-0.39-2.41,0.41,1.2.82,0.94,1.32,2.25a28.81,28.81,0,0,0-.14,3.78l0.66-2.21c-0.14,2.31.43,1.74,0.61,1.95,0.91-3.89-.5-3-0.13-5.57-0.24-1.25-.3,2.37-0.49.42,0.3-2.36-.29-0.57-0.26-3.25l0.2,0.47c0.39-.78.07-1.62,0.09-2.57s-1.91,1-1.59-3.24a0.55,0.55,0,0,0,.27.31l4,4.53c0.35-4.33.89-9.31,1.53-14.31,0.94-1.12.45,3.64,0.85,3.36l-0.34,2.28c-0.35-.16.24-4.81-0.56-2.79,0,4.07-.61,5.86-0.18,9.76,1-1.12.28-5.06,1.13-7.51a15,15,0,0,0-.06,2.81l0.92-7.5-0.16-.61c-0.23,1.79-.39,3-0.43,3.19,0.25-2.38-.08-4.43-0.7-4.63l-0.05.42-0.13-.87ZM237.52,76.28a1,1,0,0,0,.16.38C237.6,76.56,237.53,76.64,237.52,76.28ZM221.81,277.55l1.43-9.36c-1.87,5.34-3.26,9.1-2.17-.07l0-.61a35.89,35.89,0,0,0-.68,5.2,67.1,67.1,0,0,0,1.42,6.85c0.41-.52.13-1.37,0.35-2.37Zm-2.33,2c-0.34,1.78,0,1.4.19,1.71l0.12-1.9C219.7,279.6,219.6,279.71,219.48,279.56Zm0.45,1.63a1.84,1.84,0,0,1,.1-0.46Zm4-34.93v0.19l0.17-1.29A5.77,5.77,0,0,0,224,246.26Zm-0.91,3.6,0.41,0.47,0.16-1.21A1.09,1.09,0,0,0,223,249.86Zm-2.65,11.57c0.46,0.8.21,3.27,0.82,3.49,0.14,0.18.26-.34,0.38-0.92l0.28-2.08a0.63,0.63,0,0,1-.21-0.44c-0.16.72-.37,1.19-0.72,0.85,1-1.78-.41-1.74,0-3.74C220.6,257.91,220.28,260.8,220.39,261.43ZM207.12,417.55a4.8,4.8,0,0,0-.41.51l-0.19-1.46c0.34-2.54,1.41-4.51.82-6.87a5.61,5.61,0,0,1,1.12-2.12c-0.07.52-.14,1-0.23,1.42C208.84,415.55,206.76,412.28,207.12,417.55Zm3.51-29.25a0.63,0.63,0,0,0,.11.37,65.65,65.65,0,0,1-.3-13.59c-0.51.56-1.09,3.28-1.39,4.58l-0.42-1.21,0.47-.69-0.3-2.06c-0.4.53-.46,2.17-0.82,3.23,0.09,0.1.4,3.64,0.64,4.64l0.6-2.75a43.28,43.28,0,0,0-.39,5.91c0.26,0.05.87-2.44,0.33-2.8,0.41-.27.17,2.64,0.74,0.84a28.9,28.9,0,0,1-.73,7.24l-0.67.22c-0.4,1.74.68,1.26,0.13,3.32,0.09-2.59-.75.38-0.63-1.68-0.3.63-.69,0-0.81,2,0.72,1.78-.72,2.12-0.09,3.8-0.36,1.06-.42-1.21-0.71.91,0.25,2.48.59,2.36,1.2,2.56,0.36-2.27-.61-2.63-0.3-4.48l0.77,3.8a5,5,0,0,0,.26-1.6,6.55,6.55,0,0,0,.28,2c0.1,0.32.18,0.61,0.25,0.88,0.18-2.1.34-4,.64-4.28l0.28,0.32a4.25,4.25,0,0,0,0-2.53c0.12-1.88-.14-3.8.28-4.18l0.22,0.74C210.41,391.47,210.39,391.21,210.63,388.3Zm7.62-75.71c-1.25,1.29-2.4,2.73-2.85,9.29l0-.52c-1,3.23.3,6.51-.86,10.44a13.29,13.29,0,0,0-1-4.12l0.11,2.12c-0.55-.64-0.44,1.48-0.61,3l-0.59-1.42a10,10,0,0,0,.43-3.22c0,0.53,1.21-3.06,1.2-5.07-0.51.16-.72,4.38-1.33,2.43,0.17,1.69-.33,1.85-0.33,3.59-0.17-1.69-.63-0.47-0.86-1.75l-0.11,2.85c-0.17.06,0-4.17-.78-1.9,0.15,1.16-.47,4.17.05,4.27l-0.17.05c-0.31,2.12.66,1,.11,3.59,0.26,0.06.49-.43,0.52-1.37a9.73,9.73,0,0,1-.31-2.6c0.48-.69-0.24,2,0.57.9,0.4-.53.12-4.33,0.78-3.06l-0.32,2.11c0.52,0.1.35,1.64,0.77,1.64,0.07,1.32-.63,2.49-0.3,3.86,0.29,0.58,1-.32.53,1.85-0.94,1.64-1.26,6.71-1.32,8.61l0.19,1.69c0.34-.11.24-3.17,0.56-2.07l-0.11,2.59-0.18-.22a12.8,12.8,0,0,0,.06,2.54c-0.31-.84,0-2.69-0.57-2.37a10.45,10.45,0,0,0-.43,2.49,0.46,0.46,0,0,0-.13-0.44c-0.46,2.43.4,2.43,0.52,3.06,0.49,2.53.89-2.43,1.42-2.06l-0.35,7.23c-0.12-.63-0.25-1.27-0.49-1.05-0.41,1.74-.43,0-0.62,2.49,0.76-.11.19,3.17,0.47,5-0.38.79-.45,1-0.31-0.84-0.5.16-.53,2.58-0.65,3.43,0.08,0.51.07,1.36,0.14,1.9,0.31-.7.58-0.36,0.65,1.21l0.09,0.1c0.36-2.53,1.23-6.44.87-8.08l0.2,0.47c0.68-2.91-.31-6.49.73-7.76,0.35,0.16.14-.58,0.66-0.49l-0.21-2.2,0.2,0.47,0.21-3.7,0.09,0.11-0.8-4.33c-0.23,0-.31.08-0.43-0.52a5.16,5.16,0,0,1,0-1.44h0c0.15-.9.54-1.47,0.77-2.57l-0.26,3.43c0.36,0.32.79,0.06,1.22-1.59,0,0.69.23,1,.35,0.16-0.09-.1,0-2.27-0.43-1.48,0.17-3.27,1.67-8.45,1.41-13.46,0.1,3.59.8-2.8,0.57,1.16,0.89-2.69-.38-2.43,0-5.22,0.25-.22-0.18,1.52.2,2.21,0.7-4.64-.25-8,0.4-12.46l0.5-.14Zm0.31-9,0.11-2.66,0,0.26-0.12-2.65c-0.36,1.58-1,2.58-1,.31,0.18,0.21.5-.42,0.53,0.37,0.45-1.47,1.08-4.74.26-4,0.39,3-1,.57-0.73,2.9-0.35-1.27,0-2.45-.1-3.63,0.27,1.24.93-.18,1.32-2,0-.8.32-2.9,0.27-4.22-0.5.41-.63-0.75-1,1.36a10.68,10.68,0,0,1,.39-3.33,3.1,3.1,0,0,0,.14,1.44,13.11,13.11,0,0,0,.84-2.39l0.08-1.35a1,1,0,0,1-.19.31l-0.23-1.53c0,2-.31.89-0.57,0.84,0.52,0.11.21-1.27,0.27-2l-0.72,1.41c-0.2-.74.68-2.47,0.09-2.16a44.56,44.56,0,0,0-.75,7.17l0.56-1.1c0,3.23-1,1.89-1.33,5.47,0.23,1.53-.54,5.39.24,5.55-0.19-.48-0.94,2.16-0.71,3.42,0.58,1.43.24,5.55,0.7,4.34,0.13-1.11-.11-2.64.45-3.48l-0.08,2.17,0.54-1.37C217.56,303.91,217.95,303.88,218.56,303.6Zm9.71-47.69,0-.08v0.09h0Z"/><path class="cls-1" d="M206.22,449.59c0.13,0.63,0,2.16.39,1.89C206.19,451.49,206.77,448.74,206.22,449.59Z"/><path class="cls-1" d="M205.66,451.39c0.09,0.12.26,0.05,0.22,0.74l0-1.9Z"/><path class="cls-1" d="M202.61,453.08a7.86,7.86,0,0,1,.22,3.17c-1.08.49-.09-2.53-1-3.3-0.32,2.8.52,3.74,0.42,6.05C202.77,457.89,203.39,453.23,202.61,453.08Z"/><polygon class="cls-1" points="201.4 451.73 201.51 453.31 201.58 453.16 201.47 451.58 201.4 451.73"/><path class="cls-1" d="M213.09,418.61c0.34-.11.09-1.11,0.06-1.64A4.69,4.69,0,0,0,213.09,418.61Z"/><path class="cls-1" d="M239.27,112l1.19-11.84C240.1,103.59,239.73,106.73,239.27,112Z"/><path class="cls-1" d="M214.23,378.91c0,3.22.47,4.69,0.34,8,1-4.23-.54-5.74.44-9.28Z"/><path class="cls-1" d="M216.72,380.26c-0.65.48-.5-2.53-1-2.1,0,2.17.49,1.05,0.28,3Z"/><polygon class="cls-1" points="205.43 393.91 205.19 392.91 205.24 393.7 205.43 393.91"/><polygon class="cls-1" points="217.44 365.65 217.54 366.01 217.88 364.43 217.44 365.65"/><path class="cls-1" d="M217.65,366.38l-0.11-.37Z"/><polygon class="cls-1" points="204.22 392.55 203.97 393.98 204.19 394.72 204.22 392.55"/><path class="cls-1" d="M208.56,380.09l0.09,1.31C208.63,381.14,209,379.4,208.56,380.09Z"/><polygon class="cls-1" points="218.56 355.89 218.47 354.3 218.4 354.46 218.49 356.04 218.56 355.89"/><path class="cls-1" d="M207.75,369.85c-0.55.85,0.1-2.59-.48-0.79C207.2,370.7,207.5,370.06,207.75,369.85Z"/><path class="cls-1" d="M212.6,351.19a2.78,2.78,0,0,0,0-.66C212.59,350.8,212.6,351,212.6,351.19Z"/><path class="cls-1" d="M212.6,351.19a8.61,8.61,0,0,0-.21,1.83A3.84,3.84,0,0,0,212.6,351.19Z"/><path class="cls-1" d="M213.21,343.36l-0.09.62c-0.17-.65-0.17-0.35,0,0.23,0,0.66.11,0.63,0.2,0.72l0.14,0.42-0.12-.55C213.41,343.78,213.44,343.15,213.21,343.36Z"/><path class="cls-1" d="M223.9,315.09c-0.4,2.26-.55,2.84-0.9,2.68-0.33,2.15.32,1.88,0.34,3.2C223.51,318.52,223.73,318,223.9,315.09Z"/><path class="cls-1" d="M223.34,321l-0.05.86A6.12,6.12,0,0,0,223.34,321Z"/><polygon class="cls-1" points="208.4 352.15 207.97 350.67 208 351.2 208.4 352.15"/><path class="cls-1" d="M224.42,311.73a6.36,6.36,0,0,1-.28,1.42C224.5,313.3,224.49,311.31,224.42,311.73Z"/><path class="cls-1" d="M216.41,319.81a10.62,10.62,0,0,0-.4,2.27C216.14,321.24,216.88,320.61,216.41,319.81Z"/><path class="cls-1" d="M223.59,305c-0.07.42-.38,1-0.65,0.73C223.05,306.4,223.61,307.29,223.59,305Z"/><polygon class="cls-1" points="216.9 315.64 216.74 315.96 216.82 317.55 216.9 315.64"/><path class="cls-1" d="M211,320.69c0.26,1.8,1.32-2.69,1.39.38,0.83-3.87-.65.24-0.29-2.64C211.76,320.11,211.13,320.88,211,320.69Z"/><path class="cls-1" d="M212.07,318.43c0-.24.09-0.51,0.12-0.8Z"/><path class="cls-1" d="M217.37,293.95a4.3,4.3,0,0,0,.08.61A4.16,4.16,0,0,0,217.37,293.95Z"/><path class="cls-1" d="M212.65,309.18l0.38,2.71c-0.26-1.81.22-6.24-.46-6a10.68,10.68,0,0,0-.07,3.91Z"/><path class="cls-1" d="M227.64,280.22l0.13,1.16L228,280C227.86,280.37,227.47,279.59,227.64,280.22Z"/><path class="cls-1" d="M228,279.71l0,0.27A0.88,0.88,0,0,0,228,279.71Z"/><path class="cls-1" d="M217.16,299a11,11,0,0,0-.16,2.32C217.16,301,217.5,298.87,217.16,299Z"/><polygon class="cls-1" points="227.62 272.13 227.52 274.02 227.7 271.97 227.62 272.13"/><polygon class="cls-1" points="229.72 263.45 229.88 263.13 229.82 261.53 229.66 261.85 229.72 263.45"/><path class="cls-1" d="M215.68,273.47c-0.22,1.27.25,2.33,0.41,2l0.26-2.48c-0.58.57-.06,0.69-0.36,2.11Z"/><path class="cls-1" d="M233.41,197.68c0.31,0.57,0,3.28-.35,3.4-0.12-.37-0.18-1.85-0.44-0.94l0.73,2.19c-0.66,2.83-1-2.23-1.22-3.65-0.25,2.91.26,3.8,0.1,6.89a6.78,6.78,0,0,1,.56-2c0.6-.08.19,2.8,0.13,4.87,0.33-1.3.5-.53,0.68,0.44a1.12,1.12,0,0,0,.07.37l0.07,0.33V209.4c0.07,0,.15,0,0.27-0.2a25.68,25.68,0,0,1,.55-4.16c-1,1.05,0-3.81-.26-5.23v-1.62l0-.61c0.11-.12.24,0.06,0.38,1-0.15-.78,0-3.35-0.28-3.12l0.27-5.86a2.15,2.15,0,0,1,.18-0.49c-0.05-.21-0.1-0.24-0.15-0.22l0.62-12.73,0.68-12.7c-0.15,1.25-.43,2.32-0.61,3.6-0.52-2-.24,2.11-0.81,1.51a7.78,7.78,0,0,1,.17-2.91c-0.29-.3-0.62.77-1,0.62-0.57,3.18.86,3.76,0.47,6.88-0.36-.14-0.62-1.13-0.69.92l-0.05-.53c0.23,3.31-1,2.52-.07,4.64l-0.52-.08a36.72,36.72,0,0,1,.17,6.06l-0.1-.1c0.37,4.62,0,2.58,0,7.76l-0.5-2.41c-0.34,1.77.31,2.2,0.18,3.48-0.1-.1-0.5.18-0.53-1l0.63,6.32C233.1,199.71,233.18,197.91,233.41,197.68Z"/><path class="cls-1" d="M232.24,205.58a8.84,8.84,0,0,0-.08,1.16C232.19,206.31,232.22,205.94,232.24,205.58Z"/><path class="cls-1" d="M236.13,161.67l-0.1,1.78A13.5,13.5,0,0,0,236.13,161.67Z"/><path class="cls-1" d="M232.91,214.65c0.33-1.08.33,0.84,0.53,1l0.2-3.91a3.23,3.23,0,0,0-.6-0.32Z"/><path class="cls-1" d="M234.08,210.67a2.72,2.72,0,0,1-.33-1l-0.11,2.14C233.79,211.78,233.94,211.55,234.08,210.67Z"/><polygon class="cls-1" points="223.23 210.51 223.25 209.82 223.15 208.77 223.23 210.51"/><path class="cls-1" d="M224.68,199.79a7.33,7.33,0,0,0-.14,2.91A28,28,0,0,0,224.68,199.79Z"/><polygon class="cls-1" points="221.27 201.85 221.18 200.11 221.11 200.26 221.27 201.85"/><path class="cls-1" d="M235,148.38l0-.84A7.46,7.46,0,0,0,235,148.38Z"/><path class="cls-1" d="M234.47,163.21c0.83-4.08.33,2.73,1.16,1.48l-0.12-2.25,0.19,0.2,0.1-2.73c-0.39.54-.43,1-0.79,0.81,0.38-3.63.51-1.12,1.14-3.76l0.2-4.07,0.09,0.34a1.34,1.34,0,0,0-.07-0.62l0.39-6.85c0.19-3.43.45-6.84,0.45-6.84-0.07-2.51-.78,1.32-1.15-0.56-0.27,2.88-1,7.14-.27,7.44-0.09-.1-0.28-0.31-0.41.27l0.47,1.72,0.31-1.58c0.46,1.72-.07,7.13-0.49,8.09,0-3.1-.83-1.61-0.12-5.87-0.2.18-.58,0.94-0.61,0C234.79,153.43,234.16,157.93,234.47,163.21Z"/><path class="cls-1" d="M238.61,112.74l0.06,0C238.65,112.7,238.62,112.66,238.61,112.74Z"/><path class="cls-1" d="M238.32,114.42l0.42,2.53,0.4-3.82-0.46-.34a4.94,4.94,0,0,1-.08,2.22Z"/><path class="cls-1" d="M238.83,119.84c0-2-.58-2-1-0.91-0.06-1.84.74-.88,0.27-2.2-0.43,0-.44,2.25-0.42,2.77Z"/><polygon class="cls-1" points="237.01 134.3 236.82 133.73 236.63 135.09 237.01 134.3"/><path class="cls-1" d="M236.82,133.73l0.2-1.35a1,1,0,0,0-.52.36Z"/><path class="cls-1" d="M237.54,128.85c0.1-.57.2-1.2,0.29-2Z"/><path class="cls-1" d="M237.24,130.38l0.08,0,0.22-1.49Z"/><path class="cls-1" d="M237,132.38c0.43-.18.89-0.4,1-2.36l-0.67.32Z"/><polygon class="cls-1" points="222.51 189.27 222.36 187.69 222.28 187.85 222.44 189.43 222.51 189.27"/><path class="cls-1" d="M223.34,180.24a9.46,9.46,0,0,0-.18-1A2.85,2.85,0,0,0,223.34,180.24Z"/><path class="cls-1" d="M220.88,173.36c0.51-1.83.41,2.58,0.78-.83,0.4-.28.81,1.35,0.54,3-0.36-.15-0.15-1.58-0.57-0.61,0.36,1.09.05,1.48,0.62,1.14a18.55,18.55,0,0,0,.92,3.28c-0.14-2.18.68-6.72,0.12-9.52-0.58-1.56-1.53-.69-2.48-0.75C220.57,169.23,220.26,173.17,220.88,173.36Z"/><path class="cls-1" d="M219.77,176.21a6.23,6.23,0,0,0,0,1.65C220.09,177.74,219.75,176.91,219.77,176.21Z"/><path class="cls-1" d="M228.07,157c-0.12-.17-0.19-1.73-0.44-1.41v2.35A1.37,1.37,0,0,1,228.07,157Z"/><path class="cls-1" d="M227.65,159v-1A5.46,5.46,0,0,0,227.65,159Z"/><path class="cls-1" d="M228.17,156.88l-0.09.11S228.13,157,228.17,156.88Z"/><path class="cls-1" d="M238.36,123.28c0.26,0.06.22-1,.2-1.51A7.4,7.4,0,0,0,238.36,123.28Z"/><path class="cls-1" d="M242.39,84.43l0.34-.87A2.4,2.4,0,0,0,242.39,84.43Z"/><path class="cls-1" d="M237.77,69.26a0.38,0.38,0,0,1-.09-0.21A0.32,0.32,0,0,0,237.77,69.26Z"/><path class="cls-1" d="M237.68,69c-0.09-.67.67-2.53,0.53-3.31l0.08,0.11,0.15-1.36A17.22,17.22,0,0,0,237.68,69Z"/></svg>