<svg id="Layer_1" data-name="Layer 1" xmlns="http://www.w3.org/2000/svg" viewBox="0 0 516.02 560"><defs><style>.cls-1{fill:#646464;}</style></defs><title>arrow_hd</title><path class="cls-1" d="M414.78,287.52c0.94-.93,2.22-1.19,2-0.66a10.21,10.21,0,0,1,1.31-1.58l-1.65,3.2c0-.1,0-0.22-0.16-0.18h0.11l0.29,0,0.55-.07c0.42-.09.67-0.09,0.94-0.15a6.15,6.15,0,0,0,.76-0.23,1.44,1.44,0,0,0,.47-0.22,0.6,0.6,0,0,1,.13-0.08l0.09-.06,0.07-.08,0,0a0.29,0.29,0,0,1,0,.07,0.84,0.84,0,0,0-.08.25,1.7,1.7,0,0,1,0,.25,1.37,1.37,0,0,0,0,.5,2.15,2.15,0,0,1,0-.53c0-.15,0-0.18,0-0.3a0.87,0.87,0,0,1,.06-0.17,0.07,0.07,0,0,0,0-.05,1.72,1.72,0,0,0-.16,1,2.08,2.08,0,0,0,0,.36,5.76,5.76,0,0,0,0,.59,4.84,4.84,0,0,0,.12.6l0.09,0.3,0.09,0.41,0.13,0.54a1,1,0,0,1-.11.14l-1.12,1.15,0.31-.16,0.62-.28a1.24,1.24,0,0,1,.54-0.14,0.64,0.64,0,0,1,0,.35,0.31,0.31,0,0,1,0,.1,0.68,0.68,0,0,1-.12.12,3.68,3.68,0,0,1-.37.22c-0.16.08-.33,0.16-0.53,0.28-0.76.4-1.65,1-1.53,1.83l0.55-.44c0.33-.26.76-0.59,1.15-0.86,0.2-.14.39-0.28,0.54-0.37l0.23-.15,0.15-.09,0.2-.12,0.13,0.38V293.1l-0.19-.57a10.33,10.33,0,0,1-.68-2.19,5.89,5.89,0,0,1-.21-0.91c0-.3,0-0.69-0.08-0.85a2.19,2.19,0,0,1,0-.67,0.88,0.88,0,0,1,.07-0.36l0-.08h0v0c0-.07,0,0-0.08.08l-0.09.05-0.19.12a1.42,1.42,0,0,1-.43.17,3.7,3.7,0,0,1-1.22.29,7.59,7.59,0,0,1-1.33.17c0.23,0,.27,0,0.67-0.05a8.86,8.86,0,0,0,2.07-.46l-0.21.06-0.33.12a3.45,3.45,0,0,1-.66.14c-0.18,0-.51.09-0.78,0.12a7.45,7.45,0,0,1-.82.07c-0.47,0-1.16,0-1.75,0l-0.86,0-0.21,0s0,0,0,0h0l2.73-5.3c-2.64,2.65.92,2-2.51,5.31A4.51,4.51,0,0,1,414.78,287.52Z"/><path class="cls-1" d="M408.65,288.77l-0.76,2.62-3.17,2.14c0.31,0.43-1.55,2.53.19,1.68a6.14,6.14,0,0,1,1.16-1.22c0.41,1.14-3.51,3.67-1.91,3.83,2.11-2.15,2.62-2.26,3.45-4.15a24.43,24.43,0,0,1,5.14-3.27c0.52-.66.16-1.26,0.87-2l-0.51.49-1.18-1.24a7.18,7.18,0,0,1-1.89,1.87l2.14-4.39c-2.12-.31-4.88,3.22-6.65,3.83C408.11,288.63,404.65,290.58,408.65,288.77Z"/><path class="cls-1" d="M413.61,288.36l0.08-.07Z"/><path class="cls-1" d="M182.89,482a1.48,1.48,0,0,0-1.23-.89l0.83,1.48c0.48,0.89,1.2,2.05,1.91,3.21l1.95,3.2,0.73,1.19,0.34,0.5a3,3,0,0,0-.17-0.9c-0.09-.38-0.21-0.8-0.25-1.09-0.1-.6-0.06-0.93.6-0.11-0.06-1.06-1.89-3.25-2.62-3.29l1,0.32c-2.05-1.69-1.43-4-.16-2.89l-0.12-.17s-0.4-.26-1-0.66l-2.16-1.49-3.16-2.2C180.46,480.49,181.36,479.33,182.89,482Z"/><path class="cls-1" d="M86.8,286.14c0.66,1.24.87,1.33,1,1.12A6.93,6.93,0,0,0,86.8,286.14Z"/><path class="cls-1" d="M177.91,477.13L176,475.7A8,8,0,0,0,177.91,477.13Z"/><path class="cls-1" d="M199.06,481.65a0.3,0.3,0,0,0,.14-0.11,1.74,1.74,0,0,1-.44-0.2l-0.46-.25v0A4.58,4.58,0,0,0,199.06,481.65Z"/><path class="cls-1" d="M153.81,434.42l-0.34-.61A4.87,4.87,0,0,0,153.81,434.42Z"/><path class="cls-1" d="M205.43,479.43a8.22,8.22,0,0,1-.05.84c0,0.45-.15,1-0.15,1,0-.78-0.12-0.38,0-1.33l-0.07.37a2.29,2.29,0,0,0-.05.51s0.07-.09.07-0.09l-0.08.84-0.08.62c-0.05.38-.09,0.72-0.15,1a1.87,1.87,0,0,1-.72,1.43c0.14,0.88.35,1.16,0.51,1.08a1.6,1.6,0,0,0,.43-1.13c0.08-.24.14-0.38,0.2-0.54,0,0,.15-0.93.22-1.77s0.07-1.59.07-1.59l0-.63Z"/><path class="cls-1" d="M124,340.87h0.12A0.11,0.11,0,0,0,124,340.87Z"/><path class="cls-1" d="M124.64,340.81l-0.49,0C124.47,341,125.14,341.7,124.64,340.81Z"/><path class="cls-1" d="M179.08,477.4a1.9,1.9,0,0,1-1.17-.27l0.73,0.53,0.74,0.52C179.28,478,179.18,477.68,179.08,477.4Z"/><path class="cls-1" d="M183.55,479.12l1.07,1.7c0.53,0.85,1.08,1.7,1.08,1.7l1.39,0.9C186,482.26,185,480.78,183.55,479.12Z"/><path class="cls-1" d="M155.51,440.55c-3.45-7.55,2.31,1.23,1.18-2.43-1.08-2-2.1-2.48-2.89-3.7,3.17,5.78-2.73.18,0.25,6.12-1.68-.32-3.29-3.8-3.8-6,0.27-2.87,1.78,1.66,3.24,1.67-1.23-2.36-1.28-1.83-2.42-2.57-1.33-4-4.87-7.26-4.09-10.24-1.44-2.62-2-2.18-3.29-3.47-1.47.26,1,4.36,0.4,5.82,0-.26.08-0.76,0.32-0.72l0.72,2.49c-0.48-2.46,1.48-.25,2.09.91,0.4,0.87,1.2,2.59.72,2.51l-0.85-1.21c0.3,1.89,2.58,3.37,2.62,5.51-0.26.22-.7-0.41-0.93-0.43,1.79,1.66,2.54,3.64,4.5,6.41l-2.08-1.2c2.51,1.81,4.44,7.49,5.36,11.67,0-.52-0.14-1.36.32-1,1.29,2.11,1.15,4.22,0,3.48,1,0.86,1.76,3.06,2.57,5.35s1.77,4.67,3.17,5.84l2.05,1.66,4.59,3.61,2.44,1.9,2.18,1.63L176,475.7a8.66,8.66,0,0,1-1.19-1.41c0.48-1.81,0-2.38,2.19-.81-1.67-1.78-2.22-.5-3.84-3.66,1.19,1,2.64.61,1.28-2.48-4.88-7-10.45-10.6-15.34-17.09,0.78-.66-2-6.22-2.89-9,1.42,0.64,2.54,2.55,3.67,4.58l-2.15-5.36Z"/><path class="cls-1" d="M166.37,457.12a3.58,3.58,0,0,0-.1-0.67A1.47,1.47,0,0,0,166.37,457.12Z"/><path class="cls-1" d="M160.1,446.45a0.22,0.22,0,0,0,.11,0l-0.36-.64Z"/><path class="cls-1" d="M180.1,474.61c0.48,0.31.72,0.6,1.2,0.91-0.23-.23-0.47-0.53-0.72-0.82S180.11,474.36,180.1,474.61Z"/><path class="cls-1" d="M179.37,476.91l-0.48,0c0.06,0.21.12,0.35,0.19,0.54A0.37,0.37,0,0,0,179.37,476.91Z"/><path class="cls-1" d="M151.35,408.18l-0.51-.63A1.15,1.15,0,0,0,151.35,408.18Z"/><path class="cls-1" d="M153.45,431.42c1.2,2.61,1.48-.25,3.06,3.49l-0.38-1.13c1.7,2.44,3.45,7.28,4.87,10.45-0.69-.13.2,2.22-0.79,2.21,1.15,2.1,2.27,4.19,3.63,4.94,0.33,1.48,2,3.2,2.43,5.07,0.17-1,2.78,1.68.29-2.22,0.22,0.31.24,0,.46,0.34-0.51-3-2.2-3.55-3.22-5.86-0.11-1.6,1.79,1.92,1.41.52-1.73-2.7-3.36-9.34-5.12-8.35-1-2.05-.75-2.52-0.67-3.3-3.41-2.5-4.36-12.72-6.89-11.61a24,24,0,0,0,2.68,4.72Z"/><path class="cls-1" d="M177.72,470.36c-0.07-.16-0.19-0.37-0.24-0.51C177.55,470,177.63,470.19,177.72,470.36Z"/><path class="cls-1" d="M196.56,513.87s-0.45.16-.91,0.3-0.94.26-.94,0.26c-1.89-2.22-3.49-4.15-4.9-5.91l-2-2.53c-0.61-.85-1.17-1.73-1.74-2.56l-3.4-5.12-1.88-2.79-0.51-.75-0.25-.38-0.2-.33L179.16,493c0-.54.49,0,0.76,0.32-1.23-1.85-2.68-4.25-4-6.5a32.44,32.44,0,0,0-3.76-5.55c-0.65-1.24-1.84-4.76-.72-3.78a7.43,7.43,0,0,1-1.26-1.86c0.48-.48,1,1.46,1.47,1.25-0.25-.57-0.25-0.84-0.49-0.87,1,0.66,1.46-2,3.65,2.31-0.47,2.37-1.71-2.87-2.67-1.12,0.74,1.43,1.22,1,1.46,1,0.91,1.82.52,2,.13,2.06,0.84,0.44,1.48,3,2.7,3.61,2.07,3.42-1.2.43,0.1,2.71l2.22,0.45,2,3.9a10.25,10.25,0,0,0,1.19,1.38,3.55,3.55,0,0,0,1,.78,0.82,0.82,0,0,0,1-.38c0.53-.6,1.28-1,4.39,2.77-0.68-.21-0.74.74-0.25,2.39a22.73,22.73,0,0,0,1.12,2.89c0.25,0.53.51,1.11,0.82,1.65s0.66,1.07,1,1.6c-0.46-.59-1.09-1.17-1.72-1.94l-2.09-2.46a33.11,33.11,0,0,1-3.94-5.54c1.1,2.77,0,1.19-1.43-.76l-0.42-.64-0.33-.47a6,6,0,0,0-.59-0.72c-0.36-.36-0.64-0.41-0.72.2a8.32,8.32,0,0,1,1.17,1.11c0.43,0.54,1.08,1.4,1.7,2.22a49.09,49.09,0,0,1,3.34,5.22l-0.82-.92a23.44,23.44,0,0,0,3.68,4.23,20,20,0,0,1,4.22,5c1.65,2,1.17,2.17.72,2.24C195.31,512.22,196.66,513.4,196.56,513.87Zm-3.79-4.24-2.17-3A11.61,11.61,0,0,0,192.77,509.63Z"/><path class="cls-1" d="M385.48,308.77l0.59-.33A1.93,1.93,0,0,0,385.48,308.77Z"/><path class="cls-1" d="M246.13,443.85L247,443A8.6,8.6,0,0,0,246.13,443.85Z"/><path class="cls-1" d="M261.43,419.18l1-1.62A5.43,5.43,0,0,0,261.43,419.18Z"/><path class="cls-1" d="M374,318.64l-0.05,0c-0.06.09-.09,0.17-0.16,0.26Z"/><path class="cls-1" d="M304.22,381.06a4.38,4.38,0,0,0,1-.46A1.43,1.43,0,0,0,304.22,381.06Z"/><path class="cls-1" d="M261.25,419.48l0.1-.06,0.08-.24Z"/><path class="cls-1" d="M234,449.82c-0.14.24-.28,0.45-0.42,0.71A2.92,2.92,0,0,0,234,449.82Z"/><path class="cls-1" d="M238.8,451.71a4.84,4.84,0,0,0-.41.7Z"/><path class="cls-1" d="M208.29,481.33l-0.16.56A0.82,0.82,0,0,0,208.29,481.33Z"/><path class="cls-1" d="M234.94,454.31a1.91,1.91,0,0,0,0,.35C235.06,454.45,235.06,454.3,234.94,454.31Z"/><path class="cls-1" d="M397,305.54l-0.07.07,0.1,0.18Z"/><path class="cls-1" d="M398.53,301l1-1.08A6.17,6.17,0,0,0,398.53,301Z"/><path class="cls-1" d="M323.88,365.71c0.5-.14,1.46-0.66,1.3-0.11C325.55,364.74,324.92,364.16,323.88,365.71Z"/><path class="cls-1" d="M397.64,319a4.78,4.78,0,0,1,.34-1C397.66,318.5,397.38,319,397.64,319Z"/><path class="cls-1" d="M398,317.91c0.15-.29.32-0.6,0.45-0.89A7,7,0,0,0,398,317.91Z"/><path class="cls-1" d="M325.43,383.76a0.85,0.85,0,0,0-.54.19A0.39,0.39,0,0,0,325.43,383.76Z"/><path class="cls-1" d="M400.67,299.31c-0.06-.48,4.32-5.38,0-2-0.66-1.1,2.3-2.72,3.23-3.89-1,.46-0.11-1-0.65-1.09a8.44,8.44,0,0,1-1.86,2.11c-0.79-.09.35-1.55,1.58-2.3-1.77.62,1.06-2.19-1.17-1-3.79,3.73-6.3,6.56-7.95,10.36,2.09-2.19,4.42-4.67,6.62-5.9l-0.09,1.51c-2.74,1.09-3.59,2.75-5.75,4.47l5.07-3.58c2.78-1.19,1.45.23-.16,1.86A1.88,1.88,0,0,1,400.67,299.31Z"/><path class="cls-1" d="M403.71,309.27l0.1,0a1.32,1.32,0,0,0,.13-0.25Z"/><path class="cls-1" d="M223.54,497.37l-0.28.94C223.61,497.63,223.66,497.38,223.54,497.37Z"/><path class="cls-1" d="M397.51,307.65h0S397.48,307.69,397.51,307.65Z"/><path class="cls-1" d="M232.86,486.74a0.58,0.58,0,0,1,0,.11A0.28,0.28,0,0,0,232.86,486.74Z"/><path class="cls-1" d="M217.5,468.65a0.36,0.36,0,0,0-.17,0C217.19,468.87,217.32,468.8,217.5,468.65Z"/><path class="cls-1" d="M232.79,486.67a0.2,0.2,0,0,1,.07.07A0.11,0.11,0,0,0,232.79,486.67Z"/><path class="cls-1" d="M272.49,436.83a3,3,0,0,0-.62.12C271.86,437.11,272,437.1,272.49,436.83Z"/><path class="cls-1" d="M262.75,444.94l-0.24.09Z"/><path class="cls-1" d="M318.32,364.26a10.37,10.37,0,0,0-1,1.08A7.1,7.1,0,0,0,318.32,364.26Z"/><path class="cls-1" d="M232.89,486.85a2.69,2.69,0,0,1-.12.72A2.25,2.25,0,0,0,232.89,486.85Z"/><path class="cls-1" d="M281.73,419.13l-0.18.36,0.2-.13Z"/><path class="cls-1" d="M286.89,415a2.14,2.14,0,0,0-.05.58c1.31-2,4.67-4.75,4.19-5.92-0.53.59-3.9,3.08-3.9,2.1-0.93,1.38-3.2,2.55-3.68,3.32,2.33-1.49.9,0.47-.08,2-1.39.95-.45-0.87-1.6,0l-2.56,2.84,1.2-1.15,1.21-1.14,0.1,1.5,0.16-.32C285.43,414.41,283.39,419.6,286.89,415Z"/><path class="cls-1" d="M286.83,415.54a3.71,3.71,0,0,0-.43.84A1.27,1.27,0,0,0,286.83,415.54Z"/><path class="cls-1" d="M304.22,400.44c0.18-.23.36-0.49,0.58-0.83Z"/><path class="cls-1" d="M188.41,486a3.6,3.6,0,0,0,.46,1.76c0.35,0.8.95,1.6,1.26,1.3-0.28-.48-0.54-1-0.76-1.45l-0.65-1.35Z"/><path class="cls-1" d="M345.7,353.29a10.25,10.25,0,0,0-.82.74,1.85,1.85,0,0,0-.06.24A3,3,0,0,0,345.7,353.29Z"/><path class="cls-1" d="M287.55,410.71a2.13,2.13,0,0,0-.42,1A2.11,2.11,0,0,0,287.55,410.71Z"/><path class="cls-1" d="M347.24,354.64a2.84,2.84,0,0,1,1.55-.16,15.74,15.74,0,0,0,1.48-2.21A10.76,10.76,0,0,1,347.24,354.64Z"/><path class="cls-1" d="M350.32,352.2l0,0.06Z"/><path class="cls-1" d="M187.7,484.08q-0.31-.31-0.61-0.66l0.43,0.27-1-2.08a7.81,7.81,0,0,1-.58-0.75,0.55,0.55,0,0,0,.35.18l-0.27-.68c-1.63-1.14-4.47-4.74-5.49-5.68a22.08,22.08,0,0,1-2.87-4.33c0.56,1.1,1.47,2.46,1.68,1.8-0.35-1.22-.34-2.27-0.63-3.41a8.6,8.6,0,0,0-2.34-4l1.13,2.24-4.21-4.25c-0.15-2.13,2.09,2.14,3.06,2.53-2.83-3.53-2-7.93-4.42-9.07,0.76-.67,2-1.78.78-4.35-0.17,2.35-1.36-1.27-1.75.77-0.92-.68-1-3.07-1.73-2.92l0.48,0.08c-0.58-5.1-3.41-5.61-5-7.22-2.68-5.24-3.15-8-5.16-12.31a3.84,3.84,0,0,0,.88-4.06c-1.16-.48-3.22-4.3-4.43-4.26,0.89,3.34,2,2.21,3,4-0.43,2-1,.6-0.77,3-0.31-1.91-3.86-7.59-3.65-9.91l0.43,0.61c-0.66-3.28,1.69-5-2.06-9.31l-1.67-2.11a1.23,1.23,0,0,0,.4,0c-1.62-3.94,0-3.41-2.84-7.28,0.23,0.29.24,0,.47,0.34-0.56-2.69-2.89-4.58-4-6.29,0.32-1.53,1-.14,1.91.25a21.48,21.48,0,0,0-3.7-6,34.48,34.48,0,0,0-4.18-4.24l-0.94-2.94c1.19,1.4,3.12,2.88,3.36,2.13-1-1.39-1.2-.89-2.16-3.07a10.55,10.55,0,0,1,2.89,1.31c-1.43-4.81-2.41,0-2.4-3.87a2.47,2.47,0,0,0-2.64-1.53l-0.52-2.9c-1,.18-2.68-2.81-3.9-4.71-0.48,0,0,2.07.74,2.65-0.73.21-2.17-1.72-2.93-3.07,1.42-1.45-5.24-8.65-2.34-8.2-4-5.71-9.08-14-12.08-17.62-0.29-1.58-1.81-4.27-.09-3.12-2.79-4.85-5.94-6.39-8.23-11.5,0-.52,1.25,2.19,1.72,1.69-2.47-2.79-2.51-6.18-5.67-10.88a1.43,1.43,0,0,0,1.21.89c-0.25.25-1.68-1.72-2.65-2.86-0.24-.8.72,0.86,0.72,0.33-4.31-10-10.43-16.29-14.76-26.4,1.23,2.88,2.88,3.43,3.38,3.24l-1.2-2.8c-1.06-.82-2-2.91-3.18-4.49,0.14-.31,0-1.28.67-0.51-0.5-3.05-1.91-5-3.47-7.13a23.42,23.42,0,0,1-4-8.14l2.71,3.85,1.85,2.61c0.5,0.71.85,1.17,0.85,1.17s0-.59.05-1.19l0.07-1.19,1.2,1.64L89,280c-0.22-2.39-2.36-3.75-1.55-4.34,0.42,0.37.72,1.51,1.23,1.37-0.36-2.22-1.1-2.14-1.83-3.66a18,18,0,0,1,2.38,3.35c0.73,1.32,1.58,2.74,2.3,4.21s1.44,2.95,2.08,4.32,1.34,2.6,1.92,3.61c0.43,0.6-.69-0.38-0.93-0.41,0.82,1.7.7,3,2,5,1.38,1,.1-1.28-0.27-2.39,0.73-.15.93,0.4,1.55,1.54-0.79.67,2.75,6.59,2.39,8.64,3.41,6.1,1.76-2.11,4.45,4.14l-0.08,2.32c1.26,1.57,2.72,3.37,4,5.31a48.47,48.47,0,0,1,3.56,6l-0.49-.81c-0.72-.32-0.48.73-0.47,1.25,1.23,3.2,3.87,5.22,3.92,7.55,2.94,2.79,6.9,8,9.66,11.51-0.68,1.77-4-4.39-5.69-5.54l2,3.5a8.65,8.65,0,0,0-3.71-3.62c1.51,3.22,3.23,3.58,5.22,6.31-0.48,0-.47.49,0.3,1.83l1.07-.11a0.93,0.93,0,0,0,.15.7l3.52,4.88c-0.27-1.31.43-1.79-.33-3.13-0.22.76-1-.32-1.74-1.66,1.23,0.85-.29-1.58.19-1.81a78,78,0,0,0,4.81,7.56l-0.45,1c1.28,2.68,3.29,5.15,4.06,7l-0.73-.31c1.55,3.21,3.77,6,4.58,9.18,2.47,2.26,5.15,5.38,7.37,7.15,0.86,0.32,1.65,2.59,2.62,5.06s2.13,5.15,3.67,6.41c0,0.28-1.9-1.85-2.88-2.72,1,2.21,3.11,3.29,2.37,4.51-2.1-5-.74.71-2.15-1.31a25.31,25.31,0,0,0,3.53,5.44c-1.87-3.66,2.18.55-.19-2.93a28.18,28.18,0,0,1,6,9.94c-0.5.19-.49,0.72-0.12,2.12l1.17,0.74c0.61,1.69-2.25-2.79-1,.62,2.75,2.86,3.82,10.5,6.68,11,0.23,3-3-4.53-2.41-.18-1.79-1.92-2.22-5.44-3.66-5.7,1.28,2.08-.58,1.22,0,2.65l1.76,2.17-0.19-.56c2.86,3.7,5.12,10.48,7.52,15.69,3,4,5.92,6.38,8.07,11.73-1.33-1.28,1.27,4.66-1.38,1.86,0.49,2.7,2.23,4.81,2.73,4.65a20,20,0,0,1-.73-2.74,10.51,10.51,0,0,1,2.45,5.1c-0.2-.55-0.22-0.3-0.45-0.33,0.75,2.72,1.13,1,2.2,2.68-0.56,1,1.6,4.15,2,6l2.28,1.85c-1.37-1,.79,2.44.3,3.13,1.37,1.44,3,2.39,4.07,5.07-0.94-.85.64,2.59-0.09,3,1.54,4.77,5.87,6,7.1,10.58-0.24,0-1.21-.53-0.7.73a36.2,36.2,0,0,1,2.29,3.33l0,0,0.05,0a2.65,2.65,0,0,0,.44.5,0.26,0.26,0,0,0,.3,0l0.26,0.12,0.21,0,0.41,0,0.77,0a6.21,6.21,0,0,1,1.55.26,0.86,0.86,0,0,0-.6-1.42,8.71,8.71,0,0,1-1,.26,0.75,0.75,0,0,0,.23-0.41,0.65,0.65,0,0,0-.06-0.44,3.41,3.41,0,0,0-.71-1,3.59,3.59,0,0,1-1.26-1.6,6.2,6.2,0,0,1,2,1.54c0.33,0.34.75,0.86,0.93,1l0.4,0.25a1.51,1.51,0,0,0,1.44.46,12.47,12.47,0,0,0,.37-1.73,0.82,0.82,0,0,0,0-.38c0-.08-0.41-0.7-0.7-1.16l-0.91-1.42,0.51,2-1.22-2L202,478.6c-1-2-2.23-3.45-3.17-5.25,1.18,2,.53,3.47,0,2.24-0.51-2.74-1.9-2.08-2.86-3.87,0.47,1,1.18,2.32.23,1.77a20.71,20.71,0,0,0-1.5-4.31,15.51,15.51,0,0,1-1.22-4.16c-1.24,1.16-2.27-4-3.68-3.89l0.64,1.6L188,459.9c-0.3-3.6,2.53,2.06,1.11-2.92-1.9-4.31-3.37-3.5-5.08-6.83,1.4,0.71,3.4,3,4.65,5.76l-0.35-1.84c0.89,0.65,2.62,4.37,3.47,6.24-2.48-2.56.37,1.6,0.34,3.33,1-.18-0.17-2,1.68-0.11a27.28,27.28,0,0,1-2.38-5.29,11.09,11.09,0,0,0,2,3.27,10.47,10.47,0,0,0,2,1.59,7.46,7.46,0,0,1,3.51,4.3c-1.63-2.06-.75,1.43-1,1.93,0.7,1,2.11,3.07,2.81,3.84l0.72-1.48a6.73,6.73,0,0,1,1.33,3.7,6.42,6.42,0,0,0,.53,1.84c0.26,0.55.94,1.52,1.16,1.21s0.52,0,.06-0.79a4.28,4.28,0,0,1-.66-1q0.32,0.37.58,0.72l0.44,0.61,0.09,0.13h0l0,0a4.48,4.48,0,0,0-.39.51,4.32,4.32,0,0,0-.72,2.27c0.22-.41.66-1.27,1-2a6.34,6.34,0,0,1-.88,1.94c0,0.61.46,0.2,0.65-.1a2,2,0,0,1,.21-1.13,4.6,4.6,0,0,0,.29-1,4,4,0,0,1-.31,1.38c0,0.19,0,.76,0,1.09s0.1,0.4.19-.5a5.19,5.19,0,0,1-.45,1.93,0.76,0.76,0,0,1-.88.57l0.11,0.27,0.12,0.27c-0.34.32-.35,0.07-0.58-0.47a5.59,5.59,0,0,1-.57,2.69c0-.22.1-0.21,0.1-0.42-0.22-.68-0.56-0.74-0.69-0.14-0.85.81,0.17,1.48,0.24,2.56a8.4,8.4,0,0,0,.7.51,4.93,4.93,0,0,0,1.32-1.47,4.2,4.2,0,0,0,.61-1.7l0.2-1.12c0.45-1.19.73-.17,1.38-0.07l-0.08-.66-0.1-.65a0.76,0.76,0,0,1,.73-0.24,1.34,1.34,0,0,1,.59,1.25c-0.17-.31-0.21-0.14-0.36,0a1.41,1.41,0,0,1,0,.43l0,0.22a19,19,0,0,0,.81-1.82c-0.12,1.24,0,1.78.39,2.08a2.73,2.73,0,0,1,1.3,1.37l0.69-1.26,0.63-1.17c-0.67.36-.83,0.21-0.79-0.1a3.94,3.94,0,0,1,.12-0.5l0-.12a2.42,2.42,0,0,1,.13-0.22l0.25-.42c0.94,0.41,2.67-3.09,3.94-4.34L215,478a23.92,23.92,0,0,0,4.3-5c-0.31-.15.21-3.19,0.32-4.78-2.59,2.42-1.51.58-2.15,0.39a2,2,0,0,0,.68-0.87c0.12-.56-0.73.27-1,0.13-2.11,3.13-4.55,6.13-4.52,8.18,1.22-.46.84-1.87,2-2.57-0.52,2-2.23,3.69-4.29,6l-1.29.23-0.27.42a2.53,2.53,0,0,0-.38.67,3,3,0,0,1-.1.46,2.24,2.24,0,0,0-.39-0.82,0.68,0.68,0,0,1-.18-0.38,8.73,8.73,0,0,1,1-1.51,0.83,0.83,0,0,0-.7.34,4.9,4.9,0,0,0-.39.46l-0.21.28-0.1.15v0a0.48,0.48,0,0,1-.24.52l0.27,0.53,0.24,0.55a0.87,0.87,0,0,0-.59-0.37,0.92,0.92,0,0,1-.39-0.86,4.78,4.78,0,0,0,0-.64,0.91,0.91,0,0,0-.15-0.51s-0.57-.47-0.57-0.47v-0.05s0,0,0,0h0l0.24-.31,1.3-1.66-0.23,1.12c3.87-5.61,2.95-.09,6.44-6.08,0.41-2.47,1.79-4.32,4.8-7.24-1.79,2.46.49,0.85,0.31,2.2,2.46-1.94,2.33-3.44,3-5,1-.13,1.84-0.17-0.06,1.83,0.86,1.22,2.21-2.88,3.51-2.07,6-6.83,1.19-8.73,9.77-15.37l0.18,0.7c4-5.51,7.13-8,11.06-12.87l4.49-2.57c-0.58,1-1.75,3.93-.26,3.42-2.77.7-4.12,2.93-6.47,4.28,0.12,0.47,1-.11,1.54-0.28-1.06,1.14-2.1,1.25-3.29,3,0.3,0.14,2.1-1.26,1.1.12l-2.59,1.43c-2.18,3.09.46,2.91-2.83,5.88a7.79,7.79,0,0,1,1.12-4.65c-1.49,1.37,1.42-2.34-.19-1.32-1,3-2.7,3.36-4.7,6.75a3.32,3.32,0,0,1,.65-1.46l-4.16,3.79c1.47-.54-2.46,4-1.3,4.35,4.3-4.16,2.64-3.29,7.67-7.9a12.09,12.09,0,0,0-2,5.73,0.73,0.73,0,0,0-.32.2c0.12,1.5,1,.91,2.45,2.2,1.07-3.2,3.29-4,5.16-7.2-0.31-1.21-2.41.67-3.43,2.2l1.65-2.84-0.07.79,5.75-5.81a5,5,0,0,0-1.11,2.88,14.45,14.45,0,0,1,2.61-2c-0.89-.5-1.31-1.08-0.61-1.83,3.71-3.72,6.38-5.23,8.52-5.88l0.36-.5c-1.35,0,1.19-4,1.53-5.88,0.72,0.78,2.3-1.55,3.73-2.29-0.34-1.42-2.29-1.78-4.26-1.1-1.61,3.36-.54,2.22-0.53,4.52l-3.11,4.89,0.16-1.59c-2.25,1.79-3.17,4.66-4,3.66,0.41-1.67,2.47-3.14,2.87-4.81L250.72,435c1.35-3.27,2-.44,4.14-4-1.79.36,0.19-.32,0.84-2.07-1.49.51-4.6,5.4-5.11,3.28,0.85-2.08,6.35-3.71,6.92-7l0.06,0.24a12.18,12.18,0,0,0,3.79-6.12c1.63-.86,2.68-3.17,3.93-4.58l0.35,0.4,1.67-2.08c-0.18,1.58-2.17,2.24-3.64,4l0.91,0.47c-2.66,1.11-2.58,3.6-3.37,5.66,1.43-2.74,5.95-5.92,5-7.75l2-.65,0.35-.89c1.48-.48,1.36,1.34-0.3,3.42-0.5.16-.74,0.25-0.8,0a9.87,9.87,0,0,1-3,4.54l0.72-1.51c-2.6,2.64-4.66,5.34-4.82,6.94,4-3.61,7.66-7.36,11.09-11-0.58-2.61-.27-4.74-1.23-6.72,2.07-2.7,5.08-6.19,7.66-7.77l0.1,0.48a10.9,10.9,0,0,0,2.59-2.86c1.44-.71.06,1.5,1,1l2.88-4c0.46,0.87-2.38,3.79-3.67,5.22,0.2-.32.6-1,0.35-0.87-1.84,1.35-3.62,5.46-5.28,5.22-0.6,1,.84-2.29-1.8.32-2.1,1.43-1.79,2.85-1.68,3.32,0.35,0.4,3.24-2.29,2.74-.87,1.3-1.43,1.34-2.46,3.43-3.88-1.29,1.42-2.33,4-3.63,4.19-1.93,3.4.24,4.73,1.58,3.54-0.86-.23,4.11-5.61-0.07-2.76,0.83-2.29,3.67-5.22,5.25-7.75l0.05,0.23,2.34-2.77c-0.16.56-.75,1.51-0.4,1.9l2.49-4.59c-1.3,2.68,1.7-.78,2.91-1.4-0.2-.95.76-2.76-0.89-1.75-1.91,1.09-.56,1.18-1.87,2.59l1-2.83,0.25-.08,0.41-1.9c2.67-2.58.58,2.86,3.21-1.24l-1.45-.56c4-3.76,10.13-7.66,12.46-10.83-0.2,1.33.38,2.58,2,2.1a44,44,0,0,0-5.33,5.2c-0.5.15,0.92-3.32,3-4.93-2.56-.77-3.67,5.62-5.55,4.18-5.28,4.14-1.89,5.13-6.85,8.16,0.7,0.8-.76,1.5-0.31,2.36,2.4,0,5.27-5.39,8.28-7.57a3,3,0,0,0-.55,1.17,13.71,13.71,0,0,0,3.67-4.15l-0.25.08c1.54-3,2-.83,3.62-1.82,0.41-.62,2.48-2.24,1.64-2.49l3.13-1.67-0.94-.72c1.32-1.4,2.16-1.14,2.9-2.87l-0.68-.81-3.66,3.09c1.48-1.94-.23-1.19,1.51-3.21-1.31,2.91,1.91-1.06,2.8-.56l1-1.8-0.16.55c1.47-.69,1-1.56,2.4-2.72-1.92,1.06-3.42,1.5-4.81,3.93a42.24,42.24,0,0,1,4-5.69c1.18-1.74,2.77-2.17,4.24-3.42-2.37,2.87,3.15,1.4-2.71,6a1,1,0,0,1,.67-0.69c-1.66-.29-3.11,3.17-3.89,4.66,0.84,0.26-.22,1.58,2.1-0.11-1,.31.49-2.93,2.88-4.34l0.81,1.52,3-2.59-0.21.31c1.81-.26,2.88-3.06,5.27-4.48,1-1.78,6.73-6.64,3.21-5.66,2.46-.94,3.12-3.34,4.9-5.33l-2.88,1.78c2-3.54,1.74-2.21,2.73-5.74,0.54,0.11,1.31-.09,1.17.69,3.89-3.55,9.68-8.35,11.05-11.41,2.78-2.46,4.53-1.41,7.84-5.5,0.65-.91-1.67-0.57,1.18-2.55,0.25-.07-1.61,3.15,1.12.46,1.16-2.79,5.24-3.77,7.14-7,1.7-.91,4-3.22,4.18-2-2.36,1.81-5.35,4.78-5.51,5.57-0.1-.73-2,1-0.65-0.84-3.85,2.44-1.76,2.4-5.09,4.73,0.07,0.49,2.27-.58,2.68-1.42,0.92,1-5.4,5.86-1.66,4.65,3.23-2.83,2.28-5.79,6-7.21-0.55,1.62-2.77,2.66-3.2,5l2.65-1.63,1-2.22,0,0.24c4.87-2.67,2.77-4.4,5.92-8.15-2.73,1.16-1.11-2.22-3.07-1.24,2.3-2.3,4.19-3.76,5.13-2.73-3.77,4.88.71,1.32-2.55,6.09,1-.24.35,2.39,2.93,0.28,2.14-3.24-1.6-.11.88-3,0.25-.06.5-0.12,0.54,0.12,0.81-1.68,1.68-1.13,2.72-3.11l-0.19.53c2.49-1.07,1.49-2.57,3.75-3.34-1.34-.18.56-1.61,1.18-3-1.94,1.19-3.83.89-7.11,3.87,0.13,1,.67,1.08-0.43,2.58l2.1-2c-0.38.51-.6,1-0.92,1.47l-2.35,1.51c2.25-2.75.47-2.34,1-4,2.65-1.85,1.85-1.92,3.54-3.05,0.63,1,6-2.56,9.27-4.42-0.46.34-1,.85-1.32,1.1-1.52,2.34,2-.47,2.33-0.29l1.08-1.73c-0.23.3-.43,0.84,0.31,0.43,1.87-1.89,1-2.68,2.84-4.57,0.58,0.37-.47,2.57,1,1.76,0.8,0.06,3.16,0,5.45-2.67a5.13,5.13,0,0,1,1.36-1.82,1.77,1.77,0,0,0-.23.34l2.23-1c-0.78,2.14-3.39,2.21-4.18,4.36l0.56,0.92a11.4,11.4,0,0,0-2.85,3.77c1.91-1.4,2.11-1.93,4-3.82,0.72,0.27-.37,1.86-0.53,2.08l-0.09-.71c-3,1.38-2.92,3.83-6,6.23-0.47.36-.25,0.06-0.29-0.18-1.71,2.87-5,3.86-6.4,6.91l0.39-1.08c-1.28,1.72-3.68,5.21-6.09,8.67l0.25,0.33c0.5-.12-0.65.89-1.38,1.32h0c-1.19,1.75-2.35,3.41-3.32,4.75a5.33,5.33,0,0,0,1.79-.9c0.15-.79,3.21-3,2.1-3.48,1.72-.67,3.21-3.22,4.44-3.75-2.22,1,.53-1.85.44-2.57,1,0,2.56-2.31,2.94-1.41,0.51-.12-1.27.29-1.64,1.36-1.26,2.26,3.86-2.36,2.12.26,2.48-3,6.45-6.19,8.92-9.42l-1.94,1.16c1.43-1,4.48-3.93,5-3.79-0.93.94-2.1,1.93-3.26,3.16,0.63,0.85,3.06-2.63,3.63-2.26l2.57-4.5L400,309.08c0.61-1.36,4.51-3.69,7.13-5.73-0.51,2.34-3.78,3.28-6.05,6-1.57,2.06,2.09,0,.5,1.86a4.31,4.31,0,0,0,2.2-2l0.89-.41c-0.77,2.39-4.6,5.28-6.28,8.2a1.55,1.55,0,0,0,.18-0.73A20.11,20.11,0,0,0,393,321a3.64,3.64,0,0,0,1.86-1.65c0.28,0.19-1.33,1.78-1.73,2.61,1.92-1.18.82,0.31,2-.45a14.09,14.09,0,0,1-3.24,3c-1,.23.12-1-0.45-1.38-1.11,1.49-2.76.87-4.27,3.19,2.84-2.13.23,1.68-.39,2.81l0.48-.36q-0.51,2-2.08,1.95c0.88-1.19,2.08-1.95,1.26-2.26a16.06,16.06,0,0,0-2.05,2.2l0.37-1.07-3.45,3.27a15.93,15.93,0,0,0-.22,3.76c-1.26.3-2.1,1.74-2.74,2.64l0.18-.55c-1.95,1-5.09,4.44-5,5.15-1.48.6,5.3-9.93-2.21-2.44-3,2.7-.57,3.1-1.82,5.14a0.22,0.22,0,0,0-.29-0.17c-1.39,1.09-1,1.75-1.88,3a5.56,5.56,0,0,0,2.28-2.06c0.15,1-2.74,2.43-3.31,3.81,0.45-2.1-2.82,1.95-2.26.56a14.76,14.76,0,0,0-5.93,6.95c-2.82.45-2.9,3-6.2,5.09a16.74,16.74,0,0,1,1.8-1.72c0.92-2.23-3.26,2.36-1.42-.62-0.42.61,0.32,0.42,0.76-.2,0.87-1,1.46-2.13.92-2.23l-2.89,1.51,0.64-.93-4.31,2.39c0,0.23.54,0.11,0.79,0-4.39,3.41-8.57,8.21-12.15,11.48,1.28,2.66-7.78,9.12-9.38,13.1,0.19-1.31-.39-2.73-1.26-2.69,0.53-.7,1-2.75,2.64-4,0.54,0.1,2.66-1.23,1.88.23,3.72-4-1.39-.37-0.94-2.24-4.2,4.4-5.58,8.08-7.85,11.24l-0.3-.17-1.62,2.47c1.81-1.53,2.84-.31.28,1.43l0.21-.31c-1.7.74-3.73,3.83-5.73,5.66l-0.65,2c-2,1.85-3.28.73-4.62,0.64-3.09,2.94-3.83,5.67-5.37,8.4-1.51.43-6.09,4.87-4.37,1.82-2.21,3.22,1.18,5.44-5,8.62l0.67-1.73c-2.14,2.31-4.52,5.32-6.68,8s-4.06,4.92-5.33,5.71c-0.27-3.46-7.32,3.9-9.93,3,0.64,0.17-.86,2-0.87,2.48a2.26,2.26,0,0,0-1.61,1.64c2-1.45.73,3.05,3.2-1.07-0.37,2.92-1.45,6.09-5.05,9.84l-0.72-.78,3-2.8c-0.85-.23.63-1.74,1-2.62-5.65,5.21-1.12-2.42-6.35,3.42,0,1,.11.47-1.08,2.15,0.63-.73.21-1.35-0.85-0.22L263,448.16c-3.15.82,2.24-4.1-.25-3.23,1.45-2.78,4.71-6.94,3.06-7.14-3.73,3.3-1.19,5-5.16,8.36l-0.8,0c-1,1.6-.47,2.44-0.74,3.55-0.3-.15-0.8,0-1.66.82-1.07,3.19-2.24,4.88-3.05,8,4.25-6.32,5.06-4.09,9.63-10.45-0.51,1.19-4,5.41-3.14,6.66l-0.73-.77a24,24,0,0,1-5,6.59l0.86-1.83c-2.28,3.61-5.89,4.1-6.82,7.74a10,10,0,0,0,1.84-2.17,28.57,28.57,0,0,1-4.7,5.5l-1.93,4.8c-0.36-.38-2.43,1.9-2.07.24-2.93,2.09-2.85,4.36-4,6-3.22,1.94,1.69-2.65.83-3.88-3.67,3.36-6.76,7.62-7.88,10.35,0.82-.62,1.28-0.87,1.44-0.66-0.35-.11-1.59,1.45-2.32,2.29l0,1c-1.56,1.09-1.7.63-1.06-.9-1.26,1.25-1.64,3.7-3.59,4.43,1.35-2.82,4.42-5.25,5.06-6.78a14.74,14.74,0,0,1-4.8,4.49,17.8,17.8,0,0,0-2.49,1.92l-0.34.33-0.49.52c-0.36.38-.7,0.78-1.07,1.22-0.73.85-1.52,1.83-2.4,3-0.27-.18.58-2.12-0.83-0.52-1.55,2-1.6,2.55-1.32,2.86s0.9,0.32.54,1.31a16.76,16.76,0,0,1,6.23-5.8l-0.38,1.3c-0.32-.08-2.13,1.95-2.82,2.31l0.2,1.48c-0.26-.65-1.25-0.36-2.37.41a13.59,13.59,0,0,0-3.39,3.51c2.6-1.6,2-1,3.31-.32a9.87,9.87,0,0,1-3.6,4.1c-1.12.79-2.19,1.53-3.9,4.52,0.22-.84,3.32-4.79.49-2.05-2.27,2.49-1.8,3.39-3.35,5.61a16.59,16.59,0,0,0,1.34-3.66,23.7,23.7,0,0,1,1.25-3.78,67.15,67.15,0,0,0,5-6.33l-3.32,2.46c3-3.63,1.7-3.73,1.79-4.42a11.88,11.88,0,0,0-3.91,5,11.49,11.49,0,0,1-2.65,4.44c-1.53,2.8,3.13-3.35.71,0.51-1.59,1.7-1.76,2.14-2,2.75a12.9,12.9,0,0,1-2.36,3.84l0.63-1.42a2.06,2.06,0,0,0-.83.59c-0.07.14-.14,0-0.2-0.08l-0.2-.22c-0.14-.14-0.27-0.27-0.41-0.39a17.56,17.56,0,0,1-1.79-1.59c-0.71-.63-0.48,1.11-0.77,2.14S199.2,518,196,514.07c0.4,0,.57-0.05.61-0.2a14,14,0,0,0,3.9-2.15,13.88,13.88,0,0,0,3-3.3A124.93,124.93,0,0,1,190.13,489c0.19-1.26,1.25-.31,2.22.74s1.94,2.29,2.07,1.79L195.2,493c0.19,0.38.41,0.75,0.57,1l0.27,0.46c-0.55.63-4-5.63-3.2-2l4.52,6a26.79,26.79,0,0,0,2.08,2.45,15.08,15.08,0,0,0,2.57,2c-0.38-1.87-1.5-3.05-2.74-4.52a16.14,16.14,0,0,1-3.3-5.18,10.63,10.63,0,0,0,2.39,2.73c-0.86-1.41-1.79-2.8-2.63-4.28l-2.51-4.49-0.76-.4c1.14,2.08,2,3.61,2.05,3.84a11.69,11.69,0,0,0-2.72-3.21c-0.92-.76-1.78-1.13-2.37-0.89l0.27,0.53-1-.83ZM91,291.83a1.44,1.44,0,0,0,.59.26A0.51,0.51,0,0,1,91,291.83ZM227.73,473.23c-3.06,3.21-6.24,6.38-9.15,9.49,6.92-4.18,11.87-7,3.44,2.63l-0.41.75a34.57,34.57,0,0,0,4.89-5.39c0.39-1.12,1.13-3.55,1.75-5.72a20.44,20.44,0,0,0,1-4.12c-1,.12-1.22,1.48-2.33,2.4Zm5.22,0.4c1.87-1.69,1.08-1.63,1-2.25l-1.61,2.09C232.62,473.31,232.87,473.3,233,473.63Zm0.5-2.47a1.82,1.82,0,0,1-.51.42Zm-32,29.49,0.17,0.16-1.08-1.54A6.7,6.7,0,0,0,201.41,500.65Zm3.12,4.85,0.42-1.82-0.54.57-0.14.14s-0.09.14-.14,0l-0.27-.38C204,504.71,204.05,505.94,204.53,505.5Zm13.07-10.73c0.17-1.85,2.77-4.95,1.84-5.79-0.11-.37-0.65.07-1.3,0.66l-2.09,2.26a1.27,1.27,0,0,1-.09.89c0.81-.7,1.52-1,1.72-0.1a2.36,2.36,0,0,0-1.94,2.12,5.12,5.12,0,0,1-1.62,3.17C213.8,499.71,217.13,495.86,217.6,494.77ZM367.19,336.31a7.36,7.36,0,0,0,1.05.05l-1.06,1.79c-2.83,2.16-6.13,2.76-7.44,6.07a6.91,6.91,0,0,1-3.54.68,18.56,18.56,0,0,1,1.61-1.18C362.89,336,362.85,342.3,367.19,336.31Zm-31.5,26.14a0.78,0.78,0,0,0,.17-0.55A66.55,66.55,0,0,1,324.31,377c1.24,0.08,4.49-2.07,6.07-3.06l-0.44,1.87-1.3.11-1.36,2.62c1.05,0,2.58-1.71,4-2.37,0-.23,2.6-4.47,3.13-5.87l-3.29,2.16c1-.51,4.48-4.25,5.77-5.85-0.33-.41-3.42,1.44-3,2.57-0.84-.27,2.07-3.08-0.35-1.91,1.6-2.72,5.62-5.5,7.51-6.76l1.17,0.69c2.14-1.31.13-2.28,2.77-3.73-2.44,2.64,1.42.63-.59,2.65,1-.26,1,1,3-1,0.55-2.89,2.93-1.27,3.53-3.92,1.46-.63-0.47,1.86,1.84,0,1.88-3,1.29-3.3.59-4.37-2.57,1.89-1.52,3.6-3.61,5.16L351,353.4l1.17-2.53a4.88,4.88,0,0,0-1.82,1.34,6.85,6.85,0,0,0,1.37-2.46c0.15-.47.3-0.89,0.44-1.28-2.17,2-4.1,3.71-4.79,3.64l-0.12-.72a4.23,4.23,0,0,0-2.33,2.64c-1.87,1.85-3.19,4.26-4.15,4.08l0.34-1.09C338.85,359.36,338.64,359.66,335.69,362.45Zm-75.39,74.2a9.14,9.14,0,0,0,4.79-.91c1.83-.92,4-2.71,7-6.13l-0.38.63c4.18-2.36,4.82-7.77,9.79-10.74-1.26,2.54-1.22,2.39-1.88,5.88l1.54-2.54c0.33,1.43,1.85-1.12,3.39-2.6l-0.27,2.35c-1.18.64-3.57,2.94-3.26,3.09,0.38-.64-4.33,1.91-5.94,4.21,0.91,0.47,4.65-4,4-1.05,1.1-2.13,2-1.66,3.41-3.64-1.1,2.14.57,1.34-.09,3.07l2.47-3.09c0.31,0.15-3.42,4.66-.33,3.15,0.71-1.5,4.08-4.1,3.39-4.88l0.3,0.16c2.22-2-.17-2,2.79-4.15-0.35-.4-1.1-0.16-1.92.85-0.6,1-.19,1.58-1.66,3.3-1.3.16,2-1.88-.13-1.73-1.06.07-3.7,4.72-3.69,2.44l2.2-2c-0.71-.79.82-2.28,0.17-2.83,1-1.57,3-2,3.64-3.92,0-1-1.8-.95.72-2.76,2.78-.62,7.45-5.88,9.16-7.89l1.14-2.11c-0.6-.32-3,3.19-2.6,1.54l2.35-2.73,0.09,0.48a12.6,12.6,0,0,0,2.05-2.89c-0.25,1.33-2.29,3-1.15,3.36,1.34-1,1.81-.94,2.76-2.19-0.18.3-.31,0.58-0.17,0.66,2.74-2.09,1.45-3.21,1.8-4.07,1.41-3.45-3.38,1.52-3.87.41l3.32-3.78c1.65-1.9,3.34-3.76,3.34-3.76-0.36.85-.72,1.71-0.17,1.81,2.11-1.37.64,0.57,3.07-1.9-1.23-.9,2.44-3.72,3.57-6.05,1.24-.36,1.5-0.44-0.27,1.33,0.89,0.49,3-2.12,3.92-2.89,0.32-.66,1.06-1.58,1.44-2.26-1.05.35-1.18-.38,0.08-2.2l-0.05-.24c-2.71,2.3-7.4,5.41-8.28,7.68l0.11-.79c-3.52,2.29-5.14,7.51-7.77,7.56-0.39-.64-0.7.47-1.4-0.33l-1.55,2.73,0.11-.78L298,397.39l0-.24c-1,2.41-1.84,4.32-2.47,5.85,0.32,0.33.54,0.31,0.2,1.13a5.12,5.12,0,0,1-1.26,1.55h0c-1,.81-2,1-3.31,1.88l3.26-3.5c-0.28-.82-1.16-1.11-3.18.19,0.65-.71.49-1.42-0.4-0.64,0.05,0.24-1.83,2.6-.59,2.21-3,3.47-9.59,7.3-13.29,13.32,2.77-4.22-3.5,2.16.07-2.06-3.55,1.93-1.39,3.25-4.23,6-0.56-.07,1.51-1.51,1.49-2.77-4.84,4.4-6.13,9.34-10.69,13.7l-0.89-.47Zm-7.58,10-2.23,3,0.27-.25-1.87,3.22c1.79-1.4,3.57-1.77,1.83.88-0.12-.47-1.1-0.12-0.54-1.09-1.84,1.16-5.36,4.19-3.46,4.29,1.68-3.92,2,.56,3.38-2.47-0.43,1.9-1.88,2.86-2.64,4.33,0.53-1.77-1.61-.93-3.58.67-0.56,1-2.71,3-3.62,4.63,1.1,0.12.44,1.64,2.57-.42a10.32,10.32,0,0,1-3.11,3.44c0.38-.66,1.16-1.71.86-1.86-1.42.35-2.34,1.44-3.12,1.79l-1.13,1.49a1.27,1.27,0,0,1,.53-0.13l-0.78,2.08c1.52-2.35,1.16-.68,1.53-0.3-0.74-.76-1.28,1.24-1.89,2l2.2-.8c-0.24,1.11-2.93,2.09-1.76,2.43a42.74,42.74,0,0,0,6.56-7.51l-1.71.62c2.5-3.73,2.91-1.08,6.23-4.79,0.81-2.06,5-5.59,3.9-6.73-0.06.79,3.13-1.35,3.75-3.1,0.19-2.39,3.94-6.72,2.28-5.89-1.07,1.12-1.89,3.19-3.42,3.48l1.8-2.42-1.91.92C254.52,447.5,253.89,447,252.72,446.61Zm-46,38.54h0l0,0v0Z"/><path class="cls-1" d="M398.42,304.5c0.42-.84,2.09-2.18,1.26-2.5C400.28,302.61,396.87,304.58,398.42,304.5Z"/><path class="cls-1" d="M400.91,303.47c0-.25-0.31-0.43.4-1.08l-1.87,1.88Z"/><path class="cls-1" d="M406.71,306.17a7.74,7.74,0,0,1,2.71-3.53c1.95,1.07-2.29,2.69-1.76,4.81,3.08-2.39,2.84-4.53,5.19-6.73C411.06,301.06,405.77,304.87,406.71,306.17Z"/><polygon class="cls-1" points="407.1 309.29 408.44 307.53 408.2 307.57 406.86 309.34 407.1 309.29"/><path class="cls-1" d="M359.71,326.82c-0.58-.35-1.17,1-1.61,1.64A4.63,4.63,0,0,0,359.71,326.82Z"/><path class="cls-1" d="M125.31,328.69l-4.32-7-4.22-7C119.17,318.75,121.33,322.5,125.31,328.69Z"/><path class="cls-1" d="M322.12,367.71c2.8-3.54,3.46-5.73,6.55-9.11-5.23,3.22-4.3,7-8.86,9.5Z"/><path class="cls-1" d="M319.66,362.88c1.38,0.37-1.5,3.43-.41,3.63,2-2.31.21-1.81,2.25-3.64h-1.85Z"/><polygon class="cls-1" points="348.25 363.6 347.71 364.98 348.34 364.07 348.25 363.6"/><polygon class="cls-1" points="305.77 377.93 305.93 377.38 304.05 378.68 305.77 377.93"/><path class="cls-1" d="M306.08,376.83l-0.16.55Z"/><polygon class="cls-1" points="348.79 366.69 350.43 365.52 350.76 364.43 348.79 366.69"/><path class="cls-1" d="M331.48,374.11l1-1.53C332.3,372.88,330.18,374.22,331.48,374.11Z"/><polygon class="cls-1" points="295.65 387.24 294.44 389.13 294.68 389.06 295.89 387.17 295.65 387.24"/><path class="cls-1" d="M323.76,386.28c1.54-.19-2.36,2.68,0,1.5C325.3,386.08,324.3,386.38,323.76,386.28Z"/><path class="cls-1" d="M300.61,400.3a2.73,2.73,0,0,0-.54.74C300.29,400.76,300.46,400.51,300.61,400.3Z"/><path class="cls-1" d="M300.61,400.3c0.67-.67,1.6-1.1,1.86-1.75A3.75,3.75,0,0,0,300.61,400.3Z"/><path class="cls-1" d="M293.1,408.21l0.65-.57c-0.28,1,0,.61.24-0.22,0.61-.68.37-0.85,0.3-1.07l0.13-.66-0.28.78C293.15,407.48,292.58,408.13,293.1,408.21Z"/><path class="cls-1" d="M253.55,426.66c2.44-2.12,3.13-2.61,3.55-2,2.25-2.07,1-2.57,2.07-4.11C256.89,423.16,256.17,423.46,253.55,426.66Z"/><path class="cls-1" d="M259.17,420.57l0.79-.91A6,6,0,0,0,259.17,420.57Z"/><polygon class="cls-1" points="307.72 404.77 307.13 406.96 307.52 406.34 307.72 404.77"/><path class="cls-1" d="M250,429.91a6.36,6.36,0,0,1,1.57-1.3C251.18,428,249.59,430.32,250,429.91Z"/><path class="cls-1" d="M268.91,430.66c0.55,0.07,1.76-1.59,2.46-2.08C270.48,429.38,268.83,429.16,268.91,430.66Z"/><path class="cls-1" d="M246,438.71c0.44-.4,1.42-0.74,1.6,0C247.89,437.79,247.74,436.06,246,438.71Z"/><polygon class="cls-1" points="264.83 434.82 265.32 434.65 266.46 432.73 264.83 434.82"/><path class="cls-1" d="M278,436.55c1-2.37-4.2,1.37-1.84-2.19-4.4,3.31,1.18.54-1.67,3.35C276.32,436.21,277.91,436.14,278,436.55Z"/><path class="cls-1" d="M274.5,437.71a8.79,8.79,0,0,0-.82.75C274,438.17,274.27,437.93,274.5,437.71Z"/><path class="cls-1" d="M247.12,459.3a4.52,4.52,0,0,0,.33-0.81A4.37,4.37,0,0,0,247.12,459.3Z"/><path class="cls-1" d="M266.32,447.56l1.53-3.57c-1,2.39-5.25,6.86-4,7.46a10.37,10.37,0,0,0,3.18-4.37Z"/><path class="cls-1" d="M220.44,463.08l0.68-1.54-1.44,1.4C220.2,462.64,220.23,464,220.44,463.08Z"/><path class="cls-1" d="M219.39,463.21l0.28-.27A0.87,0.87,0,0,0,219.39,463.21Z"/><path class="cls-1" d="M251.32,453.73a10.6,10.6,0,0,0,2-2.5C252.87,451.39,250.72,453.43,251.32,453.73Z"/><polygon class="cls-1" points="214.44 472.82 216 470.68 214.18 472.92 214.44 472.82"/><path class="cls-1" d="M206.13,479l-0.18-.16a3.48,3.48,0,0,1,.16.53l0.17,0.18A3.68,3.68,0,0,0,206.13,479Z"/><path class="cls-1" d="M234.56,485.36c1.26-1.24,1.29-3.06.8-2.87l-2.21,2.62c1.34,0,.6-0.74,2.1-2.07Z"/><path class="cls-1" d="M180.58,436.4c0.93,0.42,2,4,1.53,4.41-0.46-.34-1.51-2.08-1.38-0.75l2.71,2c0.32,2-.49,1.54-1.54.4s-2.32-3-3-3.76c1.39,3.75,2.87,4.38,4.6,8.22a6.82,6.82,0,0,1-.25-2.82c1-.62,2.14,3.18,3.39,5.66-0.29-1.81.54-1.07,1.51-.1a1.12,1.12,0,0,0,.37.37l0.34,0.32-0.14-.3a0.61,0.61,0,0,0,.34-0.48c-1.31-1.94-1.12-4-1.73-5.37-1.14,2.15-2.51-4.48-3.8-6l-1.05-1.94-0.33-.75c0.13-.24.46-0.13,1.32,0.87-0.77-.8-2-4.08-2.47-3.55l-3.18-7.41a2.38,2.38,0,0,1,0-.76c-0.22-.21-0.33-0.22-0.41-0.14l-7-16.38c-1.8-4.13-3.62-8.28-5.05-11.4-0.7-1.56-1.29-2.86-1.74-3.78L163,391.51c0.66,1.72.94,3.34,1.49,5.11-2.3-2,1,2.87-.4,2.62a8,8,0,0,1-1.71-3.79c-0.72-.12-0.58,1.52-1.31,1.66,1.17,4.48,4.14,3.94,5.5,8.2-0.74.13-1.87-.87-0.62,1.75l-0.44-.61c2.61,3.95-.09,4,2.9,5.86l-1,.34c1.56,1.62,3.14,5.36,4.16,7.41l-0.24,0c3.6,5.43,1.63,3.21,4.88,9.6L173.74,427c0.49,2.47,1.94,2.46,2.5,4.14-0.24,0-.79.64-1.62-0.82l5.12,7.19C181.29,439.11,180.29,436.87,180.58,436.4Z"/><path class="cls-1" d="M183.51,446.92a8.15,8.15,0,0,0,.61,1.45C183.91,447.82,183.71,447.36,183.51,446.92Z"/><path class="cls-1" d="M161.82,389.16l1.13,2.36A14.44,14.44,0,0,0,161.82,389.16Z"/><path class="cls-1" d="M190.74,456.91c-0.15-1.54,1.17.64,1.64,0.68l-1.15-2.31c-0.58-1.16-1.13-2.35-1.13-2.35-0.36.2-1-.08-1.28,0.18l0.95,1.92Z"/><path class="cls-1" d="M190.15,451.24a3.08,3.08,0,0,1-1.27-.89l1.22,2.58C190.37,452.79,190.48,452.38,190.15,451.24Z"/><polygon class="cls-1" points="170.78 461 170.33 460.13 169.43 458.94 170.78 461"/><path class="cls-1" d="M166.16,446.49c-0.1,1.3,1.19,3.12,1.64,3.72A30.49,30.49,0,0,0,166.16,446.49Z"/><polygon class="cls-1" points="161.37 452.01 160.07 449.91 160.05 450.16 161.37 452.01"/><path class="cls-1" d="M149.48,374.12l-0.63-1A7.6,7.6,0,0,0,149.48,374.12Z"/><path class="cls-1" d="M160,392.65c-1.5-5.91,2.58,3.12,3.14.79l-1.86-2.74,0.49,0.08-1.84-3.55c-0.27,1,0,1.62-.78,1.78-2-4.9.05-1.88-.86-5.76l-2.8-5.2,0.41,0.32a1.41,1.41,0,0,0-.61-0.68l-4.86-8.57-4.95-8.43c-2.25-2.78-.18,2.34-2.4.61,2,3.56,4.28,9.3,5.74,8.89-0.24,0-.73-0.07-0.48.74l2.19,1.53-0.74-2.2c2.18,1.56,5.67,8.54,5.61,10.18-2.39-3.79-2.66-1.11-4.86-6.92-0.19.42-.24,1.72-1.07,0.59,1.89,3.07,3.45,6.11,5,9.2,0.8,1.54,1.65,3.06,2.54,4.61S158.91,391.07,160,392.65Z"/><path class="cls-1" d="M124.85,330.2l0.14,0C124.87,330.11,124.8,330.1,124.85,330.2Z"/><path class="cls-1" d="M125.87,332.33l2.95,2.25L126.05,330l-1.06.16c0.45,0.28,1.83,1.65,1.85,2.47Z"/><path class="cls-1" d="M131.54,337.59c-1.74-2.17-2.69-1.45-2.41.12-1.74-1.92.43-1.79-1.52-2.68-0.71.47,1.28,2.93,1.77,3.47Z"/><polygon class="cls-1" points="141.25 355.65 140.43 355.21 141.28 356.96 141.25 355.65"/><path class="cls-1" d="M140.43,355.21l-0.84-1.73a2,2,0,0,0-.55,1Z"/><path class="cls-1" d="M137.38,349c-0.33-.75-0.72-1.56-1.24-2.52Z"/><path class="cls-1" d="M138.21,351l0.1-.13L137.38,349C137.69,349.68,138,350.34,138.21,351Z"/><path class="cls-1" d="M139.59,353.48c0.56-.68,1.13-1.43-0.45-3.71l-0.83,1.11Z"/><polygon class="cls-1" points="155.51 435.25 154.23 433.42 154.21 433.68 155.49 435.51 155.51 435.25"/><path class="cls-1" d="M151.33,423.38a9.79,9.79,0,0,0-.93-1A3,3,0,0,0,151.33,423.38Z"/><path class="cls-1" d="M142.51,417.1c-0.24-2.64,2.39,2.75.87-1.67,0.54-.68,2.34.92,2.85,3.1-0.74.12-1.28-1.79-1.42-.25,1.35,1,1,1.76,1.85.86,1.6,2,2.42,2,3.74,3.22-1.61-2.58-3.05-8.79-5.86-11.67-2.05-1.35-3.19.53-4.93,1.29C139.34,412.41,141.26,417.42,142.51,417.1Z"/><path class="cls-1" d="M142.32,421.49a6,6,0,0,0,1,2C143.86,423.07,142.72,422.35,142.32,421.49Z"/><path class="cls-1" d="M144.25,391.19c-0.34-.08-1.61-1.83-1.82-1.21l1.77,2.72A1.63,1.63,0,0,1,144.25,391.19Z"/><path class="cls-1" d="M145,393.91l-0.77-1.2A5.84,5.84,0,0,0,145,393.91Z"/><path class="cls-1" d="M144.33,391l-0.08.21C144.32,391.21,144.37,391.17,144.33,391Z"/><path class="cls-1" d="M133.83,341.88c0.48-.22-0.52-1.32-1-1.87A7.35,7.35,0,0,0,133.83,341.88Z"/><path class="cls-1" d="M106.29,295.78l-0.16-1.3A2.43,2.43,0,0,0,106.29,295.78Z"/><path class="cls-1" d="M85.38,283.69a0.59,0.59,0,0,1-.35-0.15A0.5,0.5,0,0,0,85.38,283.69Z"/><path class="cls-1" d="M85,283.54c-0.72-.68-1.13-3.46-2.07-4.17l0.23,0-1-1.61C82.79,279.45,84.07,282.85,85,283.54Z"/><path class="cls-1" d="M216.08,467.27c0.21,1-1.41,1.67-2.08,1.26,1.73,2.07-.41,1.94,3.2,2.48,1.69,1.37-.89,2.49-2.25,1l1.94,3.73,0.73-2.08c3,0.82-1.17,3.33,2.3,4.28V474l1,0.27c-1-1-.42-2.63,0-3.19,0.49,0.13,1.31.14,1.34,0.82,0.6-4.63-5.19-1.67-5.89-5.61A1.07,1.07,0,0,1,216.08,467.27Z"/><path class="cls-1" d="M223.79,463.91L220.13,462l1.19-2.64c-1.31-.13-2.21-2.2-3.47-0.95a1.62,1.62,0,0,1,.38,1.24c-2.8-.53-1.13-3.73-4.05-3.15,0.58,2.21-.07,2.49,2.13,4a6.81,6.81,0,0,1-2.29,4.17c0.38,0.62,2.11.84,2.4,1.61a3.35,3.35,0,0,1-.07-0.51l4.26,0.26c-0.85-.69-0.38-1.24-0.41-1.94l4.72,3.58c4.06-.71,2-4,3.72-5.14C224.94,463.76,227,461.12,223.79,463.91Z"/><path class="cls-1" d="M216.42,466.26v0.08A0.39,0.39,0,0,0,216.42,466.26Z"/><path class="cls-1" d="M213.18,227c0-.68-1-0.94-1.53-1.07l-0.42,7.53c1.13-.16,2.68-2.23,3.24-0.73,1.29-.56.36-2.61-1.13-3l1.67,0.66c-2.07-1.88,2.29-2.8,3.51-1.57v-0.15l-8.1-5.35C209.8,225.05,213.21,224.86,213.18,227Z"/><path class="cls-1" d="M231.48,70.09c0.19,1.09.57,1.28,1,1.25A4.81,4.81,0,0,0,231.48,70.09Z"/><path class="cls-1" d="M208.5,222.08L206,220.41A9.39,9.39,0,0,0,208.5,222.08Z"/><path class="cls-1" d="M247.82,235.26a1.62,1.62,0,0,0,.45,0l-1.29-.79v0C247.26,234.77,247.54,235,247.82,235.26Z"/><path class="cls-1" d="M200.41,187.15c-0.06-.17-0.08-0.31-0.16-0.51A1.21,1.21,0,0,0,200.41,187.15Z"/><path class="cls-1" d="M261.07,257.94l-2.18-3.81c1.15,0.58,1-1.17,2.28-.29-0.16-.29-0.52-1.61-1.17-1.31v0.73c-3.32-2.18-4.76-1.17-7.15-4.47-2.23,1.73-.4,2.72,1.09,3.88a4.91,4.91,0,0,1,.39,1l4.58,3.41Z"/><path class="cls-1" d="M244.46,119.83l0.27,0.07A0.72,0.72,0,0,0,244.46,119.83Z"/><path class="cls-1" d="M245.82,120.17l-1.1-.28C245.26,120.14,245.71,120.88,245.82,120.17Z"/><path class="cls-1" d="M210.73,222.76a8.24,8.24,0,0,1-2.23-.69l1.9,1.24A2.89,2.89,0,0,1,210.73,222.76Z"/><path class="cls-1" d="M218.19,225.8l0.32,2.87,1.74,1.17A37.54,37.54,0,0,0,218.19,225.8Z"/><path class="cls-1" d="M198.13,191.57c-0.24-6,4,1.66,5.16-1-0.4-1.67-2.32-2.35-2.89-3.4,1.44,4.78-6.4-1-5.6,3.84-3.5-.85-3.68-3.61-2.65-5.17,3.49-1.65,2.41,1.71,5.73,2.29-0.46-1.93-1.1-1.63-3-2.53,0.94-3-3.87-6.44.94-8-0.64-2.21-2.27-2.17-4-3.52-3.63-.44-2.08,3.17-5,3.82a2.45,2.45,0,0,1,1.45-.33l-0.86,1.85c1.36-1.73,3.63.43,3.86,1.4,0,0.7.13,2.09-.86,1.85l-0.73-1.09c-1.22,1.3,2.5,3.13.46,4.45-0.82,0-1.18-.52-1.68-0.63,2.41,1.71,2.19,3.24,3.83,5.68l-3.54-1.54c3.9,2.09,2.56,6.29.3,9.11,0.63-.29,1.09-0.86,1.77-0.47,0.78,1.77-1.76,2.94-3.63,2.05,2.92,1.85-2.85,6.25.92,8.72L206,220.41a3.27,3.27,0,0,1-.92-1.3c3.22-.77,2.87-1.31,5.76.54-1.58-1.74-4.16-1.26-4.15-3.73,1.54,1.06,5.16,1.51,5.67-.84-2.84-6.11-11.65-10.49-16-16.27,2.45-.09,2-4.47,2.66-6.58a5.4,5.4,0,0,1,3.7,4.22c0.22-1,.37-2.78.55-4.09Z"/><path class="cls-1" d="M205.65,205.79a1.77,1.77,0,0,0,.48-0.44A0.79,0.79,0,0,0,205.65,205.79Z"/><path class="cls-1" d="M202.59,196.94a1.69,1.69,0,0,0,.26,0l-0.16-.53A4.86,4.86,0,0,1,202.59,196.94Z"/><path class="cls-1" d="M216.32,221.71c0.68,0.39.86,0.67,1.54,1.06a6.58,6.58,0,0,1-.59-0.79A0.9,0.9,0,0,0,216.32,221.71Z"/><path class="cls-1" d="M212,222.64l-1-.25a3,3,0,0,0-.24.38A1.78,1.78,0,0,0,212,222.64Z"/><path class="cls-1" d="M221.38,170l-0.5-.6A0.64,0.64,0,0,0,221.38,170Z"/><path class="cls-1" d="M202.6,185.17c0.13,2.08,3.63.43,3.51,3.35l0.27-.84c1.46,2.17.56,5.81,0.57,8.3-1.44-.35-1.84,1.41-4.08,1,0.45,1.72.86,3.42,3.15,4.4-0.82,1,1.16,2.71.12,4,1.39-.49,4.51,2.13,3-1.19,0.17,0.27.49,0.12,0.67,0.39,2-2-1.18-3-1.13-4.79,1.4-1,2.08,1.87,2.67.88-1.14-2.31,2-7-3.1-7.08-0.28-1.66.85-1.83,1.8-2.28-5.27-2.86,2.79-9.54-4.11-9.86,0.22,1,0,2.51,1.41,4Z"/><path class="cls-1" d="M216.16,218.25a1.87,1.87,0,0,1,.09-0.39A1.92,1.92,0,0,0,216.16,218.25Z"/><path class="cls-1" d="M194.45,242.32L190,241.13c-0.67-4.75.67-6.39,0.81-10.52a0.93,0.93,0,0,1,1.17.52c-0.31-2.94.89-7.28-1-9.52,0.1-.92,1.66-3.31,2.94-2.3a1.8,1.8,0,0,1-.56-1.54c1.63,0,.4,1.2,1.72,1.31,0.13-.41.46-0.55,0-0.68,1.35,0.78,5.54-.41,5.25,2.87-3.86,1-.31-2.3-4.53-1.8-0.09,1.08,1.53,1.05,2,1.18-0.17,1.38-1.23,1.27-2.18,1.14,1.26,0.61-.65,2.22,1.27,3.07,0.15,2.7-3.13-.35-3.19,1.4l4.17,1.28-1,2.85c1.18,4.29,7.35-.1,9.39,4.88-2.16-.79-6,0.87-7,3-0.06-1.35-2.64-4-1.26-5.64-3.49,2.19-.16-3.36-4-2.36a3.35,3.35,0,0,1,.73,4.81l-0.35-.54c-0.57,1.61,3.77,3.21,1.9,5.35,0,1.14-1.13.83-2.11,0.55C194.62,241.47,195.38,242.39,194.45,242.32Zm-0.68-2.52,0.54-1.47A1,1,0,0,0,193.77,239.8Z"/><path class="cls-1" d="M225,442c-0.12.15-.25,0.32-0.38,0.45A0.74,0.74,0,0,0,225,442Z"/><path class="cls-1" d="M238.79,304l-0.23.88A1.82,1.82,0,0,0,238.79,304Z"/><path class="cls-1" d="M250.68,325.5l0.86,1.4A2.06,2.06,0,0,0,250.68,325.5Z"/><path class="cls-1" d="M226.12,431.23l0,0a3,3,0,0,1-.21-0.23Z"/><path class="cls-1" d="M237.06,365a3.14,3.14,0,0,0-1,.65A1.17,1.17,0,0,0,237.06,365Z"/><path class="cls-1" d="M250.52,325.24l-0.09.07,0.25,0.19Z"/><path class="cls-1" d="M252,296.44a5.78,5.78,0,0,0-.35-0.62A1.09,1.09,0,0,0,252,296.44Z"/><path class="cls-1" d="M239.94,296.41a1.82,1.82,0,0,0-.36-0.6Z"/><path class="cls-1" d="M251.64,266.16l-0.46-1.34A1.89,1.89,0,0,0,251.64,266.16Z"/><path class="cls-1" d="M243,293.52a5.58,5.58,0,0,0-.55-0.25A0.56,0.56,0,0,0,243,293.52Z"/><path class="cls-1" d="M211.77,448.75s0-.06,0-0.08l-0.49-.07Z"/><path class="cls-1" d="M217.69,452.2c0.1,0.36.18,0.73,0.27,1.1A1.52,1.52,0,0,0,217.69,452.2Z"/><path class="cls-1" d="M228.74,382.05c-0.64.27-1.43,1-2.1,0.55C227.47,383.29,229.61,383.43,228.74,382.05Z"/><path class="cls-1" d="M185.79,440.72a8,8,0,0,1,1.38.79C186.6,441,186.12,440.58,185.79,440.72Z"/><path class="cls-1" d="M187.18,441.51c0.29,0.25.59,0.51,0.9,0.74A6.24,6.24,0,0,0,187.18,441.51Z"/><path class="cls-1" d="M194.39,370.84a0.92,0.92,0,0,0,.64-0.32C194.45,370.52,194.32,370.64,194.39,370.84Z"/><path class="cls-1" d="M217.21,454.11c1,0.27,2.81,5.1,3.64,1.22,3.12,0.4,1.25,2.63,1.95,3.73,0.8-.7,2,0.54,3.12.39-0.34-.55-1.19-1.24-0.9-2.07a1.45,1.45,0,0,1,1.72,2.07c1.75-1.12,2.36,1.78,3.77.11-0.81-3.87-1.74-6.63-6.11-9.65,0.58,2.21,1.33,4.7-.07,6.37l-2.66-1c2.54-1.81.86-3.19,1.27-5.13l-1.79,4.3c-2.42,1.89-2.83.47-3.19-1.2A0.86,0.86,0,0,1,217.21,454.11Z"/><path class="cls-1" d="M193.65,449.26l-0.08.07a1.21,1.21,0,0,0,.26.21Z"/><path class="cls-1" d="M196.9,260.32l-1-.47A1.6,1.6,0,0,0,196.9,260.32Z"/><path class="cls-1" d="M207,447.66h0S207,447.63,207,447.66Z"/><path class="cls-1" d="M195.64,269.56l-0.23-.08A1.3,1.3,0,0,0,195.64,269.56Z"/><path class="cls-1" d="M253.61,278.84a2.07,2.07,0,0,0,.37,0C253.85,278.6,253.72,278.68,253.61,278.84Z"/><path class="cls-1" d="M195.89,269.6a1.66,1.66,0,0,1-.25,0A0.92,0.92,0,0,0,195.89,269.6Z"/><path class="cls-1" d="M200.86,316.79a6.56,6.56,0,0,0,1-.28A0.89,0.89,0,0,0,200.86,316.79Z"/><path class="cls-1" d="M205.79,308.11c0.11,0,.2-0.07.32-0.14Z"/><path class="cls-1" d="M241.13,381a2.19,2.19,0,0,0-.05-1.07A1.52,1.52,0,0,0,241.13,381Z"/><path class="cls-1" d="M195.42,269.48a4.49,4.49,0,0,1-.89-0.57A3.79,3.79,0,0,0,195.42,269.48Z"/><path class="cls-1" d="M213.19,331.94l-0.27-.31c-0.06.05-.09,0.1-0.15,0.15Z"/><path class="cls-1" d="M210.76,336.48a5.52,5.52,0,0,0-.88-0.41c1,1.79-.54,4.78,2.3,5.41,0-.58,2-3.39,3.59-2.72-0.61-1.24,1.57-2.79,1.16-3.46-1.76,1.78-2.45,0-3.3-1.42,1-1.1,2.3.44,2.93-.53l-0.05-2.77-0.61,2.35-2.7-1,0.24,0.27C214.34,336.37,209.35,332.17,210.76,336.48Z"/><path class="cls-1" d="M209.88,336.07a2.11,2.11,0,0,0-.62-0.71A0.81,0.81,0,0,0,209.88,336.07Z"/><path class="cls-1" d="M203.79,352.17a3.7,3.7,0,0,0,.38.76C204.07,352.78,204,352.46,203.79,352.17Z"/><path class="cls-1" d="M219.65,231.83c-0.82,0-2.68,2.24-.54,2.35q0.39-1,.82-2.05Z"/><path class="cls-1" d="M212.31,398.23a2.16,2.16,0,0,0,.12-0.78l-0.32-.18C211.78,397.4,212.13,398,212.31,398.23Z"/><path class="cls-1" d="M216.71,339.58a1.91,1.91,0,0,0-.93-0.82A1.72,1.72,0,0,0,216.71,339.58Z"/><path class="cls-1" d="M207.23,398a6.69,6.69,0,0,1-2.43.7c-0.08.68,1,1.25,1.35,2C205.9,399.83,206.19,398.94,207.23,398Z"/><path class="cls-1" d="M206.18,400.71l0-.06A0.15,0.15,0,0,0,206.18,400.71Z"/><path class="cls-1" d="M220.65,230.49a6.85,6.85,0,0,1-.41-0.65l0.55,0.36c0.24-.53.49-1.05,0.75-1.57a2.23,2.23,0,0,1-.3-0.69,1,1,0,0,0,.52.27l0.28-.5c-2.13-1.43-3.54-4.73-4.78-5.73a5.35,5.35,0,0,1-1.11-3.73c-0.09.87,0.29,2,1.53,1.77,1.37-1.69,5.09-2.34,2.11-5.57l-0.06,1.79L215.22,212c2-1.3,2.27,2.13,3.94,2.79-2.17-3.25,4.22-5.53.18-7.19,2.45-.08,6.53-0.21,6.4-2.28C222.89,206.62,224,204,221,205c-1.36-.78,1-2.25-0.83-2.46l1,0.24c4-3.32-2-4.77-3.87-6.37-0.79-4.26.88-6.12,0.64-9.57,1.64-.05,6.18-0.77,6.08-2.16-2.18-.75-3-3.92-5.86-4.38-1.31,2.41,2.27,2.14,2.86,3.65-3,1.08-2.94,0-4.8,1.56,1.22-1.3-1.24-6.21,1.62-7.56l0.36,0.54C220,176.22,227,176.14,223,172l-1.63-2a7,7,0,0,0,.86.2c0.46-3.07,3.64-2,1.3-5.6,0.18,0.28.5,0.13,0.68,0.41,1.7-1.85-1.38-4-2-5.51,2.42-.75,2.31.36,4,1,1.13-3.35-2.67-7.3-5.4-9.64l1.55-2.11c0.87,1.38,3.25,3.16,4.7,2.86-0.39-1.24-1.52-1.09-.94-2.77a26.09,26.09,0,0,1,4.67,2.16c2.79-3.34-5.29-1.18-.47-3.31,0.11-1.1-2-1.92-3.85-2.18l2.54-1.83c-2.31-.41-2.24-2.91-2.44-4.57-1-.29-2.59,1.11-1.74,1.8a2.94,2.94,0,0,1-2.38-3.21c4.89,0-.06-7.41,5.55-5.55-0.54-2.58-.75-5.65-1-8.51a24.53,24.53,0,0,0-1.41-7.3c1.47-.93,1.8-3.14,3.91-1.54,0.5-4-4.21-6.7-2.38-10.53,0.65-.25-0.19,1.81,1.45,1.87-1.61-2.86,2.65-4.48,1.9-8.68,0,0.69,1,1,1.46,1.18-0.81,0-1.44-1.88-2.08-3,0.5-.53.47,0.86,1.13,0.61,3.42-7.46-2.31-14.33-.73-22.23-0.46,2.25,2.6,3.62,3.9,3.86l0.42-2.16c-1.44-1.11-1.15-2.75-2.08-4.36,0.63-.06,1.4-0.61,2,0.22,2-1.86.91-3.79-.28-6.08a11,11,0,0,1-1.36-3.81,5.18,5.18,0,0,1,.11-2.06,3.23,3.23,0,0,1,.45-1,1.15,1.15,0,0,1,.41-0.38,0.38,0.38,0,0,1,.44.19,0.3,0.3,0,0,1,.11-0.06s0,0.31.15,0.71a20.72,20.72,0,0,0,1.16,3.08,31.85,31.85,0,0,0,1.49,3c0.43,0.77.74,1.26,0.74,1.26l1.29-.52,1.3-.49s0.54,0.87,1.1,1.71l1.14,1.66c1-.6.65-1.45,0.3-2.12s-0.64-1.17.56-.93c0.58,0.5.17,1.2,1.44,1.55,1.29-1.16-.46-1.68-0.55-2.91a12,12,0,0,1,2.06,3.23A13.21,13.21,0,0,1,247.4,71c0.28,2.34.15,4.67,0.47,6.38,0.3,0.57-1.11-.64-1.59-0.82-0.07,1.34-1.73,1.88-1.16,3.7,1.91,1.38,1.66-.54,2-1.32,1.79,0.42,1.61.81,1.73,1.76-2.45-.2-1.66,4.89-4.78,5.64,0,5.07,6.36.14,4.61,4.8l-3,1c1.74,3.12,3.14,7,2.13,10.11v-0.68c-1.12-.6-2,0-2.6.29-1.5,2.26,1.58,4.87-1.37,6,2.59,3.13,4.22,8,5.37,11.3-3.76.42-2.62-4.47-4.74-6.06L244.18,116c0.17-1.78-1.14-2.65-3.09-4-1,2.44,2.11,3.66,2.76,6.15-1-.3-1.62-0.06-1.78,1l2.39,0.59a0.68,0.68,0,0,0-.59.42l1,4.39c1.14-.77,3.26-0.58,3.41-1.66-1.46.23-1.64-.73-1.47-1.81,1.48,1.14,1.46-.91,2.77-0.73a15.54,15.54,0,0,0,.23,6.35l-2.28.22c-0.77,2,.26,4.32-0.54,5.66l-1.15-.56c-0.95,2.42.3,5-2.08,7,2.36,2.45,4.26,5.42,6.82,7.45,2.83,1.18-4.14,6.25-.21,9.07-0.32.15-2.07-1.88-3.11-2.82-0.56,1.65,3,3.23-.13,3.55,1.27-3.7-2.45,0-3.2-1.72-0.06,1.77.36,3.68,1.4,4.61,0.17-2.86,4.15,1.29,3-1.69,2.41,2.4,3.25,5.51,2.1,8.13a2.29,2.29,0,0,0-2.55,1.16l1.86,0.92c-0.42,1.23-2.12-2.55-2.95-.07,3.11,2.77-2.28,7.75,3.7,9.21-2.49,1.86-2.22-3.91-5.3-1.07-2.09-1.86.54-4.13-2.45-4.88,0.77,1.76-2.59.48-2.67,1.59l1.76,2,0.14-.42c2.67,3.35,1,8.37,1.33,12.5,2.87,3.63,7.15,6.25,6.61,10.42-1.72-1.33-1.89,3.41-5,.6a2.38,2.38,0,0,0,1.41,4c0.54-1.69.45-.58,1.17-2a2.7,2.7,0,0,1,.28,4.16c0.14-.42-0.18-0.27-0.67-0.39-1.18,2,1.54,1.06,2.13,2.57-2.26.36-.77,3.25-2,4.54l3.09,2.13c-2-1.19-.87,1.84-2.81,2,1.4,1.49,3.93,2.83,3.24,5-1-1-1.69,1.88-3.82,1.79-2.24,3.55,5.42,6.49,2.16,9.82-0.49-.14-1.84-0.94-2.44,0,0.54,0.85.2,2.25,0.37,3.13l-0.06,0,0.06,0a0.86,0.86,0,0,0,.84.77c2,1.63,4,2.55,5.6,5.63,2.45,0,1.68-2.6,1-3.73l-2.34-1.1c3.74-.63-0.44-2.7.83-3.28,4.19,2,2.75,7.09,5.18,10.35,3.52-1.61,4.36-5.67,4.19-9.26l-1.57,1.47,0.08-1.86-2.71,1.62c0.58-1.73,0-3.28.26-4.85-0.07,1.85-3.47,2.35-2.88,1.34,2.52-1.9-1.42-2.24-1.18-3.8-0.28.86-.39,2-1.74,1.17,3.12-2.91,1.28-3.87,4.56-6.48-4.08.11-.21-3.52-3.51-4.13l-0.41,1.28-2.3-2.89c3.45-2.36,3.25,2.44,5.8-1.3,0.59-3.53-3.68-3.66-3.85-6.47,2.36,1,4.31,3.36,4.12,5.61l1.23-1.3c1.36,0.79.9,3.9,0.66,5.47-2.62-2.74-.92,1.16-3.15,2.22,2.32,0.35,2-1.33,3.8.74a8.11,8.11,0,0,1,.89-4.41c-1.35,5,7.83,5,5.6,9.35-0.92-2.12-3.4.51-4.55,0.69a15.94,15.94,0,0,0,1.18,3.83l3.41-.51c1.28,2.71-5.88,3.12-2.64,6.39,2,0.54.87-2.62,1.22-2,1.81,4.3-3.7,5.4-6.51,8.87,1,0.29,3.12.41,4.79,1.84-2-.57-3.09.31-4.45-1.26-1,1.16.4,2.74,1.1,3.9,1.39-2.47,2.81,1.29,4,1.87-0.45,1.31-2-.58-2.49-1.45-0.63,1-3.7,2-.74,2.91-2.12-.15-5.33-3.46-5.72-5.47l-0.45,1.3c-1-1-.69-1.15-0.25-2.44a5.8,5.8,0,0,1-5,.46c0.32-.14.49,0.13,0.81,0,0.63-1,.11-1.87-1-1.71-2.77-1.17-1.9,1.32-3.38,1.91l0.44,1.65,4.35,3.12,4.33,3.16c0.84,2.47-1.45,3.33-3,5l2.4,0.73c-0.44,2-1.43,3.9-4.38,2.26,0.83,0,.66-0.28.82-0.71a1.94,1.94,0,0,1-.73-0.37l-0.42-.14c0.58,2.27.91,3.71,1,3.85-3.13-4.11-4.41-.66-8.67-1.74l1,3.89c1.62-2.11,2.12.19,2.62,1.07-2.46-.07-0.31,3.07-0.8,4.23l-0.49-.15c-1,1.06-1,3.12-.48,4.64,0.82,0,4.58,2.34,6.88,3.51,1.2-2.37,2-.79,3.54-0.81-0.17.24-.25,0.7,0.05,0.78,0.65,0.43,1-.37,1.79-0.35-0.83-2.75-.84-5.49-4.11-7-1.63.63,1.31,1.55,0.18,2.33a3.2,3.2,0,0,1-1.5-2.46,6.37,6.37,0,0,1,.08-1.39l0.25-1.64,2.12-.53-0.84-2.47c1,1.1,3.17.75,3.3,3.27,2-.1-0.16-2.5.65-3.94L253,264.41c1.47,0.46,2.13-2.75,3.93-.23l1.8,4,2-.84,0.17,3.26-1.32-.92c0.33,1.33.14,2.07-.28,2.47a3.3,3.3,0,0,1-1.68.59c-1.22.21-2.28,0.45-1,3,3.1,1.87,3.27,3.51,2.13,6.33-0.49-2.19-2.28-.48-4.08-1.49-1.62,2,1,3,2.15,4.3-1.79.35-3.25,0.58-2.78-1.31-3.6-.65.34,2.61-3.41,2.36-0.59,6.42,11.48,6.45,6,13.41l-1.47-.44c1.38,4.95-.72,7.5,0,12L251,314c-0.51-.84-3.16-3.22-5.11-2.43,4-1.3,2.88-3.23,5.15-4.83-1-.29-1.79.37-2.45,0.63,0.15-1.09,1.95-1.46,1.43-3-0.8,0-1.93,1.47-2.28.23l2.59-1.72c-0.86-2.76-5.57-1.9-4.15-4.89,2.07,0.81,5,2.31,5.41,3.56,0.61-1.37,1.09,2,2.49.87-2.94-2.37-.34-3.09-2-6a2.23,2.23,0,0,1,1.14,1.2l1.76-3.78c-1.95.77-1.67-3.46-4.44-3.4-1.59,4.06.19,3-1.88,7.62-0.48-1.42-3.07-3.46-5.55-4.56a0.39,0.39,0,0,0,.27-0.23c-2.63-1-3.44-.36-8.17-0.89,3.12,2.56.2,3.72,1.86,6.51,2.54,0.76,3.47-1.15,2.93-2.5l1.48,2.46-1.15-.58L238.79,304c0-1.11-1.49-1.64-2.56-2.33a5,5,0,0,1-1.78,2.11c2.5,0.09,4.23.38,4.11,1.1-1,3.65-3.41,5.49-6.38,6.58l0.13,0.45c2.6-.37,4.3,3.11,6.78,4.52-2.62-.32-1.77,1.76-3.22,2.7a16.83,16.83,0,0,0,9.79-.53c-2.5-2.79-2.63-1.68-6.42-3.27L237,311l2.31,1.15c1.26-1.9-1.71-4.17,1.4-3.69,2,1.28.53,2.9,2.52,4.17l1.28-1.21c2.84,2.66-3.08.9-1.22,4,2.76-.78.16,0.28,1.82,1.67,1.95-.79-0.25-5.08,4.18-3.76,1.82,1.67-5.79,4.43-1.5,6.83l-0.5-.15c-0.88,2.82,1.61,4.09,3.13,5.33-1.58,1.08.31,3,.35,4.32l-1.31-.16,0.37,1.93c-2.31-1.12.28-2.19,0.08-3.83l-2.46,0c3.08-1.57-1.21-3.24-3.17-4.89,1.91,2.31-1.17,5.87,3.55,6.82l-2.59,1.06,0.83,0.71c-1.95.79-4.75-.48-5.12-2.41a2,2,0,0,1,1.47-.25c-1-1-2.82-2-2.06-4l1.18,1.25c0.43-2.61-.28-5.09-2.59-6.22a37.52,37.52,0,0,0-2.21,11c5.42,1.58,8.39,3.12,13.47,4.15,0.71,2.47,1.12,5.78-1,7.67l-1-.28a2.44,2.44,0,0,0,.08,2.75c-1.45.94-2.64-1-3.44-.31l1.4,3.58c-2.3-.42-2-3.3-2.08-4.69a1,1,0,0,0,.84.69c1.11-1.5-2.57-4.83.85-5.21-0.51-.83,2.33,1.81,2.75-0.8,1.43-1.63-1.53-2.49-2.52-2.77-1.32-.16-2.06,2.58-3.56,1.47,0,1.38,1.68,2.09.25,3.72,0-1.37-2.53-3.46-.42-4-2.2-2.91-8.4-3.12-8.87-1.88,2-.12,1.93,5.12,4.78,1.84,2.34,1.82,2.09,4.7,3.45,6.91l-0.49-.14,0.38,2.62c-0.66-.42-1.17-1.25-2.48-1.4l3.19,3.88c-2.18-2.22-1.76,1.09-2.89,1.9,2,0.56,3.33,2.09,4.6.86,1.6-1.36-1-1-1-2.35l3,2.22-0.33.14,2.49,1.4c-0.42,2.61-5.93-1.7-3.7,1.9l3.58-.12c-0.87,3.84-5.31,8.49-3.91,11.39-1.95-.94-5.16-1.56-7.17-0.68,0.71-1.14.79-3.54,0.62-5.27,0.65-.27,4,2.5,3.07,4.28,5.87-.38-3.09-5,2.81-4.66,2.48-4.52-5.34-4-1.53-7.71-2.62-.29-1.18-1.25-3.47-1.68-4.39.79-.34,5.37-2.07,7.83a2.11,2.11,0,0,0-1-1c-0.94,1.79-.42,2.61.44,4l0.32-.14c2.36,2.5-2.08,1.23-3.36,2.46,0.35,0.55-.58,2.34,1.38,2.21l-2.71,2.2,2.94,0.14c0.05,1.38-1.91,1.51-.23,2.9l2.62,0.29,1.21-3.31c0.71,1.79,2.47.7,2.85,2.63-2.68-2.36-1.58,1.36-4,1.36l1.36,1.52-0.67-.42c-1.44,1,.86,1.38.41,2.62,1.59-1.37,3.52-2.19,1.83-4.26a14.44,14.44,0,0,1,2.78,5.1c1,1.55-1.11,2.4-1.52,3.74-0.83-2.71-8,.24-5.7-4.86,0.49,0.14.34,0.56,0,.69,3.41-.41.07-3.17-1.12-4.42-2,.13-2.33-1.11-3.57.82,1.29-.56,4.15,2.07,2.41,3.86l-4.1-.69L228.28,378l-0.17-.28c-2.75.83,0.26,3-1.47,4.83,1.36,1.52-.27,6.77,4.25,4.83-2.73,1.52.44,3.31,0.83,5.25l1.88-2.22c2.73,3,.88,2.07,5.4,4.69-1.15.13-2.12,0.55-3.27,0-0.53,3.72-2.14,9,1.07,11.45-0.39,2.62-5.29,2.64-3.69,6.5,0.52,0.83,3.91-.3,2.53,2.06-0.32.14-2.87-2.61-2.77,0.15,3,2.2-2.12,4.43.43,7.18-1.25,1.24-1,3.6-3.48,2.91,0.74-2.07.46-5.11-.71-5.66,1.49,0.41,1.59-1.39,2.63.27,2.16-3-1.39-2.2.14-5-1-.28-2.9,1.25-2.05,1.94-3.44-.26-1.2-5.8-5.53-3.58-0.54,3,6.55,4.54,2.72,6.9-2-1.23-.1-2.76-3.6-4.41L221.85,418l2.36,1.79-0.5-.14c-3.46,3.61,3.25,3.86,4.69,7.45,2.55-1.81,5.92.94,7.5-.45,0.25,2.34-.34,4-3.78,3.75-2.46-4.55-3.62-.54-6.72-4.81-1.28.56-5-1.35-5.52,1,2.24,2.88,2.93-.57,3.85,2.19a1.57,1.57,0,0,1-1.14.14c1.69,1.37-.76,1.39,1.1,3l-0.66-.41c-2.23,1.67,2.2,2.2-.19,3.6,2.6-.43,2,1.23,3.52,2.33,1.09-1.53,4.82-2.1,4.87-5.28-2-.54-3.13-0.4-4-1.78l0.08,2.08a13,13,0,0,0-1.16-1.29l1.2-1.89c1.24,2.62,3.49,1.64,5.5,2.87-1.06,2.22.41,1.93-.37,3.32-2.95-.38-5.41,4-7.52,6.51,0.15-.4.11-0.94,0.21-1.22-1.72-2.07-2.57,1.12-3.39,1.13l1.37,1.51a0.82,0.82,0,0,0-1.31-.13c0.4,1.94,3.34,2.06,3.75,4-1.64,0-4-1.78-4.94-.67-1.45.29-5.34,1.28-4.1,3.91a2.23,2.23,0,0,1,1.12,1.68,0.87,0.87,0,0,0-.25-0.3l-1.91,1.53c-2.67-1.64,1.54-2.77-1.14-4.42l-2.63-.33a4.57,4.57,0,0,0-2.26-3.51c-0.58,1.66.08,2.07,0.48,4a3.71,3.71,0,0,1-3-1.5l1.48,0.4c2.37-2.09-2.27-3.58-1.55-6.35,0.14-.42.32-0.14,0.81,0-2.38-2.48,1.31-4.44-1.9-6.92l1.34,0.83c-1-1.6-3.37-4.75-5.65-7.89l-1-.11c-0.64.28-.52-0.82-0.06-1.38h0c-1.14-1.58-2.18-3.09-3-4.32a2.67,2.67,0,0,0-1.43,1.29c1.17,0.56,0,3.19,2.73,3-1.75,1.12.46,3.32-.65,4.16,1.9-1.53,2.5,1.37,4,1.78-1.78.42-.07,2.49-2.38,2.09-0.63.28,1.61-.7,0.27-1.52-2-1.92-2.16,3.06-4.05.71,1.41,2.91.41,6.51,2.33,9.54l1.08-1.53c-0.44,1.25-.16,4.3-1.3,4.44a27.38,27.38,0,0,0-.45-3.32c-2.62-.27-0.21,2.91-1.85,2.92l4.07,3.86,0.27-1.53c1.52,1.1-.66,4.16-1.22,6.52-3.49-1.65.19-3.61-1.06-6.23-1.22-1.93-3.56.85-4.29-.94a1.2,1.2,0,0,0,0,2.14l-0.71.63c-3.15-1.8-2.15-5.19-4.78-7.71a3.43,3.43,0,0,0,1.07.53,4.82,4.82,0,0,0,.77-5.26c-1.11.83-.43,1.25-0.09,1.8-0.81,0-1-1.65-1.88-2.34-1.08,1.53-2,.15-2.57,1.12-0.7-1.11-.4-1.94,0-3.18,1.29-.56,1.66.68,3.28,0.67-0.87-1.39,3.06-1.68,1.34-3.75-0.88,2.5-3.47-1-4.49-1.92l-0.15.42q-2.75-1.44-.08-2.08c0.69,1.11.08,2.08,2,1.93a4,4,0,0,0-.57-2.22l1.34,0.82L188,425.32a54.37,54.37,0,0,0-6.47-2.46c1.61-.7.42-2-0.11-2.78l0.68,0.42c1.58-1.4.63-4.87-.85-5.27,1.43-1,9,8.42,8.2.66,0.22-2.91-4.67-2.2-6.19-4a1.48,1.48,0,0,0,.81,0c0.45-1.24-1.36-1.52-2.06-2.63-0.79.7-.91,1.81-0.25,2.22-2-.55.39-2.64-1.11-3.74,3,1.52,1.38-2.37,2.9-1.25,2.2-2.37,0-5.28-2.21-6.8,4-1.4-.27-3.06,1.76-5.7-0.15.42,0.37,1.25-.1,1.81,2.34,1.79,1.54-2.79,3.59-.15-0.34-.56-1.31-0.15-1,0.42a2.28,2.28,0,0,0,2.35,1.79l2.37-2.09,0.53,0.84,3.31-3.2a2.48,2.48,0,0,0-1.46.28c1.66-3.89.36-8.6,1.06-12.07-6.91-1.25-2.25-8.88-6.28-12.09,1.93,0.93,5.42,1.65,6.91,1.31,0.24,0.66,2.94,2.19,2.23,3.57-1.14.13-2.55,1.79-3.74,0.55,0.46,4,3.1-.27,5.59,1.12-0.31-4.44-4.16-7.37-5.55-10.28h0.83l-1.37-2.23c-0.61,1.67-4.55,1.24-3-.84l0.17,0.29c1.77-1.11,0-3.9.48-5.84l-2.16-1.54c0.44-1.95,4.69-1.65,7.29-2.06,0.58-3.05-2.74-5.15-4.61-7.53,1.94-.82,2.81-5.4,4.83-2.75-1.37-2.93-11.35-3.29-5.4-7.56l1.67,1.41c0-4.6-2.88-11.46-.79-13.38,6.25,2.31,7.08-5.07,13.45-5.25-1.46.08-1.77-1.68-2.51-2,0.78-.3,1.55-0.85.32-1.65-1.44,1.65-6.4-1.9-4.21,1.75-4.14-2.15-7.28-4.71-6.68-8.47l2.62,0.32-1.1,2.91c2-.11,1.67,1.42,2.49,2.14,2-5.41,6.07,1.34,6.3-4.36-1.64-.72-1-0.29-1.5-1.84,0,0.7,1.81,1,2-.1l-2-1.29c4.57-1.53,2.51,3.57,5.76,2.19,1.84,2.4,2.56,6.29,6,5.92,1.57-3.44-5.94-3.84-4-7.42l1.46-.25c-0.84-1.41-3.12-1.86-4.44-2.73a1.66,1.66,0,0,0,1.78-1.07c-3.14-2.57-3.64-4.11-7.1-6.55,2.19,5.75-3.06,4.4-1.18,10.29-1-1-1.38-5-5-5.67l2.62,0.33c-1.17-2-2.33-4-1.22-6.17l1.33,1.56c-1.5-3.25,4.51-4.65.41-7.53a2.3,2.3,0,0,0,0,2.09c-1-1.7-.52-3.64.12-5.3l-3.94-4c1.3,0.18,1.62-2.06,3.58-.74,2.27-2.32-1.5-4-2-5.51,3.08-2.29,1,2.4,4.57,3.07a8.93,8.93,0,0,0-1.15-9.69,1.88,1.88,0,0,1-1.74.86c0.84,0,.79-1.49.91-2.29l-1.64-.76c1.31-1.21,2.29-.9,3.44.39,0.24-.62-0.41-1.41-0.8-2.18s-0.53-1.43.77-1.92c1.83,2.27-.3,4.94.85,6.21-1.14-4.81,5.71-4,4.17-9.8,0.82,0,2.3,1.14,2.44.06-0.35-2.56-3.44-1-5.25-2,0.85,2-.29,2.79-2.56,3.65l-1.33-.66c0.73,0,.9-1.18,1.63-1.46l-2.78-.61c3.1,0.48,5.71-1.17,4.68-2.81-2.41,1.29-2.26.89-5.85,0.93-3.15-2.43,3.54-2,.2-4.75,1,0.27,1.54,2.41,2.48.7,0.28-1.47-2.17-1.5-2.86-2.56,2.49,1.36,4.45,1.25,7.42,2.77,0.07,2.68-.14,1.06.75,3.77l2.41-2c0.21,2.3,2.82,1.94,3.8,2.23,3-3.61-3.67-3.31-2.75-5.72-1.67-1.36-.6,2.28-2.29.24,0.6-2.27-1.65-.69-2.53-3.37l1.15,0.54c1.62-.65-0.22-1.61-0.41-2.55-0.71-1.07-9.14.35-9-3.77a6.08,6.08,0,0,0,1.47.4l10.77,2.94,10.76,3a52.2,52.2,0,0,1,3.14-14.09c4.37-.88,3.27,3.83,5.22,3.67l-1,2.23c-1.81-.27-0.21-4.84-3.57-3,1,4.13-1.24,5.78,2.19,9.92,4.38-.83-0.33-5.1,3.17-7.34a3.33,3.33,0,0,0,.59,2.86l2.37-7.41-1-.67a18.28,18.28,0,0,1-1.24,3.14c0.55-2.36-1.68-4.54-4.81-4.92l-0.14.41-0.91-.93Zm14-154.7a4.31,4.31,0,0,0,1,.53A1.54,1.54,0,0,1,234.65,75.79Zm-7.94,202.32c0.82-3.11,2-6.19,2.77-9.18-6.81,4.74-11.94,8.09-10.75-1.09l-0.38-.65a7.51,7.51,0,0,0-1,5.17c2,1.84,9.46,7.83,10.18,7.85,1.79-.36,0-1.38.65-2.33Zm-10.61,1.07c-0.89,1.72.53,1.47,1.72,1.89l-0.25-1.94A1.71,1.71,0,0,1,216.1,279.18Zm3,1.92a0.57,0.57,0,0,1,.3-0.44Zm5.28-34.8a1.75,1.75,0,0,1,.06.19l0.4-1.27A1.45,1.45,0,0,0,224.35,246.29ZM221,249.68l2.22,0.63,0.37-1.19A5,5,0,0,0,221,249.68Zm-8.59,10.88c2.63,1,2.48,3.48,5.59,4a1.18,1.18,0,0,0,1.47-.79l0.49-2a2.8,2.8,0,0,1-1.24-.55c-0.47.68-1.3,1.08-3.19,0.58,4.39-1.4-2.8-2-1.51-3.86C211.9,257,211.61,259.87,212.42,260.57Zm-6.75,156.87c-0.28,0-1,.18-1.89.39l-1.43-1.56c0.89-2.5,5.56-4.18,1.87-6.79,1.06-1,3.17-1.41,4.91-1.82a4.7,4.7,0,0,1-.67,1.38C213.6,415.94,202.2,411.91,205.67,417.43Zm7.93-28.89a1.35,1.35,0,0,0,.68.42c-5.28-6.18-6.54-11-6.05-14.08-2.33.4-4.33,3-5.39,4.24l-2.5-1.38,2.11-.55L200.25,375c-1.8.41-1.57,2.08-3,3.05,0.49,0.14,3.22,3.88,4.74,5l2-2.63c-0.79.69-.51,4.44,0,6,1.3,0.14,3.52-2.22.72-2.77,2-.14,1.73,2.77,4,1.11,1.87,2.35-.13,5.67-1.22,7.2h-3.27c-1.41,1.66,3.82,1.52,1.76,3.46-0.42-2.63-3.6.14-3.67-1.93-1.28.55-3.44-.27-3.36,1.81,4.16,2.07-2.88,1.95.78,3.88-1.43,1-2.49-1.38-3.24.7,2.06,2.63,3.69,2.62,6.81,3,1.06-2.21-3.86-2.9-2.95-4.7l5.06,4.15c0.81-.62.93-1.12,0.75-1.56a4.34,4.34,0,0,0,2,2.1c0.59,0.36,1.09.69,1.52,1,0.2-2.1.43-4,1.79-4.18L213,400c1.45-.63.46-1.93-0.6-2.58,0-1.89-2-3.95,0-4.2l1.33,0.83A20.91,20.91,0,0,1,213.6,388.54ZM224,313.16c-5.69.83-10.77,1.89-10.44,8.52l-0.33-.55c-3.81,3,4,6.87-.27,10.51-1.91-2.15-1.73-2-6.31-4.63l1.37,2.24c-3-.87-1.61,1.37-1.9,2.89l-3.47-1.7c1.12-.82,1.73-3.18.9-3.18,0.35,0.56,4.85-2.71,4-4.81-2.46,0-1.88,4.28-5.68,2,1.51,1.82-.94,1.79-0.25,3.61-1.51-1.83-3.28-.73-4.94-2.14l0.55,2.93c-0.82,0-1.4-4.33-4.62-2.28,1.17,1.27-.73,4.17,1.89,4.47h-0.81c-0.77,2.08,3.63,1.29,1.89,3.77,1.32,0.16,2.28-.26,2.09-1.22-0.51-.85-2.31-1.14-2.52-2.81,2.12-.54-0.44,1.95,3.14,1.14,1.78-.4-1.08-4.46,2.71-2.89l-0.77,2.08c2.62,0.31,2.33,1.83,4.45,2,0.85,1.39-2.23,2.34-.07,3.89,1.65,0.71,4.9,0,3.32,2.11-4,1.35-3.77,6.49-3.38,8.43l1.53,1.81c1.63,0,.07-3.19,2.07-1.93l0.4,2.64-1-.29c-0.3.84,0.71,1.81,1.21,2.64-1.82-1-.89-2.77-3.66-2.65-0.65,1.17-1.68,1.26-1.26,2.42a1,1,0,0,0-.81-0.5c-1.41,2.35,2.85,2.65,3.69,3.35,3.34,2.79,3.53-2.19,6.32-1.62l0.86,7.34a3.76,3.76,0,0,0-2.81-1.26c-1.42,1.66-2.13-.15-2.21,2.35,3.76,0.15,2.06,3.33,4.07,5.27-1.6.68-1.93,0.83-1.82-1-2.45,0-1.73,2.48-2,3.32,0.56,0.55.84,1.42,1.34,2,1.28-.61,2.77-0.17,3.67,1.47l0.5,0.13c0.89-2.49,3.89-6.21,1.54-8l1.16,0.56c2.36-2.76-3.81-6.79.91-7.74,1.81,0.29.47-.55,3.09-0.27l-1.86-2.35,1.15,0.56-0.26-3.74,0.49,0.14c-2.22-2-4-3.52-5.53-4.76-1.14-.11-1.51,0-2.3-0.69a1.32,1.32,0,0,1-.37-1.47h0c0.42-.87,2.12-1.33,2.89-2.38l0,3.45a5.51,5.51,0,0,0,5.48-1.2c0,0.69,1.5,1.12,1.8.29-0.5-.14-1-2.36-2.66-1.68-0.4-3.32,5.18-8.1,2-13.39,1.88,3.76,2.88-2.59,3.3,1.42,3.38-2.44-2.83-2.66-2.07-5.41,1.14-.13-0.29,1.51,1.85,2.37,1.7-4.53-4.27-8.34-2.86-12.75L224.7,316Zm-2.11-9.22-0.56-2.73c0,0.08-.06.16-0.1,0.25l-1.68-2.81c-1.12,1.5-3.89,2.28-4.89-.1,1,0.29,2.28-.23,2.78.61,1.61-1.35,3.37-4.49-.38-4,3.16,3.26-4.73.18-2.4,2.72-2.26-1.47-1.06-2.57-2-3.83,1.87,1.41,4.55.2,5.7-1.49-0.5-.85.29-2.9-0.53-4.31-2.29.22-3.44-1.06-4.24,1a2.46,2.46,0,0,1,.47-3.32c0.32,0.58.5,1.54,1.31,1.57,2.16-.64,2.18-1.67,3.12-2.14L218.24,284a2.47,2.47,0,0,1-.8.24l-1.81-1.71c0.83,2.1-1.14.8-2.44,0.63,2.61,0.35.48-1.24,0.47-1.93l-2.93,1.17c-1.31-.87,2.28-2.3-0.5-2.24-1.45,3-1.11,4.28-.6,7.21l2.27-.92c1.17,3.37-3.91,1.57-4.2,5.18,1.8,1.71-.44,5.42,3.49,5.92-1.15-.58-3.74,1.87-2.08,3.29,3.45,1.74,3.5,5.9,5.28,4.82,0.16-1.1-1.66-2.81.78-3.45l0.52,2.23,2.11-1.21C217,303.85,218.94,304,221.86,303.95Zm27.38-46,0.06-.08a0.26,0.26,0,0,0,0,.1h0Z"/><path class="cls-1" d="M211.32,450c0.85,0.69.58,2.21,2.54,2.06C211.72,451.93,213.75,449.29,211.32,450Z"/><path class="cls-1" d="M209.1,451.66c0.5,0.15,1.32.14,1.34,0.83L210,450.56Z"/><path class="cls-1" d="M194.43,452.44c1.51,1.1,2.35,1.79,2.09,3.31-5.23.17-1.25-2.62-6-3.7-0.71,2.77,3.75,4,4,6.34C196.75,457.41,198.36,452.83,194.43,452.44Z"/><polygon class="cls-1" points="187.98 450.68 189.03 452.33 189.34 452.2 188.3 450.54 187.98 450.68"/><path class="cls-1" d="M235.68,420.42c1.63,0,.12-1.11-0.23-1.66A1.16,1.16,0,0,0,235.68,420.42Z"/><path class="cls-1" d="M263.11,114.95L263,103.18C263,106.55,262.8,109.66,263.11,114.95Z"/><path class="cls-1" d="M228.35,380.11c1.26,3.32,3.92,5,4.36,8.28,3.62-4-4.61-6.07-1-9.38Z"/><path class="cls-1" d="M241.17,382.34c-3.09.27-3.36-2.76-5.64-2.49,0.56,2.21,2.82,1.25,2.39,3.17Z"/><polygon class="cls-1" points="189.56 392.59 188.06 391.49 188.57 392.32 189.56 392.59"/><polygon class="cls-1" points="239.72 367.6 240.37 368.01 241.48 366.5 239.72 367.6"/><path class="cls-1" d="M241,368.43l-0.67-.41Z"/><polygon class="cls-1" points="183.12 390.8 182.35 392.19 183.69 393.02 183.12 390.8"/><path class="cls-1" d="M200.55,379.41l0.86,1.37C201.25,380.51,202.65,378.85,200.55,379.41Z"/><polygon class="cls-1" points="241.87 357.98 240.84 356.32 240.53 356.45 241.56 358.11 241.87 357.98"/><path class="cls-1" d="M193,368.57c-2.42.69-.41-2.64-2.64-1C190.6,369.26,191.88,368.7,193,368.57Z"/><path class="cls-1" d="M210.58,351a0.82,0.82,0,0,0-.29-0.68A3.29,3.29,0,0,0,210.58,351Z"/><path class="cls-1" d="M210.58,351c-0.06.68-1,1.29-.38,1.82C211.34,352.07,211,351.72,210.58,351Z"/><path class="cls-1" d="M210.75,343.13l-0.22.6c-1.1-.74-1-0.42-0.08.23,0,0.66.76,0.7,1.26,0.82l0.87,0.49c-0.28-.23-0.56-0.44-0.8-0.62C211.9,343.64,211.85,343,210.75,343.13Z"/><path class="cls-1" d="M253,318c-1.1,2.17-1.58,2.71-3.38,2.41-0.79,2.09,2.36,2.06,3,3.43C252.46,321.4,253.35,321,253,318Z"/><path class="cls-1" d="M252.57,323.86c0,0.28,0,.54.06,0.86A1.3,1.3,0,0,0,252.57,323.86Z"/><polygon class="cls-1" points="190.04 350.49 187.39 348.81 187.73 349.37 190.04 350.49"/><path class="cls-1" d="M254.24,314.76a1.73,1.73,0,0,1-.8,1.35C255.25,316.42,254.39,314.35,254.24,314.76Z"/><path class="cls-1" d="M217.74,319.95c-1.14.12-.61,1.65-1.1,2.2C217,321.32,220.38,321,217.74,319.95Z"/><path class="cls-1" d="M247.41,307.51c-0.16.41-1.45,0.92-2.92,0.49C245.31,308.7,248.43,309.85,247.41,307.51Z"/><polygon class="cls-1" points="218.49 315.8 217.84 316.07 218.85 317.75 218.49 315.8"/><path class="cls-1" d="M191.1,318.74c2,2,5.5-2.29,7,.94,2.65-3.7-3.1,0-2.46-2.87C194.78,318.43,192,319,191.1,318.74Z"/><path class="cls-1" d="M195.68,316.81A2,2,0,0,0,196,316,4.65,4.65,0,0,0,195.68,316.81Z"/><path class="cls-1" d="M212,293.36a3.22,3.22,0,0,0,.67.67A3.07,3.07,0,0,0,212,293.36Z"/><path class="cls-1" d="M194.83,307.36l3,3c-2-2-1.41-6.44-4.67-6.49a3.14,3.14,0,0,0,1.21,4.06Z"/><path class="cls-1" d="M256.78,283.53l1.15,1.26,0.54-1.35C257.94,283.79,255.65,282.8,256.78,283.53Z"/><path class="cls-1" d="M258.57,283.18l-0.1.26A0.22,0.22,0,0,0,258.57,283.18Z"/><path class="cls-1" d="M213,298.53a2.46,2.46,0,0,0,.19,2.36C213.84,300.63,214.64,298.56,213,298.53Z"/><polygon class="cls-1" points="252.99 275.11 253.33 277.02 253.32 274.98 252.99 275.11"/><polygon class="cls-1" points="259.51 266.73 260.16 266.45 259.18 264.67 258.53 264.95 259.51 266.73"/><path class="cls-1" d="M194.53,271c-0.5,1.25,2.29,2.59,2.95,2.32l0.16-2.51c-2.62.34,0,.7-0.82,2.07Z"/><path class="cls-1" d="M259.52,199c1.68,0.64.56,3.32-1.07,3.38-0.68-.4-1.29-1.91-2.36-1l4.09,2.37c-2.76,2.74-5.4-2.46-6.81-3.95-0.69,2.9,2,3.9,1.85,7a4.76,4.76,0,0,1,2.42-1.87c3,0,1.51,2.88,1.63,5,1.35-1.26,2.39-.44,3.5.59a0.86,0.86,0,0,0,.43.4l0.4,0.35V211a3.48,3.48,0,0,0,1.29-.15c-0.77-1.8,1.77-3,1.87-4.14-4.85.86-.92-3.87-2.33-5.36L264,199.65l0-.61c0.54-.1,1.19.11,2.09,1.08-0.91-.82-0.45-3.39-2-3.22l0.22-5.85a2.42,2.42,0,0,1,.81-0.46,1.11,1.11,0,0,0-.78-0.25l0.49-12.64,0.55-12.49c-0.45,1.2-1.61,2.2-2.21,3.43-3.07-2.08-.7,2-3.68,1.31a1.83,1.83,0,0,1,.15-2.86c-1.5-.37-2.92.62-4.72,0.39-2.1,3,5.16,3.94,3.88,7-1.82-.22-3.36-1.27-3.22.78l-0.36-.54c1.86,3.36-4.26,2.32.63,4.63l-2.63-.19c1.91,1.59,1.78,4.48,2.06,6.12l-0.5-.12c2.78,4.72.51,2.59,1.52,7.81l-3-2.53c-1.36,1.72,2,2.28,1.56,3.54-0.5-.12-2.45.09-2.86-1.15l4.37,6.5C258.35,201,258.39,199.15,259.52,199Z"/><path class="cls-1" d="M255.21,206.75a1.87,1.87,0,0,0-.16,1.16A6,6,0,0,0,255.21,206.75Z"/><path class="cls-1" d="M265.5,163.48l-0.08,1.75A2.66,2.66,0,0,0,265.5,163.48Z"/><path class="cls-1" d="M260.48,216.16c1.42-1,1.86.94,2.86,1.19l0.17-4c-1,0-2.13-.49-3.06-0.46Z"/><path class="cls-1" d="M265.48,212.33a4.69,4.69,0,0,1-1.88-1.12l-0.09,2.17A2,2,0,0,0,265.48,212.33Z"/><polygon class="cls-1" points="211.33 209.88 211.27 209.19 210.54 208.12 211.33 209.88"/><path class="cls-1" d="M216.34,199.37c-1.58.74-.49,2.36-0.12,2.9C216.25,200.48,216.8,201.29,216.34,199.37Z"/><polygon class="cls-1" points="199.75 200.77 198.96 199 198.65 199.14 199.75 200.77"/><path class="cls-1" d="M256,149.94c0-.28-0.06-0.55-0.11-0.83A1.55,1.55,0,0,0,256,149.94Z"/><path class="cls-1" d="M257.56,164.6c3.19-3.87,2.3,2.8,6.16,1.75l-1.12-2.27,1,0.25-0.17-2.69c-1.78.43-1.91,0.85-3.72,0.61,0.94-3.52,2.24-1,4.71-3.44l-0.07-4,0.53,0.36a0.73,0.73,0,0,0-.53-0.63l-0.07-6.67c0-3.34,0-6.64,0-6.64-1.24-2.52-3.39,1-5.92-1-0.25,2.78-2.51,6.81,1.11,7.34-0.5-.13-1.48-0.4-2,0.14l2.87,1.85,1.07-1.47c2.85,1.85,1.8,7-.1,7.9-0.81-3.08-4.52-1.84-2.25-5.87-0.94.12-2.62,0.77-3-.21C256.71,154.93,254.76,159.26,257.56,164.6Z"/><path class="cls-1" d="M260.18,115.37l0.32,0.08C260.34,115.34,260.21,115.29,260.18,115.37Z"/><path class="cls-1" d="M259.53,117l3.26,2.82L263,116l-2.45-.57c0.59,0.41,1.69,1.87.66,2.27Z"/><path class="cls-1" d="M264.62,122.82c-0.84-2-3.78-2.29-5.24-1.39-1.15-1.93,3.26-.56.31-2.15-2.12-.21-1.14,2.13-0.8,2.67Z"/><polygon class="cls-1" points="261.62 136.58 260.45 135.93 260.01 137.22 261.62 136.58"/><path class="cls-1" d="M260.45,135.93l0.45-1.27a11.81,11.81,0,0,0-2.44.16Z"/><path class="cls-1" d="M262.1,131.34a7,7,0,0,0,.65-1.85Z"/><path class="cls-1" d="M261.2,132.75h0.39l0.51-1.4A16.13,16.13,0,0,1,261.2,132.75Z"/><path class="cls-1" d="M260.91,134.66c2.08,0,4.26-.05,3.88-2l-3.2.05Z"/><polygon class="cls-1" points="203.47 188.33 202.39 186.7 202.06 186.85 203.15 188.48 203.47 188.33"/><path class="cls-1" d="M205.82,179.34a6.68,6.68,0,0,0-1.09-1A2.07,2.07,0,0,0,205.82,179.34Z"/><path class="cls-1" d="M192.08,171.81c2.18-1.76,2.61,2.73,3.71-.69,1.95-.2,4.35,1.56,3.3,3.13-1.81-.22-1.08-1.65-3-0.75,2,1.19.59,1.53,3.35,1.3,1.61,1.91,3.55,2.21,5.27,3.53-1.1-2.24,2-6.71-1.4-9.68-3.21-1.72-7.76-1-12.52-1.31C189.68,167.51,188.94,171.49,192.08,171.81Z"/><path class="cls-1" d="M187.17,174.51a1.52,1.52,0,0,0,.26,1.68C189.07,176.14,187.2,175.22,187.17,174.51Z"/><path class="cls-1" d="M224.14,156.73c-0.66-.21-1.4-1.81-2.59-1.56l0.69,2.41C222.4,157,223.24,156.9,224.14,156.73Z"/><path class="cls-1" d="M222.55,158.64l-0.3-1.05A1.33,1.33,0,0,0,222.55,158.64Z"/><path class="cls-1" d="M224.57,156.65l-0.43.08A0.41,0.41,0,0,0,224.57,156.65Z"/><path class="cls-1" d="M263.83,126.11c1.3,0.18.63-.89,0.3-1.44C264,125.07,263.48,125.59,263.83,126.11Z"/><path class="cls-1" d="M263.65,87.7l1.16-.71A1.55,1.55,0,0,0,263.65,87.7Z"/><path class="cls-1" d="M230.85,67.83a1.94,1.94,0,0,1-.61-0.33A1.62,1.62,0,0,0,230.85,67.83Z"/><path class="cls-1" d="M230.24,67.5c-0.93-.89,1.18-2.6-0.22-3.79l0.47,0.22-0.29-.87c-0.14-.44-0.27-0.91-0.27-0.91C229.63,63.72,228.83,66.44,230.24,67.5Z"/></svg>