<svg id="Layer_1" data-name="Layer 1" xmlns="http://www.w3.org/2000/svg" viewBox="0 0 101.62 90.07"><defs><style>.cls-1{stroke:#000;stroke-linecap:round;stroke-miterlimit:10;stroke-width:6px;}</style></defs><title>menuicon</title><line class="cls-1" x1="3" y1="3" x2="98.62" y2="3"/><line class="cls-1" x1="3" y1="20.57" x2="98.62" y2="20.57"/><line class="cls-1" x1="3" y1="37.68" x2="98.62" y2="37.68"/><line class="cls-1" x1="3" y1="55.25" x2="98.62" y2="55.25"/><path d="M31.61,102.92a2.23,2.23,0,0,1-2.22-2.22V88.12l-5.63,14a1.32,1.32,0,0,1-1.25.81,1.3,1.3,0,0,1-1.19-.81l-5.63-14v12.61a2.22,2.22,0,0,1-4.44,0V84.36a2.51,2.51,0,0,1,2.5-2.5c2-.22,3.79.22,4.54,2l4.26,10.58,4.26-10.58a3.25,3.25,0,0,1,3-2c2-.31,4,0.44,4,2.5V100.7A2.24,2.24,0,0,1,31.61,102.92Z" transform="translate(-8.14 -13.18)"/><path d="M55.93,94H43.05c0.35,2.64,2.46,4.84,6,4.84a9.28,9.28,0,0,0,4.06-1,2.48,2.48,0,0,1,1.08-.26,2.3,2.3,0,0,1,2.33,2.2c0,2.46-5.32,3.46-8.08,3.46-6.35,0-11.15-4.28-11.15-11a10.62,10.62,0,0,1,10.8-10.93,10,10,0,0,1,9.77,7,11,11,0,0,1,.6,3.15A2.55,2.55,0,0,1,55.93,94Zm-7.82-8.34A5,5,0,0,0,43,90.33H53.25A4.83,4.83,0,0,0,48.11,85.71Z" transform="translate(-8.14 -13.18)"/><path d="M79.35,103a2.71,2.71,0,0,1-2.72-2.72V90.12c0-2.9-1.51-3.89-3.85-3.89A5.94,5.94,0,0,0,68,88.69v11.58a2.74,2.74,0,0,1-5.49,0v-16a2.72,2.72,0,0,1,2.81-2.68A2.69,2.69,0,0,1,68,84.28v0.3a9.56,9.56,0,0,1,7.3-3.24c4.58,0,6.78,2.59,6.78,6.66v12.27A2.72,2.72,0,0,1,79.35,103Z" transform="translate(-8.14 -13.18)"/><path d="M104.37,103a2.71,2.71,0,0,1-2.72-2.72V100.1a9.77,9.77,0,0,1-7.35,3.15c-4.58,0-6.74-2.51-6.74-6.57V84.28a2.72,2.72,0,0,1,2.81-2.68,2.69,2.69,0,0,1,2.68,2.68V94.52c0,2.9,1.51,3.85,3.85,3.85A6.14,6.14,0,0,0,101.65,96V84.28a2.72,2.72,0,0,1,2.81-2.68,2.69,2.69,0,0,1,2.68,2.68v16A2.72,2.72,0,0,1,104.37,103Z" transform="translate(-8.14 -13.18)"/></svg>