<svg id="Layer_1" data-name="Layer 1" xmlns="http://www.w3.org/2000/svg" viewBox="0 0 107.41 91.7"><defs><style>.cls-1{fill:#fbec03;}</style></defs><title>menu</title><path class="cls-1" d="M0,9.5A49.54,49.54,0,0,1,4.62,7.6,106.63,106.63,0,0,1,16.78,4,145.82,145.82,0,0,1,34,1.08,179.79,179.79,0,0,1,53.7,0,177.69,177.69,0,0,1,73.42,1.06,144.4,144.4,0,0,1,90.63,4c2.52,0.6,4.82,1.22,6.87,1.83s3.83,1.22,5.3,1.76a49.26,49.26,0,0,1,4.62,1.91,49.26,49.26,0,0,1-4.62,1.91c-1.47.55-3.25,1.14-5.3,1.76S93.14,14.4,90.63,15a144.4,144.4,0,0,1-17.2,2.93A177.69,177.69,0,0,1,53.7,19,179.79,179.79,0,0,1,34,17.91,145.82,145.82,0,0,1,16.78,15,106.63,106.63,0,0,1,4.62,11.4,49.54,49.54,0,0,1,0,9.5Z"/><path class="cls-1" d="M0,45.85A49.54,49.54,0,0,1,4.62,44a106.63,106.63,0,0,1,12.17-3.58A145.82,145.82,0,0,1,34,37.43,179.79,179.79,0,0,1,53.7,36.35a177.68,177.68,0,0,1,19.72,1.06,144.4,144.4,0,0,1,17.2,2.93c2.52,0.6,4.82,1.22,6.87,1.83s3.83,1.22,5.3,1.76a49.25,49.25,0,0,1,4.62,1.91,49.26,49.26,0,0,1-4.62,1.91c-1.47.55-3.25,1.14-5.3,1.76s-4.35,1.23-6.87,1.83a144.4,144.4,0,0,1-17.2,2.93A177.69,177.69,0,0,1,53.7,55.35,179.79,179.79,0,0,1,34,54.27a145.82,145.82,0,0,1-17.2-2.94A106.63,106.63,0,0,1,4.62,47.75,49.54,49.54,0,0,1,0,45.85Z"/><path class="cls-1" d="M0,82.2a49.54,49.54,0,0,1,4.62-1.9,106.63,106.63,0,0,1,12.17-3.58A145.82,145.82,0,0,1,34,73.79,179.79,179.79,0,0,1,53.7,72.7a177.69,177.69,0,0,1,19.72,1.06,144.4,144.4,0,0,1,17.2,2.93c2.52,0.6,4.82,1.22,6.87,1.83s3.83,1.22,5.3,1.76a49.25,49.25,0,0,1,4.62,1.91,49.26,49.26,0,0,1-4.62,1.91c-1.47.55-3.25,1.14-5.3,1.76s-4.35,1.23-6.87,1.83a144.4,144.4,0,0,1-17.2,2.93A177.69,177.69,0,0,1,53.7,91.7,179.79,179.79,0,0,1,34,90.62a145.82,145.82,0,0,1-17.2-2.94A106.63,106.63,0,0,1,4.62,84.1,49.54,49.54,0,0,1,0,82.2Z"/></svg>