<?xml version="1.0" encoding="utf-8"?>
<!-- Generator: Adobe Illustrator 19.2.1, SVG Export Plug-In . SVG Version: 6.00 Build 0)  -->
<svg version="1.1" xmlns="http://www.w3.org/2000/svg" xmlns:xlink="http://www.w3.org/1999/xlink" x="0px" y="0px"
	 width="16363.9px" height="16364.2px" viewBox="0 0 16363.9 16364.2" style="enable-background:new 0 0 16363.9 16364.2;"
	 xml:space="preserve">
<style type="text/css">
	.st0{fill:none;}
	.st1{fill:#B3B3B3;stroke:#FFFFFF;stroke-width:9;stroke-miterlimit:10;}
	.st2{fill:#605E5E;stroke:#000000;stroke-miterlimit:10;}
	.st3{fill:url(#SVGID_1_);stroke:#000000;stroke-miterlimit:10;}
	.st4{opacity:0.63;fill:#737024;stroke:#000000;stroke-miterlimit:10;}
	.st5{opacity:0.48;fill:#074A9B;stroke:#000000;stroke-miterlimit:10;}
</style>
<pattern  y="16364.2" width="480.5" height="488.1" patternUnits="userSpaceOnUse" id="New_Pattern_12" viewBox="546.3 -807.1 480.5 488.1" style="overflow:visible;">
	<g>
		<rect x="546.3" y="-807.1" class="st0" width="480.5" height="488.1"/>
		<g>
			<polygon class="st1" points="723.5,-260.2 610.4,-258.1 610.9,-377.6 723.5,-377.6 			"/>
			<path class="st1" d="M969.9-4.5H847.4c0,0,7.9-372.3,0-372.3s115.1,3.4,122.5,0S969.9-4.5,969.9-4.5z"/>
		</g>
		<g>
			<path class="st1" d="M1569.6-624.3c-8.8-2.4-604.1-0.1-604.1-0.1v-126.4l602.1,0.7"/>
			<path class="st1" d="M1571.3-497.3c0-12.3-1.6,132.4-1.6,120.8S968.3-387,968.3-387v-104.1C968.3-491.1,1571.3-485,1571.3-497.3z
				"/>
		</g>
		<g>
			<polygon class="st1" points="723.5,-748.4 610.4,-746.2 610.9,-865.7 723.5,-865.7 			"/>
			<polyline class="st1" points="850.7,-266.2 847.4,-472.7 969.9,-472.7 973.2,-265.2 			"/>
			<path class="st1" d="M1089.1-624.3c-8.8-2.4-604.1-0.1-604.1-0.1v-126.4l602.1,0.7"/>
			<path class="st1" d="M1090.8-497.3c0-12.3-1.6,132.4-1.6,120.8S487.8-387,487.8-387v-104.1C487.8-491.1,1090.8-485,1090.8-497.3z
				"/>
			<path class="st1" d="M969.9-492.6H847.4c0,0,7.9-372.3,0-372.3s115.1,3.4,122.5,0C977.3-868.3,969.9-492.6,969.9-492.6z"/>
			<path class="st1" d="M724.8-261.8H607.5c0,0,6.8-362.6,3.4-361.6c0,0,107-4.6,110.3-1.7L724.8-261.8z"/>
		</g>
		<g>
			<path class="st1" d="M608.6-624.3c-8.8-2.4-604.1-0.1-604.1-0.1v-126.4l602.1,0.7"/>
			<path class="st1" d="M610.4-497.3c0-12.3-1.6,132.4-1.6,120.8S7.3-387,7.3-387v-104.1C7.3-491.1,610.4-485,610.4-497.3z"/>
		</g>
		<g>
			<polyline class="st1" points="850.7,-754.3 847.4,-960.8 969.9,-960.8 973.2,-753.4 			"/>
			<path class="st1" d="M724.8-750H607.5c0,0,6.8-362.6,3.4-361.6c0,0,107-4.6,110.3-1.7L724.8-750z"/>
		</g>
	</g>
</pattern>
<g id="Layer_1">
	<title>pattern</title>
	<rect x="-116.2" y="-197.6" class="st2" width="16865.2" height="16865.2"/>
	<pattern  id="SVGID_1_" xlink:href="#New_Pattern_12" patternTransform="matrix(1.0176 0 0 0.8317 -74.1659 -2375.6555)">
	</pattern>
	<rect x="-439.6" y="-297" class="st3" width="17511.9" height="17063.9"/>
</g>
<g id="Layer_2">
	<rect x="-502.9" y="-297" class="st4" width="17575.2" height="17228.1"/>
	<polygon class="st5" points="-439.6,8182.1 -297.4,8182.1 -297.4,8182.1 -439.6,8182.1 	"/>
</g>
</svg>
