<svg id="Layer_1" data-name="Layer 1" xmlns="http://www.w3.org/2000/svg" xmlns:xlink="http://www.w3.org/1999/xlink" viewBox="0 0 16363.89 16364.19"><defs><style>.cls-1{fill:none;}.cls-2{fill:#fff;stroke:#b3b3b3;}.cls-2,.cls-3{stroke-miterlimit:10;}.cls-3{stroke:#000;fill:url(#New_Pattern_12);}</style><pattern id="New_Pattern_12" data-name="New Pattern 12" width="480.47" height="488.13" patternUnits="userSpaceOnUse" viewBox="0 0 480.47 488.13"><rect class="cls-1" width="480.47" height="488.13"/><polygon class="cls-2" points="177.2 546.86 64.18 548.99 64.62 429.53 177.2 429.53 177.2 546.86"/><path class="cls-2" d="M423.67,802.6H301.13s7.89-372.25,0-372.25,115.13,3.45,122.54,0S423.67,802.6,423.67,802.6Z"/><path class="cls-2" d="M1023.3,182.76c-8.79-2.43-604.11-.08-604.11-0.08V56.24l602.13,0.65"/><path class="cls-2" d="M1025.07,309.85c0-12.29-1.65,132.41-1.65,120.84S422,420.12,422,420.12V316S1025.07,322.14,1025.07,309.85Z"/><polygon class="cls-2" points="177.2 58.73 64.18 60.86 64.62 -58.6 177.2 -58.6 177.2 58.73"/><polyline class="cls-2" points="304.4 540.95 301.13 334.43 423.67 334.43 426.91 541.86"/><path class="cls-2" d="M542.83,182.76c-8.79-2.43-604.11-.08-604.11-0.08V56.24l602.13,0.65"/><path class="cls-2" d="M544.59,309.85c0-12.29-1.65,132.41-1.65,120.84S-58.43,420.12-58.43,420.12V316S544.59,322.14,544.59,309.85Z"/><path class="cls-2" d="M423.67,314.48H301.13s7.89-372.25,0-372.25,115.13,3.45,122.54,0S423.67,314.48,423.67,314.48Z"/><path class="cls-2" d="M178.59,545.25H61.26s6.83-362.61,3.41-361.62c0,0,107-4.65,110.32-1.73Z"/><path class="cls-2" d="M62.35,182.76c-8.79-2.43-604.11-.08-604.11-0.08V56.24L60.38,56.89"/><path class="cls-2" d="M64.12,309.85c0-12.29-1.65,132.41-1.65,120.84s-601.38-10.56-601.38-10.56V316S64.12,322.14,64.12,309.85Z"/><polyline class="cls-2" points="304.4 52.82 301.13 -153.7 423.67 -153.7 426.91 53.73"/><path class="cls-2" d="M178.59,57.13H61.26s6.83-362.61,3.41-361.62c0,0,107-4.65,110.32-1.73Z"/></pattern></defs><title>pattern-01</title><rect class="cls-3" y="0.3" width="16363.89" height="16363.89"/></svg>